SplineFontDB: 3.0
FontName: SeymourOne
FullName: Seymour One
FamilyName: Seymour One
Weight: Book
Copyright: Copyright (c) 2011-12 by vernon adams. All rights reserved.
Version: 1.000
FONDName: Seymour One
ItalicAngle: 0
UnderlinePosition: 0
UnderlineWidth: 0
Ascent: 1638
Descent: 410
sfntRevision: 0x00010000
UFOAscent: 2264
UFODescent: -890
LayerCount: 2
Layer: 0 0 "Back"  1
Layer: 1 0 "Fore"  0
FSType: 0
OS2Version: 0
OS2_WeightWidthSlopeOnly: 0
OS2_UseTypoMetrics: 0
CreationTime: 1349723122
ModificationTime: 1349894832
PfmFamily: 33
TTFWeight: 400
TTFWidth: 5
LineGap: 0
VLineGap: 0
OS2TypoAscent: 2015
OS2TypoAOffset: 0
OS2TypoDescent: -559
OS2TypoDOffset: 0
OS2TypoLinegap: 0
OS2WinAscent: 2015
OS2WinAOffset: 0
OS2WinDescent: 559
OS2WinDOffset: 0
HheadAscent: 2015
HheadAOffset: 0
HheadDescent: -559
HheadDOffset: 0
OS2Vendor: 'newt'
Lookup: 258 0 0 "'kern' Horizontal Kerning lookup 0"  {"'kern' Horizontal Kerning lookup 0 per glyph data 0"  "'kern' Horizontal Kerning lookup 0 kerning class 1"  } ['kern' ('DFLT' <'dflt' > 'cyrl' <'dflt' > 'latn' <'dflt' > ) ]
MarkAttachClasses: 1
DEI: 91125
KernClass2: 36 35 "'kern' Horizontal Kerning lookup 0 kerning class 1" 
 66 A Aacute Acircumflex Adieresis Agrave Aring Atilde uni0200 uni0202
 1 B
 10 C Ccedilla
 1 D
 1 F
 8 G Gbreve
 1 J
 1 K
 1 L
 60 O Oacute Ocircumflex Odieresis Ograve Otilde uni020C uni020E
 1 P
 17 R uni0210 uni0212
 30 S Scaron Scedilla Scommaaccent
 9 T uni021A
 53 U Uacute Ucircumflex Udieresis Ugrave uni0214 uni0216
 1 V
 1 W
 18 Y Yacute Ydieresis
 66 a aacute acircumflex adieresis agrave aring atilde uni0201 uni0203
 1 b
 53 e eacute ecircumflex edieresis egrave uni0205 uni0207
 1 f
 8 g gbreve
 1 h
 1 k
 1 m
 8 n ntilde
 60 o oacute ocircumflex odieresis ograve otilde uni020D uni020F
 1 p
 17 r uni0211 uni0213
 30 s scaron scedilla scommaaccent
 1 v
 1 w
 1 x
 18 y yacute ydieresis
 66 A Aacute Acircumflex Adieresis Agrave Aring Atilde uni0200 uni0202
 10 C Ccedilla
 8 G Gbreve

StartChar: A
Encoding: 33 65 0
Width: 2276
VWidth: 0
Flags: HW
LayerCount: 2
Fore
SplineSet
1226 540 m 1
 1179 691 1130 840 1083 1021 c 1
 1005 779 947 641 909 540 c 1
 1226 540 l 1
580 -22 m 0
 537 -22 176 -5 71 0 c 1
 122 107 340 590 711 1430 c 1
 912 1436 1156 1451 1415 1451 c 0
 1478 1451 1541 1449 1596 1431 c 1
 1601 1414 1957 586 2121 205 c 2
 2205 9 l 1
 1585 -29 1566 -30 1547 -30 c 0
 1506 -30 1466 -26 1427 -24 c 1
 1391 40 1371 93 1350 165 c 1
 1302 171 829 173 759 173 c 1
 731 101 714 68 684 -15 c 1
 655 -19 624 -22 580 -22 c 0
EndSplineSet
EndChar

StartChar: AE
Encoding: 130 198 1
Width: 2842
VWidth: 0
Flags: HW
LayerCount: 2
Fore
SplineSet
2760 349 m 1
 2745.99609375 -1.6953125 l 1
 1128 -1.6953125 l 1
 1151 174 l 1
 752 174 l 1
 646 -14 l 1
 -52 23 l 1
 37 127.479885057 787 1258.5 911 1435 c 1
 1314 1441 l 1
 1314 1444 l 1
 1957.00683594 1442.2734375 l 1
 2720.99861619 1444.47928137 l 1
 2710 1062 l 1
 1866 1047 l 1
 1860 1004 1860 950 1854 880 c 1
 2029 882 2199.00195312 883.903320312 2320 883 c 2
 2454 883 l 1
 2433 560 l 1
 2429 559 2376 556 2184 556 c 2
 1854 556 l 1
 1856 349 l 1
 2760 349 l 1
1169 545 m 1
 1181 724 1193 883 1205 1022 c 1
 920 541 l 1
 1169 545 l 1
EndSplineSet
EndChar

StartChar: B
Encoding: 34 66 8
Width: 2365
VWidth: 0
Flags: HW
LayerCount: 2
Fore
SplineSet
949 281 m 5
 1221 281 1568 330 1564 462 c 0
 1564 468 1563 475 1562 481 c 0
 1541 593 1366 627 974 627 c 1
 964 485 955 365 949 281 c 5
992 858 m 1
 1117 858 l 2
 1407 858 1484 916 1504 990 c 0
 1507 1000 1509 1010 1509 1020 c 0
 1506 1137 1283 1161 1103 1161 c 0
 1053 1161 1052 1159 1014 1154 c 1
 1007 1094 999 994 992 858 c 1
1085 -25 m 0
 842 -25 349 -12 238 -4 c 1
 211 3 204 18 204 35 c 1
 203 39 204 39 204 43 c 0
 219 339 243 706 265 1022 c 1
 264 1022 l 1
 297 1451 l 1
 447 1457 987 1462 1256 1462 c 0
 1817 1462 2167 1346 2173 1106 c 0
 2175 991 2031 860 1867 820 c 1
 2066 788 2198 691 2225 551 c 0
 2293 203 1989 -25 1085 -25 c 0
EndSplineSet
EndChar

StartChar: C
Encoding: 35 67 9
Width: 1742
VWidth: 0
Flags: HW
LayerCount: 2
Fore
SplineSet
133 702 m 0
 133 1294 750 1481 1343 1481 c 0
 1409 1481 1474 1478 1536 1471 c 1
 1536 997 l 1
 1456 1008 1366 1015 1268 1015 c 0
 1059 1015 903 933 903 710 c 0
 903 461 1054.93962233 374 1262 374 c 0
 1327 374 1442 391 1536 409 c 1
 1536 -30 l 1
 1428 -42 1321 -45 1236 -45 c 0
 698 -45 133 125 133 702 c 0
EndSplineSet
EndChar

StartChar: D
Encoding: 36 68 11
Width: 2319
VWidth: 0
Flags: HW
LayerCount: 2
Fore
SplineSet
955 1064 m 1
 922 360 l 1
 1278 363 1490 406 1490 744 c 0
 1490 976 1319 1072 1172 1072 c 0
 1097 1072 990 1066 955 1064 c 1
153 -22 m 1
 169 76 242 750 267 1409 c 1
 267 1409 888 1461 1287 1461 c 0
 1797 1461 2188 1264 2188 783 c 0
 2188 19 1620.05492445 12.6293816226 1010 -14 c 0
 864.054924446 -20.3706183774 720 -22 576 -22 c 2
 153 -22 l 1
EndSplineSet
EndChar

StartChar: E
Encoding: 37 69 12
Width: 2048
VWidth: 0
Flags: HW
LayerCount: 2
Fore
SplineSet
1318 -10 m 0
 1042 -10 376 -2 376 -2 c 1
 175 -2 l 2
 174 -2 243 1408 243 1437 c 1
 309 1439 314.905934402 1442 400 1442 c 2
 1043 1442 l 1
 1333 1440 1803 1442 1957 1446 c 1
 1916 1069 l 1
 1647 1045 1294 1049 952 1047 c 1
 946 1004 946 950 940 880 c 1
 1115 882 1285.03975686 886.101544696 1406 883 c 2
 1562 879 l 1
 1562 828 1542 646 1519 560 c 1
 1515 559 1462 556 1270 556 c 0
 1223 556 1168 557 1104 557 c 0
 1045 557 987 557 927 556 c 1
 916 361 l 1
 1966 349 l 1
 1966 87 1955 25 1955 -9 c 1
 1716 -9 1562.00204917 -10 1318 -10 c 0
EndSplineSet
EndChar

StartChar: E_E
Encoding: 413 -1 13
Width: 3977
VWidth: 0
Flags: HW
LayerCount: 2
Fore
SplineSet
3883 -13 m 1
 3644 -12 3491 -9 3247 -9 c 0
 2971 -9 2305 -2 2144 -7 c 1
 2145 -6 2172 1399 2172 1428 c 1
 2238 1430 2243.9059344 1433 2329 1433 c 2
 3690 1433 l 1
 3886 1431 l 1
 3868 1069 l 1
 2881 1047 l 1
 2875 1004 2875 950 2869 880 c 1
 3481 887 l 1
 3437 560 l 1
 3433 559 2916 557 2856 556 c 1
 2845 349 l 1
 3895 349 l 1
 3883 -13 l 1
1934 -24 m 1
 1695 -23 1562 -22 1318 -22 c 0
 1042 -22 376 3 376 3 c 1
 175 -2 l 2
 176 -1 243 1399 243 1428 c 1
 309 1430 314.905934402 1433 400 1433 c 2
 1761 1433 l 1
 1957 1431 l 1
 1916 1069 l 1
 952 1047 l 1
 946 1004 946 950 940 880 c 1
 1115 882 1535 883 1562 887 c 1
 1562 879 l 2
 1562 828 1542 646 1519 560 c 1
 1515 559 987 557 927 556 c 1
 916 349 l 1
 1966 349 l 1
 1934 -24 l 1
EndSplineSet
EndChar

StartChar: Eth
Encoding: 140 208 18
Width: 1548
VWidth: 0
Flags: HW
LayerCount: 2
Fore
SplineSet
166 563 m 2
 86 563 43.9656063981 568.201042667 47 591 c 2
 84 869 l 1
 191 871 l 1
 622 871 1074 873 1135 873 c 0
 1146 873 1164.28919806 866.963840453 1163 844 c 2
 1147 559 l 1
 166 563 l 2
EndSplineSet
Refer: 11 68 N 1 0 0 1 0 0 2
EndChar

StartChar: Euro
Encoding: 370 8364 19
Width: 1628
VWidth: 0
Flags: HW
LayerCount: 2
Fore
SplineSet
1576 -30 m 1
 1468 -42 1361 -45 1276 -45 c 0
 800 -45 302 88 194 520 c 1
 50 520 l 1
 60 655 l 1
 174 655 l 1
 173 670 173 686 173 702 c 0
 173 714 173 725 174 736 c 1
 47 736 l 1
 58 875 l 1
 193 875 l 1
 313 1355 886 1463 1383 1463 c 0
 1449 1463 1514 1460 1576 1453 c 1
 1576 1047 l 1
 1504 1058 1438 1063 1378 1063 c 0
 1142 1063 1002 984 963 876 c 1
 1272 876 l 1
 1267 741 l 1
 1159 740 1050 739 944 739 c 1
 943 730 943 720 943 710 c 0
 943 691 944 673 946 656 c 1
 1260 656 l 1
 1263 521 l 1
 1178 520 1064 520 967 519 c 1
 1028 413 1158 364 1333 364 c 0
 1407 364 1488 372 1576 389 c 1
 1576 -30 l 1
EndSplineSet
EndChar

StartChar: F
Encoding: 38 70 20
Width: 1912
VWidth: 0
Flags: HW
LayerCount: 2
Fore
SplineSet
905.57369992 -0.0217663926311 m 1
 794.57369992 -0.0217663926311 292 -5 245 -5 c 2
 177 -5 l 1
 178 96 188 223 190 324 c 2
 210 1439 l 1
 1178 1439 l 1
 1816 1449 l 2
 1858 1449 1911 1447 1951 1437 c 1
 1951 1393 1937.91149922 1333.73446671 1929 1254 c 2
 1910 1084 l 1
 1772 1067 1609.98840925 1068.93186091 1449 1067 c 2
 949 1061 l 1
 941 971 941 915 939 834 c 1
 1138 836 1338 839 1483 839 c 0
 1532 839 1585 837 1633 827 c 1
 1633 757 1610 640 1588 529 c 1
 1491 519 1397.01669243 514.600642933 1288 514 c 2
 925 512 l 1
 905.57369992 -0.0217663926311 l 1
EndSplineSet
EndChar

StartChar: G
Encoding: 39 71 21
Width: 2198
VWidth: 0
Flags: HW
LayerCount: 2
Fore
SplineSet
1832 -10 m 1
 1802 194 l 1
 1680 44 1352 -45 1120 -45 c 0
 585 -45 126 180 126 690 c 0
 126 1285 710 1481 1325 1481 c 0
 1457 1481 1745 1454 1884 1419 c 1
 1884 978 l 1
 1798 999 1584 1040 1405 1040 c 0
 1174 1040 909 972 909 705 c 0
 909 476 1041 361 1240 361 c 0
 1382 361 1466 430 1503 501 c 1
 1265 501 l 1
 1278 790 l 1
 1313 787 1981 786 2020 777 c 1
 2020 0 l 1
 1984 0 1832 -10 1832 -10 c 1
EndSplineSet
EndChar

StartChar: H
Encoding: 40 72 23
Width: 2421
VWidth: 0
Flags: HW
LayerCount: 2
Fore
SplineSet
950 943 m 1
 1488 943 l 1
 1491 964 1519 1440 1519 1440 c 1
 1561 1440 1622 1438 1661 1439 c 2
 2237 1454 l 1
 2238 1434 2201 792 2201 717 c 0
 2201 677 2197 698 2180 2 c 1
 2124 2 1537 -11 1462 -11 c 1
 1462 60 1470 317 1476 432 c 1
 942 432 l 1
 916 2 l 1
 226.00462606 -17.166538165 l 1
 226.00462606 102.833461835 229.735652572 261.00962166 234.9882516 402.000437685 c 2
 256 966 l 2
 258 1027 279 1367 282 1444 c 1
 359 1448 853 1453 969 1453 c 2
 988 1453 l 1
 950 943 l 1
EndSplineSet
EndChar

StartChar: I
Encoding: 41 73 24
Width: 1183
VWidth: 0
Flags: HW
LayerCount: 2
Fore
SplineSet
990 1449 m 1
 998 1393 990.556643281 1332.98293359 989 1262 c 2
 961.544559595 10.0319175527 l 1
 771 5 l 1
 632 5 378 0 248 0 c 1
 244 56 245.326829541 86.0208950447 247 153 c 2
 279 1434 l 1
 338 1437 702.929225704 1447 816 1447 c 0
 875 1447 933 1449 990 1449 c 1
EndSplineSet
EndChar

StartChar: J
Encoding: 42 74 30
Width: 1363
VWidth: 0
Flags: HW
LayerCount: 2
Fore
SplineSet
1209 1452 m 1
 1205 854 l 1
 1171 155 946 -75 298 -129 c 1
 285 -109 203 21 96 236 c 1
 317 274 407 413 407 689 c 0
 407 734 409 1238 408 1441 c 1
 456 1443 898 1447 1043 1447 c 0
 1097 1447 1154 1450 1209 1452 c 1
EndSplineSet
EndChar

StartChar: K
Encoding: 43 75 31
Width: 2332
VWidth: 0
Flags: HW
LayerCount: 2
Fore
SplineSet
2154 1248 m 1
 2154 1251 l 1
 2155 1249 2158 1248 2158 1248 c 1
 2154 1248 l 1
2154 1249 m 1
 2154 1242 l 1
 1986.21391181 1062.11942152 1809.48986617 891.176800494 1637 716 c 1
 2293 202 l 1
 1738 -27 l 1
 1632 -81 l 1
 1459 61 l 1
 1294 200 1020 446 939 532 c 1
 937 384 923 94 923 76 c 2
 923 6 l 1
 858 4 322 -10 186 -10 c 1
 183 40 179.208346489 93.0267561516 181 153 c 2
 200 789 l 1
 210 1003 221 1177 221 1312 c 0
 221 1358 223 1397 227 1428 c 1
 288 1436 697 1450 858 1450 c 0
 891 1450 923 1449 955 1449 c 1
 964 1393 967 1333 967 1262 c 0
 967 1124.63552133 954 1008 950 891 c 1
 1365 1415 l 1
 1430 1491 l 1
 1667.05840472 1406.05840472 1908.57388499 1325.57388499 2154 1249 c 1
EndSplineSet
EndChar

StartChar: L
Encoding: 44 76 32
Width: 1936
VWidth: 0
Flags: HW
LayerCount: 2
Fore
SplineSet
168 0 m 1
 172 243 l 1
 180 570 l 1
 186 662 207 1231 221 1435 c 1
 323 1447 565 1457 965 1450 c 1
 942 950 l 1
 937.512820513 758 929.179487179 624 917 360 c 1
 1688.03596625 378.4714345 l 1
 1759.03596625 378.4714345 1820 376 1877 367 c 1
 1877 323 1873.34306362 279.45847205 1861 200 c 2
 1829 -6 l 1
 1796 -6 1442 -5 1075 -5 c 0
 799 -5 517 -6 359 -7 c 0
 274 -7 239 -5 168 0 c 1
EndSplineSet
EndChar

StartChar: Lslash
Encoding: 244 321 33
Width: 1936
VWidth: 0
Flags: HW
LayerCount: 2
Fore
SplineSet
158 0 m 1
 163.730159437 78.7758092857 173.500025347 482.999985605 177.626292289 521.487348646 c 1
 41 486 l 1
 34 827 l 1
 69.7605708643 835.239762872 125.128840032 848.367871581 193.38719699 864.719468626 c 1
 202.00930902 1066.43710443 212.726878444 1314.44880018 221 1435 c 1
 323 1447 565 1457 965 1450 c 1
 946.470319026 1047.18084839 l 1
 1135.02070498 1093.04356714 1292.61442268 1131.37092539 1350 1145 c 1
 1350 1111 l 2
 1350 1083 1325 818 1314 768 c 1
 1233.50616055 748.40149996 1087.85229545 716.922318551 927.062043231 682.864194901 c 1
 920.550929492 592.133295213 912.530248415 492.420293772 903 360 c 1
 1688.03596625 378.4714345 l 1
 1759.03596625 378.4714345 1820 376 1877 367 c 1
 1877 323 1873.34306362 279.45847205 1861 200 c 2
 1829 -6 l 1
 1796 -6 1442 -5 1075 -5 c 0
 799 -5 517 -6 359 -7 c 0
 269.54973822 -7 232.717277487 -5 158 0 c 1
EndSplineSet
EndChar

StartChar: M
Encoding: 45 77 34
Width: 2687
VWidth: 0
Flags: HW
LayerCount: 2
Fore
SplineSet
147 173 m 1
 160 307 170 473 220 1437 c 1
 225 1437 l 2
 286 1437 831 1442 973 1447 c 1
 1009 1370 l 1
 1331 779 l 1
 1725 1454 l 1
 2458 1456 l 1
 2484 1064 2516.77279526 638.15608945 2521 580 c 2
 2554 126 l 1
 2561 3 l 1
 2398 0 2100 -9 1939 -9 c 1
 1939 -9 1901.33584576 371.659596572 1893 518 c 2
 1884 676 l 5
 1470 21 l 1
 1445 21 1269 18 1177 23 c 1
 1177 23 977 419 880 635 c 1
 807 -4 l 1
 740 -6 670 -7 591 -7 c 0
 448 -7 238 -2 134 4 c 1
 147 173 l 1
EndSplineSet
EndChar

StartChar: N
Encoding: 46 78 35
Width: 2368
VWidth: 0
Flags: HW
LayerCount: 2
Fore
SplineSet
187 1431 m 1
 1076 1450 l 1
 1107 1414 1471 1010 1620 839 c 1
 1620 1279 l 1
 1621 1342 1622 1394 1626 1440 c 1
 2222.00340823 1446.69666751 l 1
 2224 958 l 2
 2224 808 2222 616 2220 455 c 2
 2216.986728 228.000176177 l 1
 2219 62 l 1
 2131 47 2050 50 1532 -45 c 1
 787 623 l 1
 775 154 773 51 773 23 c 2
 773 12 l 1
 617 9 362 -9 149 -9 c 1
 152 35 154 82 154 137 c 0
 154 427.208545705 187 761.807995025 187 1077 c 2
 187 1431 l 1
EndSplineSet
EndChar

StartChar: O
Encoding: 47 79 37
Width: 2565
VWidth: 0
Flags: HW
LayerCount: 2
Fore
SplineSet
1283 361 m 0
 1514.10603627 361 1646 484 1646 742 c 0
 1646 989 1503 1066 1294 1066 c 0
 1069 1066 927 944.008368054 927 705 c 0
 927 454 1066 361 1283 361 c 0
1235 -45 m 0
 747 -45 126 106 126 689 c 0
 126 1344 816 1481 1278 1481 c 0
 1808 1481 2439 1340 2439 753 c 0
 2439 113 1757 -45 1235 -45 c 0
EndSplineSet
EndChar

StartChar: OE
Encoding: 258 338 38
Width: 3373
VWidth: 0
Flags: HW
LayerCount: 2
Fore
SplineSet
942 705 m 0
 942 460.347945205 1074 336 1302 336 c 0
 1420.16571429 336 1574.65292967 337.812499313 1641 342 c 1
 1662 1046 l 1
 1287.57939136 1046 942 1082.36873659 942 705 c 0
2798 -2 m 0
 1052.79282807 -0.573011306684 1785.40535538 1 1102 1 c 0
 632 1 141 194.015384615 141 698 c 0
 141 1246.04161074 762 1439 1265 1439 c 2
 1284 1439 l 2
 1663.37827981 1439 2485.5328975 1446 3208 1446 c 0
 3219 1446 3231 1446 3243 1447 c 1
 3243 1359.7544757 3232 1125.34782609 3221 1036 c 1
 2981.35910224 1034 2677.39900249 1034 2389 1031 c 1
 2377 871 l 1
 2552 873 2725 875 2855 875 c 0
 2919 875 2986 875.333333333 3044 877 c 1
 3044 795.67114094 3022 672.006711409 2999 545 c 1
 2868 550 2743 550 2610 550 c 2
 2548 550 l 2
 2489 550 2429 549 2365 548 c 1
 2354 350 l 1
 3261 350 l 1
 3261 228.089203683 3257.68852353 88.8031571519 3252 -3 c 1
 3082.93229167 -2 2931.59895833 -2 2798 -2 c 0
EndSplineSet
EndChar

StartChar: Oslash
Encoding: 148 216 43
Width: 2565
VWidth: 0
Flags: HW
LayerCount: 2
Fore
SplineSet
1828.15283602 1627.45967136 m 1
 1538.33554824 1012.07279001 1252.35072655 392.853442575 960 -220 c 0
 949 -243 951 -264 931 -264 c 0
 923 -264 914 -262 905 -257 c 2
 756 -174 l 1
 756 -150 801.494536436 -72.2449003521 831 -10 c 2
 1643 1703 l 1
 1650 1703 l 1
 1812 1641 l 2
 1820 1638 1828.15283602 1634.45967136 1828.15283602 1627.45967136 c 1
EndSplineSet
Refer: 37 79 N 1 0 0 1 0 0 2
EndChar

StartChar: P
Encoding: 48 80 45
Width: 2260
VWidth: 0
Flags: HW
LayerCount: 2
Fore
SplineSet
919 9 m 1
 820 5 462 -9 302 -9 c 0
 266 -9 240 -8 229 -5 c 1
 232 32 233 68 234 102 c 2
 237 270 l 1
 245 484 259 1167 265 1438 c 1
 595 1457 987 1468 1331 1468 c 0
 1754 1468 2177 1361 2177 939 c 0
 2177 532 1732 441 1306 441 c 0
 1178 441 987 447 940 447 c 1
 919 9 l 1
1463 946 m 0
 1463 1067 1359 1081 1265 1081 c 0
 1221 1081 994 1068 966 1054 c 1
 953 908 952 813 952 799 c 1
 1032 788 1102 783 1162 783 c 0
 1372 783 1463 845 1463 946 c 0
EndSplineSet
EndChar

StartChar: Q
Encoding: 49 81 46
Width: 2516
VWidth: 0
Flags: HW
LayerCount: 2
Fore
SplineSet
1284 361 m 1
 1286 362 1287 363 1288 363 c 0
 1289 363 1290 362 1291 362 c 0
 1539 362 1621 549 1621 727 c 0
 1621 967 1512 1067 1287 1067 c 0
 1063 1067 904 952 904 705 c 0
 904 456 1068 361 1284 361 c 1
1621 -363 m 5
 1610 -363 1411 -37 1398 -19 c 1
 1300 -34 1195 -44 1085 -44 c 0
 587 -44 127 162 127 689 c 0
 127 1348 804 1481 1274 1481 c 0
 1735 1481 2397 1325 2434 833 c 0
 2436 808 2437 783 2437 756 c 0
 2437 495 2328 165 1722 43 c 1
 1907 -217 l 5
 1621 -363 l 5
EndSplineSet
EndChar

StartChar: R
Encoding: 50 82 47
Width: 2398
VWidth: 0
Flags: HW
LayerCount: 2
Fore
SplineSet
1005 1064 m 1
 988 782 l 1
 1255 812 1477 803 1477 954 c 0
 1477 1057 1322 1070 1235 1070 c 0
 1137 1070 1081 1067 1005 1064 c 1
1510.95815889 -85.6878371363 m 1
 1463.95815889 0.312162863706 1270 400 1218 523 c 1
 973 506 l 1
 953 9 l 2
 953 5 953 1 946 0 c 0
 821 -2 596.938690601 -6.41235245808 492 -10 c 2
 258 -18 l 1
 258 158 269 413 278 646 c 2
 284 811 l 1
 314 1435 l 1
 328 1435 420.649732448 1460 1313 1460 c 0
 1772 1460 2188 1425 2188 1027 c 0
 2188 822 2013 691 1831 629 c 1
 1943 501 2195 140 2292 19 c 1
 1510.95815889 -85.6878371363 l 1
EndSplineSet
EndChar

StartChar: S
Encoding: 51 83 48
Width: 2157
VWidth: 0
Flags: HW
LayerCount: 2
Fore
SplineSet
1019 -45 m 0
 764.992126106 -45 442 -2 165 90 c 1
 197 223 228 334 262 465 c 0
 262 468 264 472 270 472 c 1
 561 399 760 350 1091 350 c 0
 1158 350 1250 358 1250 405 c 0
 1250 451 1201 453 1180 456 c 0
 656 540 164 580 164 991 c 0
 164 1436 724 1481 1209 1481 c 0
 1441 1481 1780 1408 1907 1346 c 1
 1862 1177 1826 1059 1808 1004 c 1
 1669 1042 1308 1102 1082 1102 c 0
 969 1102 890 1087 890 1046 c 0
 890 1000 960 987 1085 966 c 0
 1506 894 2019 851 2019 460 c 0
 2019 75 1603 -45 1019 -45 c 0
EndSplineSet
EndChar

StartChar: T
Encoding: 52 84 52
Width: 1972
VWidth: 0
Flags: HW
LayerCount: 2
Fore
SplineSet
1293 4 m 5
 1238 3 696 -15 614 -15 c 2
 609.167357446 -15 l 1
 630 669 l 2
 635 826 638 919 645 1051 c 1
 99 1051 l 1
 101 1093 122 1332 138 1437 c 1
 526 1442 1287 1448 1755 1449 c 0
 1812 1449 1871 1447 1921 1446 c 1
 1911 1360 1881 1151 1850 1051 c 1
 1329 1051 l 1
 1323 835 l 1
 1312 579 1292 8 1293 4 c 5
EndSplineSet
EndChar

StartChar: Thorn
Encoding: 154 222 53
Width: 2120
VWidth: 0
Flags: HW
LayerCount: 2
Fore
SplineSet
866 -311 m 1
 657 -332 325 -353 239 -353 c 2
 229 -353 l 1
 228 -316 224.575365724 -273.975831346 226 -232 c 2
 282 1418 l 1
 817 1441 l 1
 839 1447 877 1454 907 1454 c 0
 932 1454 949.001236848 1446.92573214 947 1420 c 2
 925 1124 l 1
 1042 1141 1149 1148 1245 1148 c 0
 1772 1148 1990 915 1990 600 c 0
 1990 241 1616 -10 880 -10 c 1
 866 -311 l 1
1359 581 m 0
 1359 728 1290 831 920 831 c 1
 895 272 l 1
 1290 282 1359 436 1359 581 c 0
EndSplineSet
EndChar

StartChar: U
Encoding: 53 85 54
Width: 2435
VWidth: 0
Flags: HW
LayerCount: 2
Fore
SplineSet
1191 -45 m 4
 725 -45 142.615471922 -4.01002397268 142.615471922 591.989976027 c 1
 149 984 l 1
 156 1193 153 1327 169 1435 c 1
 653 1437 l 1
 962 1443 l 1
 959 1389 961.418409574 1335.94262749 959 1285 c 2
 927.0030559 610.999854927 l 1
 927.0030559 506.999854927 985 358 1209 358 c 0
 1388 358 1507.83664383 483.144628417 1516 710 c 2
 1541.69357861 1424.01102653 l 1
 1742.69357861 1430.01102653 1959 1434 2316 1439 c 1
 2316 1185.90111269 2284.68460089 610.579708603 2267 545 c 0
 2136.63976921 61.5858701657 1618 -45 1191 -45 c 4
EndSplineSet
EndChar

StartChar: V
Encoding: 54 86 59
Width: 2032
VWidth: 0
Flags: HW
LayerCount: 2
Fore
SplineSet
1771 1477 m 1
 2034 1479 l 1
 2034 1473 1478 308 1381 112 c 5
 1329 -7 l 5
 1263 -16 843 -27 713 -27 c 5
 617 186 125 1319 113 1348 c 2
 69 1459 l 1
 558 1480 l 1
 815 1480 l 1
 1091 711 l 1
 1332 1470 l 1
 1771 1477 l 1
EndSplineSet
EndChar

StartChar: W
Encoding: 55 87 60
Width: 3026
VWidth: 0
Flags: HW
LayerCount: 2
Fore
SplineSet
1819 -17 m 1
 1563 673 l 1
 1407 162 l 1
 1350 -7 l 1
 1275 -11 826 -17 678 -17 c 1
 179 1199 l 1
 96 1449 l 1
 583 1464 l 1
 843 1470 l 1
 1076 711 l 1
 1298.72342536 1449.08345892 l 1
 1847 1458 l 1
 2110 761 l 1
 2334 1451 l 1
 3004 1458 l 1
 2432.20662983 2.52596685083 l 1
 2359.20662983 -4.47403314917 1963 -17 1819 -17 c 1
EndSplineSet
EndChar

StartChar: X
Encoding: 56 88 61
Width: 2260
VWidth: 0
Flags: HW
LayerCount: 2
Fore
SplineSet
1159 1130 m 1
 1489 1478 l 1
 2216 1350 l 1
 1804 939 1677 806 1595 732 c 1
 1685 652 2040 321 2197 172 c 1
 1783 -23 l 1
 1607 -88 l 1
 1162 299 l 1
 776 -92 l 1
 164 123 l 1
 316 294 l 2
 371 357 455 455 725 725 c 1
 124 1329 l 1
 165 1339 338.857818199 1413.08783255 770 1489 c 0
 781.857818199 1491.08783255 790 1492 790 1492 c 1
 1159 1130 l 1
EndSplineSet
EndChar

StartChar: Y
Encoding: 57 89 62
Width: 2033
VWidth: 0
Flags: HW
LayerCount: 2
Fore
SplineSet
667 -10 m 1
 658 46 656 481 656 513 c 1
 55.9192280657 1439.5953096 l 1
 55.9192280657 1439.5953096 759 1458 792 1458 c 1
 1065 1052 l 1
 1336 1444 l 1
 1364 1448 2025 1447 2045 1443 c 0
 2051 1442 2023 1400 2019 1393 c 2
 1398 561 l 1
 1372 8 l 1
 1233 2 l 1
 667 -10 l 1
EndSplineSet
EndChar

StartChar: Z
Encoding: 58 90 65
Width: 1984
VWidth: 0
Flags: HW
LayerCount: 2
Fore
SplineSet
1381 0 m 2
 361 0 l 2
 292 0 219 1 161 5 c 1
 161 7 162 57 162 59 c 1
 879 996 l 1
 759 997 229 1007 166 1011 c 1
 221 1443 l 1
 358 1449 519 1450 675 1450 c 0
 1071 1450 1460 1440 1854 1440 c 1
 1814 1364 1415 719 1191 420 c 1
 1494 420 l 2
 1575 420 1652 426 1732 426 c 0
 1786 426 1839 426 1885 425 c 1
 1885 380 1830 56 1818 3 c 1
 1794 3 1537.02884349 0 1381 0 c 2
EndSplineSet
EndChar

StartChar: a
Encoding: 65 97 67
Width: 1808
VWidth: 0
Flags: HW
LayerCount: 2
Fore
SplineSet
751 -37 m 0
 451 -37 119 116 119 478 c 0
 119 867 410 1070 735 1070 c 0
 958 1070 1100 1026 1217 868 c 1
 1219 1081 l 1
 1671 1043 l 1
 1668 24 l 1
 1292 -4 l 1
 1231 193 l 1
 1154 68 999 -37 751 -37 c 0
921 266 m 1
 1068 269 1148 350 1148 502 c 0
 1148 629 1067 726 928 726 c 0
 777 726 705 612 705 498 c 0
 705 382 779 266 921 266 c 1
EndSplineSet
EndChar

StartChar: acute
Encoding: 114 180 70
Width: 694
VWidth: 0
Flags: HW
LayerCount: 2
Fore
SplineSet
234 1206 m 0
 216 1209 99 1238 63 1247 c 1
 144 1382 304 1619 326 1650 c 1
 372 1638 623 1566 670 1552 c 1
 569 1471 323 1270 237 1205 c 1
 237 1205 235 1206 234 1206 c 0
EndSplineSet
EndChar

StartChar: ae
Encoding: 162 230 72
Width: 2612
VWidth: 0
Flags: HW
LayerCount: 2
Fore
SplineSet
1678 625 m 1
 2039 625 l 1
 2032 756 1967 796 1869 796 c 0
 1750 796 1690 716 1678 625 c 1
735 308 m 0
 735 255 783 209 875 209 c 0
 962 209 1078 246 1190 323 c 1
 1179 347 1163 387 1155 440 c 1
 1104 441 1090 442 1010 442 c 0
 828 442 735 384 735 308 c 0
1315 145 m 1
 1140 -7 921 -37 709 -37 c 0
 379 -37 181 63 181 267 c 0
 181 495 416 622 817 622 c 2
 1116 622 l 1
 1081 724 973 776 813 776 c 0
 682 776 516 741 325 671 c 1
 281 671 l 1
 210 939 l 1
 337 1001 598 1070 854 1070 c 0
 1037 1070 1279 1023 1377 904 c 1
 1489 1023 1704 1070 1871 1070 c 0
 2143 1070 2481.93506665 941.002639567 2481.93506665 587.002639567 c 1
 2476 441 l 1
 1665 441 l 1
 1702 320 1835 248 2019 248 c 0
 2132 248 2265 276 2407 337 c 1
 2461 337 l 1
 2452 83 l 1
 2375 22 2144 -37 1888 -37 c 4
 1669 -37 1455 23 1315 145 c 1
EndSplineSet
EndChar

StartChar: afii10018
Encoding: 415 1041 74
Width: 2365
VWidth: 0
Flags: HW
LayerCount: 2
Fore
SplineSet
1060 -52 m 1
 171 -50 l 1
 171 -46 184 107 184 111 c 0
 205 398 235 703 306 1420 c 1
 694 1432 1287 1446 1755 1449 c 0
 1812 1449 1871 1447 1921 1446 c 1
 1911 1360 1881 1151 1850 1051 c 1
 1012 1051 l 1
 998 905 l 1
 1075.15216673 908.21132848 1146.94821094 909.740409092 1213.75086994 909.740409092 c 0
 1979.03573388 909.740409092 2089 709.067322569 2089 538 c 0
 2089 202 1964 -52 1060 -52 c 1
931 258 m 1
 1203 258 1426 310 1426 449 c 0
 1426 556.325588726 1345.69263286 590.318418891 1146.34640808 590.318418891 c 0
 1094.00467971 590.318418891 1033.45624604 587.974905647 964 584 c 1
 951 438 939 344 931 258 c 1
EndSplineSet
EndChar

StartChar: afii10019
Encoding: 416 1042 75
Width: 2365
VWidth: 0
Flags: HW
LayerCount: 2
Fore
SplineSet
931 298 m 1
 1203 298 1551 310 1551 449 c 0
 1551 585.772193044 1359.30449563 614 964 614 c 1
 951 468 939 384 931 298 c 1
988 845 m 1
 1113 845 l 2
 1403 845 1481 903 1503 977 c 0
 1506 987 1508 997 1508 1007 c 0
 1508 1124 1286 1148 1106 1148 c 2
 1026 1148 l 1
 988 845 l 1
1062 -4 m 1
 178 1 l 1
 219.95451333 489.04548667 260.234609492 978.765390508 305 1464 c 1
 1266 1468 l 1
 1827 1468 2174 1346 2174 1093 c 0
 2174 978 2027 847 1862 807 c 1
 2060 775 2214 680 2214 538 c 0
 2214 202 1966 -4 1062 -4 c 1
EndSplineSet
EndChar

StartChar: afii10020
Encoding: 417 1043 76
Width: 2421
VWidth: 0
Flags: HW
LayerCount: 2
Fore
SplineSet
1577 1451 m 1
 1514 942 l 1
 980 942 l 1
 926 2 l 1
 356.023839319 -17.6900855508 l 1
 227.087294728 -17.0319792567 l 1
 256 966 l 1
 272 1444 l 1
 969 1453 l 1
 1577 1451 l 1
EndSplineSet
EndChar

StartChar: afii10021
Encoding: 418 1044 77
Width: 2342
VWidth: 0
Flags: HW
LayerCount: 2
Fore
SplineSet
1010 414 m 1
 1449 414 l 1
 1465 668 1488 989 1494 1062 c 1
 1130 1062 l 1
 1010 414 l 1
1209 1454 m 1
 2137 1454 l 1
 2138 1434 2101 792 2101 717 c 0
 2101 687 2099 691 2091 415 c 1
 2237 415 l 1
 2210 -457 l 1
 1502 -450 l 1
 1514 -7 l 1
 690 -7 l 1
 626 -457 l 1
 -64 -476 l 1
 0.571013966987 370.956466534 l 1
 12 385 l 1
 53 392 213 399 369 405 c 1
 556 1350 l 1
 567 1433 l 1
 579 1447 l 1
 1209 1454 l 1
EndSplineSet
EndChar

StartChar: afii10024
Encoding: 421 1046 80
Width: 2260
VWidth: 0
Flags: HW
LayerCount: 2
Fore
SplineSet
26 1332 m 1
 53.9084479356 1339.3443284 258.111338216 1426.3518897 652 1492 c 1
 1020 1100 l 1
 1023 1171 1025 1291 1025 1393 c 1
 1109 1403 1349 1431 1530 1454 c 1
 1524 1313 l 1
 1517 1072 l 1
 1881 1473 l 1
 2455 1348 l 1
 2068 945 1949 815 1871 742 c 1
 1957 664 2290 340 2437 194 c 1
 2103 2 l 1
 1938 -61 l 1
 1489 404 l 1
 1483 225 l 1
 1485 -4 l 1
 983 -19 l 1
 993 419 l 1
 562 -60 l 1
 63 151 l 1
 206 309 l 1
 261 368 359 476 614 740 c 1
 26 1332 l 1
EndSplineSet
EndChar

StartChar: afii10025
Encoding: 422 1047 81
Width: 1637
VWidth: 0
Flags: HW
LayerCount: 2
Fore
SplineSet
1553 447 m 0
 1553 191 1391 -45 815 -45 c 0
 595 -45 372 -27 251 7 c 1
 253 385 l 1
 341 378 423 372 495 372 c 0
 640 372 738 397 738 489 c 0
 738 552 703 614 600 614 c 2
 380 614 l 1
 391 902 l 1
 553 902 l 2
 690 902 721 968 721 1035 c 0
 721 1138 607 1159 466 1159 c 0
 395 1159 316 1154 241 1151 c 1
 241 1451 l 1
 404 1469 571 1481 729 1481 c 0
 1235 1481 1524 1379 1524 1094 c 0
 1524 888 1396 798 1264 782 c 1
 1429 757 1553 648 1553 447 c 0
EndSplineSet
EndChar

StartChar: afii10026
Encoding: 423 1048 82
Width: 2368
VWidth: 0
Flags: HW
LayerCount: 2
Fore
SplineSet
2236 1391 m 1
 2236 1338 2209 523 2203 137 c 1
 2196 -18 l 1
 1990 -18 1728 -10 1578 0 c 1
 1578 2 1579 4 1579 11 c 0
 1580 38 1583 170 1595 623 c 1
 875 -15 l 1
 134 2 l 1
 145 228 l 1
 183 1447 l 1
 233 1447 305.004176322 1446.18712348 354 1445 c 2
 808 1434 l 1
 797 1279 l 1
 774 839 l 1
 935 1016 1327 1393 1361 1430 c 1
 2236 1391 l 1
EndSplineSet
EndChar

StartChar: afii10029
Encoding: 426 1051 85
Width: 2421
VWidth: 0
Flags: HW
LayerCount: 2
Fore
SplineSet
858 266 m 0
 721 2 485 -121 126 -154 c 1
 114 -134 59 -2 -38 217 c 1
 151 253 233.16470792 381.06521056 242.961020368 632.001521727 c 2
 256 966 l 1
 262 1074 269 1184 286 1350 c 1
 290 1410 l 1
 302 1424 l 1
 377 1433 856 1446 969 1446 c 2
 2233 1446 l 1
 2234 1426 2201 791 2201 717 c 0
 2201 677 2197 698 2180 2 c 1
 1739 0 l 1
 1653 -7 1531 -17 1456 -17 c 1
 1462 101 l 2
 1468 216 1505 827 1514 942 c 1
 936 942 l 1
 925 671 915 374 858 266 c 0
EndSplineSet
EndChar

StartChar: afii10033
Encoding: 430 1055 89
Width: 2421
VWidth: 0
Flags: HW
LayerCount: 2
Fore
SplineSet
2237 1446 m 1
 2238 1426 2201 791 2201 717 c 0
 2201 677 2197 698 2180 2 c 1
 1825 -8 l 1
 1712 -13 1551 -21 1452 -21 c 1
 1462 101 l 2
 1471 216 1505 827 1514 942 c 1
 980 942 l 1
 916 2 l 1
 226.00462606 -17.166538165 l 1
 226.00462606 102.833461835 229.735652572 261.00962166 234.9882516 402.000437685 c 2
 256 966 l 1
 262 1074 269 1184 286 1350 c 1
 290 1410 l 1
 302 1424 l 1
 377 1433 856 1445 969 1445 c 0
 1553 1445 1801 1446 2237 1446 c 1
EndSplineSet
EndChar

StartChar: afii10037
Encoding: 434 1059 93
Width: 1987
VWidth: 0
Flags: HW
LayerCount: 2
Fore
SplineSet
332 0 m 1
 677 542 l 1
 37 1415 l 1
 41 1444 l 1
 579 1447 l 1
 759.259359405 1450.86086645 l 1
 1049 1027 l 1
 1299.12324612 1445.32839853 l 1
 1986 1448 l 5
 1997 1428 l 1
 1693.43448043 954.898852906 1389.51369422 482.152972447 1089 6 c 1
 927 3 l 1
 332 0 l 1
EndSplineSet
EndChar

StartChar: afii10038
Encoding: 435 1060 94
Width: 2565
VWidth: 0
Flags: HW
LayerCount: 2
Fore
SplineSet
1160.11981653 1049.00929771 m 1
 1014.11981653 1008.00929771 927 893.010637997 927 705 c 0
 927 509 1012 409 1153 375 c 1
 1160.11981653 1049.00929771 l 1
1430 385 m 1
 1569 431 1646 545 1646 742 c 0
 1646 926 1567 1015 1440 1049 c 1
 1430 385 l 1
1146 -211 m 1
 1148 -41 l 1
 676 -23 126 141 126 689 c 0
 126 1275 808 1447 1167 1476 c 1
 1167 1622 l 1
 1448 1624 l 1
 1445 1476 l 1
 1932 1447 2439 1279 2439 753 c 0
 2439 189 1908 -1 1425 -38 c 1
 1425 -213 l 1
 1146 -211 l 1
EndSplineSet
EndChar

StartChar: afii10040
Encoding: 437 1062 96
Width: 2421
VWidth: 0
Flags: HW
LayerCount: 2
Fore
SplineSet
1767 -395 m 1
 1767 -359.047010491 1776.66739995 -151.654200899 1786 7 c 1
 1662 2 1544 -1 1495 -1 c 0
 912 -1 723 -2 287 -2 c 1
 286 18 323 660 323 735 c 0
 323 775 327 754 344 1442 c 1
 865 1449 996 1446 1071 1446 c 1
 1062 1351 l 2
 1051 1236 1019 625 1010 510 c 1
 1484 510 l 1
 1548 1450 l 1
 2244 1439 l 1
 2244 1138 2220 799 2208 493 c 0
 2208 490 2207 486 2207 483 c 1
 2266 483 2326 483 2389 480 c 1
 2350.62038306 -326.981945627 l 2
 2350.62038306 -343.981945627 2351 -361 2353 -379 c 1
 2258 -391 2008 -391 1866 -403 c 1
 1866 -403 l 1
 1833 -403 1799 -403 1767 -395 c 1
EndSplineSet
EndChar

StartChar: afii10041
Encoding: 438 1063 97
Width: 2260
VWidth: 0
Flags: HW
LayerCount: 2
Fore
SplineSet
1437 -1 m 1
 1416 417 l 1
 1369 417 998 411 870 411 c 0
 444 411 229 512 229 919 c 2
 229 1444 l 1
 938 1444 l 1
 943 1006 l 2
 944 905 956 880 1094 883 c 2
 1404 889 l 1
 1393 1441 l 1
 2091 1434 l 1
 2097 1178 2111 472 2119 270 c 1
 2122 98 l 2
 2123 66 2124 33 2127 -2 c 1
 2116 -5 2090 -6 2054 -6 c 0
 1894 -6 1536 -2 1437 -1 c 1
EndSplineSet
EndChar

StartChar: afii10042
Encoding: 439 1064 98
Width: 3373
VWidth: 0
Flags: HW
LayerCount: 2
Fore
SplineSet
351 -1 m 1
 350 19 387 660 387 735 c 0
 387 775 391 754 408 1450 c 1
 929 1457 1030 1454 1105 1454 c 1
 1096 1351 l 2
 1086 1236 1053 625 1044 510 c 1
 1454 510 l 1
 1518 1450 l 1
 2138 1450 l 1
 2079 510 l 1
 2478 510 l 1
 2542 1450 l 1
 3193 1450 l 5
 3193 1336 3188.0054429 1184.04083587 3183.0117484 1049.99956231 c 2
 3162 486 l 1
 3156 378 3149 268 3132 102 c 1
 3128 42 l 1
 3116 28 l 1
 3041 16 2602 -1 2489 -1 c 2
 351 -1 l 1
EndSplineSet
EndChar

StartChar: afii10043
Encoding: 440 1065 99
Width: 3530
VWidth: 0
Flags: HW
LayerCount: 2
Fore
SplineSet
2811 -395 m 1
 2811 -359.133956606 2821.21864338 -148.064419248 2830 10 c 1
 2693 4 2547 -1 2489 -1 c 2
 351 -1 l 1
 350 19 387 660 387 735 c 0
 387 775 391 754 408 1450 c 1
 929 1457 1030 1454 1105 1454 c 1
 1096 1351 l 2
 1086 1236 1053 625 1044 510 c 1
 1454 510 l 1
 1518 1450 l 1
 2138 1469 l 1
 2079 510 l 1
 2478 510 l 1
 2542 1450 l 1
 3192 1469 l 1
 3192 1349 3188.26434743 1190.99037834 3183.0117484 1049.99956231 c 2
 3161.40336173 469.984972798 l 1
 3218.40336173 473.984972798 3276 478 3333 483 c 1
 3337 483 l 2
 3369 483 3401 482 3433 480 c 1
 3394.62038306 -326.981945627 l 2
 3394.62038306 -343.981945627 3395 -361 3397 -379 c 1
 3302 -391 3052 -391 2910 -403 c 1
 2910 -403 l 1
 2877 -403 2843 -403 2811 -395 c 1
EndSplineSet
EndChar

StartChar: afii10044
Encoding: 441 1066 100
Width: 3315
VWidth: 0
Flags: HW
LayerCount: 2
Fore
SplineSet
1462 -7 m 1
 1462 101 l 2
 1462 216 1473.29190192 316.680156934 1476 432 c 2
 1488 943 l 1
 1493 1063 l 1
 1129 1063 l 1
 1131 1103 1152 1332 1168 1432 c 1
 2237 1454 l 1
 2215 997 l 1
 2630 1007 l 2
 2968 1015 3266 860 3266 528 c 0
 3266 217 3026.96733513 10.0105145122 2474 4 c 2
 1462 -7 l 1
2189 342 m 1
 2255 336 2292 338 2352 338 c 0
 2480 338 2574 414 2574 546 c 0
 2574 650 2509 730 2390 730 c 2
 2206 730 l 1
 2189 342 l 1
EndSplineSet
EndChar

StartChar: afii10045
Encoding: 442 1067 101
Width: 3196
VWidth: 0
Flags: HW
LayerCount: 2
Fore
SplineSet
249.646484375 0 m 1
 249.646484375 108 l 2
 249.646484375 223 260.938386299 323.680156934 263.646484375 439 c 2
 275.646484375 950 l 1
 296.646484375 1446 l 1
 883.646484375 1456 l 2
 898.646484375 1456 913.646484375 1454 1024.64648438 1461 c 1
 1002.64648438 1004 l 1
 1417.64648438 1014 l 2
 1755.64648438 1022 2053.64648438 867 2053.64648438 535 c 0
 2053.64648438 224 1814.61381951 17.0105145122 1261.64648438 11 c 2
 249.646484375 0 l 1
993.646484375 737 m 1
 976.646484375 349 l 1
 1042.64648438 343 1079.64648438 345 1139.64648438 345 c 0
 1267.64648438 345 1361.64648438 421 1361.64648438 553 c 0
 1361.64648438 657 1296.64648438 737 1177.64648438 737 c 2
 993.646484375 737 l 1
EndSplineSet
Refer: 24 73 N 1 0 0 1 2019.68 0 2
EndChar

StartChar: afii10046
Encoding: 443 1068 102
Width: 3315
VWidth: 0
Flags: HW
LayerCount: 2
Fore
SplineSet
1462 -7 m 1
 1462 101 l 2
 1462 216 1473.29190192 316.680156934 1476 432 c 2
 1488 943 l 1
 1509 1439 l 1
 2096 1449 l 2
 2111 1449 2126 1447 2237 1454 c 1
 2215 997 l 1
 2630 1007 l 2
 2968 1015 3266 860 3266 528 c 0
 3266 217 3026.96733513 10.0105145122 2474 4 c 2
 1462 -7 l 1
2206 730 m 1
 2189 342 l 1
 2255 336 2292 338 2352 338 c 0
 2480 338 2574 414 2574 546 c 0
 2574 650 2509 730 2390 730 c 2
 2206 730 l 1
EndSplineSet
EndChar

StartChar: afii10047
Encoding: 444 1069 103
Width: 1661
VWidth: 0
Flags: HW
LayerCount: 2
Fore
SplineSet
325 -45 m 0
 259 -45 194 -42 132 -35 c 1
 132 421 l 1
 212 410 302 403 400 403 c 0
 566 403 699 455 746 589 c 1
 261 591 l 1
 269 858 l 1
 739 863 l 1
 687 993 562.051273625 1044 406 1044 c 0
 341 1044 226 1027 132 1009 c 1
 132 1448 l 1
 240 1460 347 1463 432 1463 c 0
 970 1463 1535 1293 1535 716 c 0
 1535 172 1003 3 483 -39 c 0
 430 -43 377 -45 325 -45 c 0
EndSplineSet
EndChar

StartChar: afii10048
Encoding: 445 1070 104
Width: 3427
VWidth: 0
Flags: HW
LayerCount: 2
Fore
SplineSet
2197 -45 m 0
 1790 -45 1361 60 1229 432 c 1
 922 432 l 1
 896 2 l 1
 356.046121207 -23.9593210958 l 1
 226 -17 l 1
 226 103 229.735652572 261.00962166 234.9882516 402.000437685 c 2
 256 966 l 1
 262 1074 269 1184 286 1350 c 1
 290 1410 l 1
 302 1424 l 1
 377 1436 836 1453 949 1453 c 2
 968 1453 l 1
 930 943 l 1
 1232 943 l 1
 1397 1381 1983 1481 2240 1481 c 0
 2770 1481 3301 1340 3301 753 c 0
 3301 113 2719 -45 2197 -45 c 0
2245 361 m 0
 2476.10603627 361 2568 484 2568 742 c 0
 2568 989 2465 1066 2256 1066 c 0
 2031 1066 1929 944.008368054 1929 705 c 0
 1929 454 2028 361 2245 361 c 0
EndSplineSet
EndChar

StartChar: afii10049
Encoding: 446 1071 105
Width: 2398
VWidth: 0
Flags: HW
LayerCount: 2
Fore
SplineSet
1342 1070 m 0
 1251 1070 1092 1057 1092 944 c 0
 1092 803 1310 811 1569 782 c 1
 1582 1064 l 1
 1503 1067 1444 1070 1342 1070 c 0
1005 -13 m 1
 282 9 l 1
 337 80 634 511 715 629 c 1
 545 688 385 811 385 1002 c 0
 385 1415 832 1449 1291 1449 c 0
 1968.02658737 1449 2288 1433 2302 1433 c 1
 2278 811 l 1
 2270 536 2256 263 2247 -11 c 1
 2008 -7 l 1
 1903 -8 1681.00399994 1 1556 1 c 0
 1548.92893219 1 1550 28 1550 32 c 2
 1565 506 l 1
 1321 523 l 1
 1260 405 1058 69 1005 -13 c 1
EndSplineSet
EndChar

StartChar: afii10051
Encoding: 447 1026 106
Width: 1972
VWidth: 0
Flags: HW
LayerCount: 2
Fore
SplineSet
1293 10 m 1
 1238 5 696 -5 614 -5 c 2
 609.979333986 -5 l 1
 630 669 l 2
 635 826 638 919 645 1051 c 1
 99 1051 l 1
 101 1093 122 1331 138 1435 c 1
 526 1439 1287 1443 1755 1444 c 0
 1812 1444 1871 1442 1921 1441 c 1
 1911 1356 1881 1150 1850 1051 c 1
 1329 1051 l 1
 1323 784 l 1
 1437 806 1541 819 1693 819 c 0
 2098 819 2340 713 2340 422 c 1
 2338 170 l 1
 2319 -392 2073 -469 1663 -469 c 0
 1570 -469 1495.95601762 -461.998061793 1462.95601762 -459.998061793 c 1
 1476 -164 l 1
 1631 -164 1736 -126 1749 143 c 1
 1754 345 l 1
 1754 437 1706 526 1508 526 c 0
 1454 526 1390 520 1312 505 c 1
 1302 268 1292 13 1293 10 c 1
EndSplineSet
EndChar

StartChar: afii10053
Encoding: 449 1028 108
Width: 1700
VWidth: 0
Flags: HW
LayerCount: 2
Fore
SplineSet
133 710 m 0
 133 1296 752 1481 1343 1481 c 0
 1409 1481 1474 1478 1536 1471 c 1
 1536 1035 l 1
 1481 1038 1418 1042 1353 1042 c 0
 1174 1042 983 1011 923 848 c 1
 1370 853 l 1
 1377 579 l 1
 927 581 l 1
 987 411 1150 377 1312 377 c 0
 1391 377 1469 385 1536 389 c 1
 1536 -30 l 1
 1428 -42 1321 -45 1236 -45 c 0
 698 -45 133 127 133 710 c 0
EndSplineSet
EndChar

StartChar: afii10058
Encoding: 454 1033 113
Width: 3170
VWidth: 0
Flags: HW
LayerCount: 2
Fore
SplineSet
878 266 m 0
 740.325588688 2.35350233709 505 -121 146 -154 c 1
 134 -134 79 -2 -18 217 c 1
 171 253 245.627344511 381.474161833 262.931258863 632.004747886 c 2
 286 966 l 1
 307 1440 l 1
 2017 1450 l 5
 1995 997 l 1
 2434.98549253 1007.60206006 l 1
 2761.98549253 1007.60206006 3046 852 3046 528 c 0
 3046 217 2806.96733513 10.0105145122 2254 4 c 2
 1242 -7 l 1
 1242 101 l 2
 1242 216 1264 911 1273 1026 c 1
 959 1026 l 1
 947 736 940.325588688 385.353502337 878 266 c 0
2068 338 m 2
 2132 338 l 2
 2260 338 2354 414 2354 546 c 0
 2354 650 2289 730 2170 730 c 2
 1986 730 l 1
 1969 342 l 1
 2009 338 2038 338 2068 338 c 2
EndSplineSet
EndChar

StartChar: afii10059
Encoding: 455 1034 114
Width: 3315
VWidth: 0
Flags: HW
LayerCount: 2
Fore
SplineSet
1462 -7 m 1
 1462 101 l 2
 1462 216 1467 317 1476 432 c 1
 942 432 l 1
 916 2 l 1
 225.986138772 -16.48251414 l 1
 225.986138772 103.51748586 237 441 256 966 c 1
 272 1444 l 1
 987.996832616 1453.24529626 l 1
 950 943 l 1
 1488 943 l 1
 1509 1429 l 1
 1554 1435 1619 1438 1661 1439 c 0
 1850 1441 2062 1448 2237 1449 c 5
 2215 997 l 1
 2630 1007 l 2
 2968 1015 3266 860 3266 528 c 0
 3266 217 3026.96733513 10.0105145122 2474 4 c 2
 1462 -7 l 1
2206 730 m 1
 2189 342 l 1
 2255 336 2292 338 2352 338 c 0
 2480 338 2574 414 2574 546 c 0
 2574 650 2509 730 2390 730 c 2
 2206 730 l 1
EndSplineSet
EndChar

StartChar: afii10060
Encoding: 456 1035 115
Width: 2479
VWidth: 0
Flags: HW
LayerCount: 2
Fore
SplineSet
1293 10 m 1
 1238 5 696 -5 614 -5 c 2
 609.979333986 -5 l 1
 630 669 l 2
 635 826 638 919 645 1051 c 1
 99 1051 l 1
 101 1093 122 1333 138 1438 c 1
 526 1443 1287 1448 1755 1449 c 0
 1812 1449 1871 1447 1921 1446 c 1
 1911 1360 1881 1151 1850 1051 c 1
 1329 1051 l 1
 1324 803 l 1
 1442 827 1547 840 1704 840 c 0
 2109 840 2375.0821663 673.825711025 2365.49396864 382.98371532 c 2
 2353 4 l 1
 2324 0 1947.9730835 0.000725023506622 1756.9730835 -0.999274976493 c 1
 1765.24224848 305.993474788 l 1
 1765.24224848 397.993474788 1717 487 1519 487 c 0
 1463 487 1395 480 1313 464 c 1
 1293 10 l 1
EndSplineSet
EndChar

StartChar: afii10066
Encoding: 460 1073 119
Width: 1701
VWidth: 0
Flags: HW
LayerCount: 2
Fore
SplineSet
1151 1326 m 1
 1253 960 l 1
 1177 950 960 890 853 798 c 1
 909 804 961 806 1009 806 c 0
 1423 806 1591 613 1591 434 c 0
 1591 142 1332 -37 811 -37 c 0
 237 -37 114 293 114 430 c 0
 114 948 647 1241 1151 1326 c 1
713 390 m 0
 713 284 750 208 862 208 c 0
 985 208 1020 304 1020 424 c 0
 1020 545 982 614 871 614 c 0
 745 614 713 493 713 390 c 0
EndSplineSet
EndChar

StartChar: afii10067
Encoding: 461 1074 120
Width: 1757
VWidth: 0
Flags: HW
LayerCount: 2
Fore
SplineSet
1018 -4 m 2
 191 -4 l 2
 166 -4 146.376446001 0.0331509720962 130.376446001 10.0331509721 c 1
 156 492 l 1
 154 492 l 1
 179.434726386 886.907593894 l 1
 183 967 l 1
 186 1009 l 1
 1046 1026 l 1
 1358 1026 1652 972 1633 739 c 0
 1626 647 1552 571 1419 544 c 1
 1557 522 1656 431 1656 319 c 0
 1656 102 1388 -4 1018 -4 c 2
910 613 m 2
 1022 613 1111 626 1111 725 c 0
 1111 803 1045 821 941 821 c 2
 733 821 l 1
 720 613 l 1
 910 613 l 2
894 210 m 2
 1006 210 1094 220 1094 319 c 0
 1094 397 1027 419 923 419 c 2
 714 419 l 1
 706 210 l 1
 894 210 l 2
EndSplineSet
EndChar

StartChar: afii10068
Encoding: 462 1075 121
Width: 1377
VWidth: 0
Flags: HW
LayerCount: 2
Fore
SplineSet
1265 1023 m 1
 1265 1023 1251 703 1246 661 c 1
 741 661 l 1
 689 -5 l 1
 252 -10 l 1
 237 -10 l 1
 131 -6 l 1
 131 75 134 182 138 278 c 0
 138 289 140 306 140 316 c 0
 150 562 164 744 183 992 c 1
 193 1002 l 1
 253 1011 641 1023 732 1023 c 0
 1204 1023 912 1024 1265 1023 c 1
EndSplineSet
EndChar

StartChar: afii10069
Encoding: 463 1076 122
Width: 1860
VWidth: 0
Flags: HW
LayerCount: 2
Back
SplineSet
526 -343 m 5
 554 1 l 5
 1261 1 l 5
 1244 -351 l 5
 1507 -349 l 5
 1822 -353 l 5
 1829 -150 l 5
 1843 309 l 5
 1275 303 l 5
 2 297 l 5
 -9 287 l 5
 -13 244 l 5
 -37 -347 l 5
 103 -347 l 5
 526 -343 l 5
EndSplineSet
Fore
SplineSet
255 298 m 1
 285 535 318 768 345 1007 c 1
 356 1017 l 1
 1149 1023 l 1
 1697 1029 l 1
 1683 500 l 1
 1676 308 l 1
 1817 309 l 1
 1810 115 1804 -80 1796 -273 c 1
 1481 -269 l 1
 1238 -271 l 1
 1255 0 l 1
 1136 -1 l 1
 1136 1 l 1
 729 1 l 1
 728 -3 l 1
 568 -5 l 1
 540 -263 l 1
 117 -267 l 1
 -23 -267 l 1
 21 244 l 1
 25 287 l 1
 36 297 l 1
 255 298 l 1
774 301 m 1
 1149 302 l 1
 1165 691 l 1
 828 691 l 1
 774 301 l 1
EndSplineSet
EndChar

StartChar: afii10072
Encoding: 466 1078 125
Width: 1987
VWidth: 0
Flags: HW
LayerCount: 2
Fore
SplineSet
819 -21 m 1
 823 272 l 1
 550 -9 l 1
 513 -11 524 -11 487 -11 c 2
 27 -2 l 1
 133 104 l 1
 533 489 l 1
 110 1018 l 1
 620 1007 l 1
 829 725 l 1
 832 943 l 1
 832 1009 l 1
 1151 1011 l 1
 1144 718 l 1
 1375 1017 l 1
 1408 1018 1425 1018 1459 1018 c 2
 1919 1008 l 1
 1443 541 l 1
 1878 98 l 1
 1957 19 l 1
 1385 -10 l 1
 1134 267 l 1
 1128 -17 l 1
 1129 -23 l 1
 819 -21 l 1
EndSplineSet
EndChar

StartChar: afii10073
Encoding: 467 1079 126
Width: 1393
VWidth: 0
Flags: HW
LayerCount: 2
Fore
SplineSet
1252 306 m 4
 1252 116 1047 -37 643 -37 c 4
 461 -37 277 -2 177 37 c 5
 179 287 l 5
 267 267 374 251 460 251 c 4
 539 251 579 300 579 349 c 4
 579 395 542 441 465 441 c 6
 284 441 l 5
 309 652 l 5
 427 652 l 6
 523 652 565 700 565 750 c 4
 565 800 522 849 449 849 c 4
 354 849 244 830 169 813 c 5
 169 1034 l 5
 327 1057 490 1070 639 1070 c 4
 966 1070 1228 993 1228 802 c 4
 1228 681 1100 605 1013 564 c 5
 1111 532 1252 461 1252 306 c 4
EndSplineSet
EndChar

StartChar: afii10074
Encoding: 468 1080 127
Width: 1818
VWidth: 0
Flags: HW
LayerCount: 2
Fore
SplineSet
1651 4 m 1
 1105 4 l 1
 1105 49 1111 225 1119 398 c 1
 772 9 l 1
 657 3 307 8 213 11 c 2
 131 13 l 1
 131 117 l 1
 167 1028 l 1
 492 1040 606 1031 673 1026 c 1
 668 936 l 1
 660 761 653 586 643 411 c 1
 692 477 1050 898 1153 1017 c 1
 1154 1017 l 1
 1687 1023 l 1
 1649 89 l 1
 1649 82 l 2
 1649 62 1649 25 1651 4 c 1
EndSplineSet
EndChar

StartChar: afii10076
Encoding: 470 1082 129
Width: 1768
VWidth: 0
Flags: HW
LayerCount: 2
Fore
SplineSet
1146 -18 m 1
 833 331 l 1
 718 241 l 1
 713 -2 l 1
 130 -11 l 1
 135 122 l 1
 165 995 l 1
 336 995 l 1
 752 990 l 1
 750 920 l 1
 738 638 l 1
 912 831 l 1
 1047 978 l 1
 1599 989 l 2
 1641 989 1681 988 1720 987 c 1
 1384 630 l 1
 1263 509 l 1
 1443 318 1613 152 1762 7 c 1
 1146 -18 l 1
EndSplineSet
EndChar

StartChar: afii10077
Encoding: 471 1083 130
Width: 1893
VWidth: 0
Flags: HW
LayerCount: 2
Fore
SplineSet
264 -37 m 4
 171 -37 97 -30 64 -28 c 5
 64 -27 l 5
 77 267 l 5
 232 267 335 306 360 574 c 6
 396 968 l 5
 400 1011 l 5
 411 1021 l 5
 1234 1023 l 5
 1762 1029 l 5
 1748 500 l 5
 1729 -13 l 5
 1424 -9 l 5
 1161 -11 l 5
 1184 653 l 5
 901 653 l 5
 885 495 l 5
 834.563451777 78 694.812182741 -37 264 -37 c 4
EndSplineSet
EndChar

StartChar: afii10078
Encoding: 472 1084 131
Width: 2256
VWidth: 0
Flags: HW
LayerCount: 2
Fore
SplineSet
129 -6 m 1
 200 1021 l 1
 200 1021 202 1021 204 1021 c 2
 862 1021 l 1
 1147 521 l 1
 1472 1029 l 1
 2057 1016 l 1
 2121 89 l 1
 2128 1 l 1
 1995 -7 1749 -9 1617 -9 c 1
 1589 349 l 1
 1577 481 l 1
 1231 7 l 1
 1168 3 l 1
 988 3 l 1
 988 3 804 298 724 453 c 1
 684 -5 l 1
 629 -8 571 -9 506 -9 c 2
 129 -6 l 1
EndSplineSet
EndChar

StartChar: afii10079
Encoding: 473 1085 132
Width: 2007
VWidth: 0
Flags: HW
LayerCount: 2
Fore
SplineSet
762 668 m 1
 1230 668 l 1
 1248 1011 l 1
 1391 1011 l 1
 1876 1023 l 1
 1877 1008 1850 564 1850 511 c 1
 1822 -4 l 1
 1454 -9 l 2
 1379 -10 1273 -11 1207 -11 c 1
 1207 84 l 1
 1210 314 l 1
 754 314 l 1
 731 0 l 1
 131 2 l 1
 131 86 135 195 139 293 c 0
 139 303 141 320 141 330 c 2
 157 684 l 1
 184 1030 l 1
 763 1022 l 2
 770 1022 776 1022 779 1022 c 1
 762 668 l 1
EndSplineSet
EndChar

StartChar: afii10081
Encoding: 475 1087 134
Width: 1854
VWidth: 0
Flags: HW
LayerCount: 2
Fore
SplineSet
694 -3 m 1
 271 -7 l 1
 131 -7 l 1
 167 964 l 1
 171 1007 l 1
 182 1017 l 1
 1155 1023 l 1
 1723 1029 l 1
 1709 500 l 1
 1690 -13 l 1
 1375 -9 l 1
 1112 -11 l 1
 1141 651 l 1
 734 651 l 1
 694 -3 l 1
EndSplineSet
EndChar

StartChar: afii10084
Encoding: 478 1090 137
Width: 1491
VWidth: 0
Flags: HW
LayerCount: 2
Fore
SplineSet
977 -3 m 1
 554 -7 l 1
 414 -7 l 1
 439 656 l 1
 71 656 l 1
 92 981 l 1
 92 1007 l 1
 103 1017 l 1
 1395 1023 l 1
 1418 1013 l 1
 1393 651 l 1
 1017 651 l 1
 977 -3 l 1
EndSplineSet
EndChar

StartChar: afii10086
Encoding: 480 1092 139
Width: 2121
VWidth: 0
Flags: HW
LayerCount: 2
Fore
SplineSet
1213.96972656 -411 m 1
 857.969726562 -407 l 1
 867 -37 l 1
 544 -11 103 44 114 483 c 0
 125 905 454 1035 910 1069 c 1
 921 1306 l 1
 1278 1311 l 1
 1268 1065 l 1
 1684 1029 2015 881 2007 534 c 1
 1994 46 1552 -13 1220 -36 c 1
 1213.96972656 -411 l 1
1259 774 m 1
 1242 237 l 1
 1408 242 1461 363 1466 525 c 1
 1469 665 1415 776 1259 774 c 1
874 234 m 1
 886 771 l 1
 722 770 658 627 654 496 c 0
 650 328 712 233 874 234 c 1
EndSplineSet
EndChar

StartChar: afii10088
Encoding: 482 1094 141
Width: 1924
VWidth: 0
Flags: HWO
LayerCount: 2
Fore
SplineSet
1142 -11 m 1
 271 -16 l 1
 131 -12 l 1
 167 964 l 1
 171 1007 l 1
 182 1017 l 1
 252 1026 658 1029 763 1029 c 0
 771 1029 777 1028 781 1028 c 1
 751 355 l 1
 1152 355 l 1
 1185 1017 l 1
 1793 1029 l 1
 1779 500 l 2
 1779 473 1776 484 1763 78 c 1
 1870 78 l 1
 1933 75 l 1
 1933 -217 l 1
 1929 -394 l 1
 1592 -394 l 1
 1533 -394 l 1
 1531 -328.661870504 1531 -278.798561151 1531 -155 c 2
 1531 -10 l 1
 1405 -9 l 1
 1142 -11 l 1
EndSplineSet
EndChar

StartChar: afii10089
Encoding: 483 1095 142
Width: 1974
VWidth: 0
Flags: HW
LayerCount: 2
Fore
SplineSet
1192 -11 m 1
 1204 268 l 1
 851 268 l 2
 299 268 166 417 166 882 c 0
 166 908 166 936 167 964 c 1
 171 1019 l 1
 182 1029 l 1
 763 1018 l 2
 771 1018 777 1017 781 1017 c 1
 780 990 780 964 780 939 c 0
 780 750 809 647 1020 647 c 2
 1219 647 l 1
 1235 1019 l 1
 1843 1019 l 1
 1829 500 l 2
 1829 471 1825 486 1810 -13 c 1
 1455 -9 l 1
 1192 -11 l 1
EndSplineSet
EndChar

StartChar: afii10090
Encoding: 484 1096 143
Width: 2855
VWidth: 0
Flags: HW
LayerCount: 2
Fore
SplineSet
2113 -11 m 1
 1262 -16 l 1
 131 -12 l 1
 167 964 l 1
 171 1013 l 1
 182 1023 l 1
 741 1025 l 1
 711 355 l 1
 1135 355 l 1
 1158 1024 l 1
 1505 1024 l 1
 1733 1029 l 1
 1719 500 l 2
 1719 482 1717 481 1712 355 c 1
 2123 355 l 1
 2156 1017 l 1
 2724 1029 l 1
 2710 500 l 2
 2710 471 2706 486 2691 -13 c 1
 2376 -9 l 1
 2113 -11 l 1
EndSplineSet
EndChar

StartChar: afii10091
Encoding: 485 1097 144
Width: 2855
VWidth: 0
Flags: HW
LayerCount: 2
Fore
SplineSet
2113 -11 m 1
 1262 -16 l 1
 131 -12 l 1
 167 964 l 1
 171 1013 l 1
 182 1023 l 1
 741 1025 l 1
 711 355 l 1
 1135 355 l 1
 1158 1024 l 1
 1505 1024 l 1
 1733 1029 l 1
 1719 500 l 2
 1719 482 1717 481 1712 355 c 1
 2123 355 l 1
 2156 1017 l 1
 2724 1029 l 1
 2710 500 l 2
 2710 471 2706 486 2691 -13 c 1
 2376 -9 l 1
 2113 -11 l 1
EndSplineSet
Refer: 273 46 N 1 0 0 1 2302 -267 2
EndChar

StartChar: afii10092
Encoding: 486 1098 145
Width: 1996
VWidth: 0
Flags: HW
LayerCount: 2
Fore
SplineSet
1177 -5 m 1
 361 -2 l 2
 334 -2 313 4 295 18 c 1
 295 61 295 94 296 137 c 1
 295 140 l 1
 318 692 l 1
 185 692 l 1
 41 694 l 1
 56 1027 l 1
 730 1027 l 2
 776 1027 823 1027 864 1018 c 1
 864 921 l 1
 862 827 l 1
 1213 827 l 2
 1551 827 1841 741 1849 409 c 1
 1849 399 l 2
 1849 96 1544 -5 1177 -5 c 1
853 252 m 1
 1023 250 l 1
 1166 250 1271 263 1271 415 c 2
 1271 424 l 1
 1268 546 1198 548 1070 548 c 2
 1058 548 l 1
 857 549 l 1
 853 252 l 1
EndSplineSet
EndChar

StartChar: afii10093
Encoding: 487 1099 146
Width: 2643
VWidth: 0
Flags: HW
LayerCount: 2
Fore
SplineSet
859 250 m 1
 1005 250 1111 263 1107 424 c 0
 1104 550 1030 548 894 548 c 2
 693 548 l 1
 689 252 l 1
 859 250 l 1
1013 -5 m 1
 197 -2 l 2
 170 -2 149 4 131 18 c 1
 131 61 131 94 132 137 c 1
 131 140 l 1
 160 849 l 1
 166 1027 l 1
 566 1037 l 1
 612 1037 659 1035 700 1026 c 1
 701 994 700 953 700 921 c 2
 698 827 l 1
 1049 827 l 2
 1387 827 1677 741 1685 409 c 0
 1692 98 1384 -5 1013 -5 c 1
2416 1026 m 2
 2448 1026 2480 1025 2512 1023 c 1
 2496 12 l 1
 2019 -1 l 1
 2018 -1 l 2
 1985 -1 1952 -1 1920 9 c 1
 1920 60 1917 209 1927 416 c 1
 1936 1020 l 1
 2412 1026 l 1
 2416 1026 l 2
EndSplineSet
EndChar

StartChar: afii10094
Encoding: 488 1100 147
Width: 1835
VWidth: 0
Flags: HW
LayerCount: 2
Fore
SplineSet
892 250 m 1
 1038 250 1144 254 1140 415 c 0
 1137 541 1063 539 927 539 c 2
 726 540 l 1
 722 252 l 1
 892 250 l 1
1046 -5 m 1
 230 -2 l 2
 203 -2 182 4 164 18 c 1
 164 61 164 94 165 137 c 1
 164 140 l 1
 193 939 l 1
 199 1027 l 1
 599 1029 l 2
 645 1029 692 1027 733 1018 c 1
 734 986 733 953 733 921 c 2
 731 818 l 1
 1082 818 l 2
 1420 818 1710 741 1718 409 c 0
 1725 98 1417 -5 1046 -5 c 1
EndSplineSet
EndChar

StartChar: afii10095
Encoding: 489 1101 148
Width: 1622
VWidth: 0
Flags: HW
LayerCount: 2
Fore
SplineSet
157 1027 m 1
 291 1054 450 1070 610 1070 c 0
 1052 1070 1508 932 1508 528 c 0
 1508 99 1070 -37 629 -37 c 0
 457 -37 286 -17 139 14 c 1
 164 305 l 1
 297 282 420 270 523 270 c 0
 717 270 844 317 845 414 c 1
 278 414 l 1
 278 616 l 1
 852 616 l 1
 833 721 699 777 493 777 c 0
 408 777 311 769 204 752 c 1
 157 1027 l 1
EndSplineSet
EndChar

StartChar: afii10096
Encoding: 490 1102 149
Width: 2384
VWidth: 0
Flags: HW
LayerCount: 2
Fore
SplineSet
1569 -37 m 0
 1283 -37 982 28 897 314 c 1
 706 314 l 1
 685 0 l 1
 131 2 l 1
 131 86 140 320 155 684 c 1
 175 1030 l 1
 714 1022 l 1
 729 1022 l 1
 713 668 l 1
 894 668 l 1
 969 959 1242 1071 1622 1071 c 4
 2015 1071 2270 874 2270 526 c 0
 2270 38 1895 -37 1569 -37 c 0
1585 236 m 1
 1738 239 1771 360 1771 522 c 0
 1771 662 1727 773 1579 773 c 0
 1428 773 1385 631 1385 500 c 0
 1385 332 1435 236 1585 236 c 1
EndSplineSet
EndChar

StartChar: afii10097
Encoding: 491 1103 150
Width: 1790
VWidth: 0
Flags: HW
LayerCount: 2
Fore
SplineSet
1084 792 m 1
 1023 795 979 797 901 797 c 0
 832 797 709 788 704 713 c 0
 698 603 772 587 1085 587 c 1
 1084 792 l 1
753 -5 m 0
 752 -5 200 1 157 2 c 1
 389 435 l 1
 247 481 134 577 142 726 c 0
 159 1008 490 1029 855 1028 c 1
 1655 1019 l 1
 1643 445 l 2
 1640 270 1638 123 1631 -9 c 1
 1085 0 l 2
 1080 0 1080 3 1080 6 c 2
 1085 357 l 1
 890 361 l 1
 864 292 764 27 753 -5 c 0
EndSplineSet
EndChar

StartChar: afii10099
Encoding: 492 1106 151
Width: 1931
VWidth: 0
Flags: HW
LayerCount: 2
Fore
SplineSet
1115 -516 m 0
 1022 -516 948 -509 915 -507 c 1
 915 -506 l 1
 928 -191 l 1
 1083 -191 1188 -153 1201 116 c 1
 1206 468 l 1
 1206 560 1158 649 960 649 c 0
 904 649 836 642 754 626 c 1
 738 1 l 1
 261 -7 l 1
 131 -7 l 1
 131 96 l 1
 156 1150 l 1
 29 1150 l 1
 36 1366 l 1
 161 1366 l 1
 163 1464 l 1
 359 1464 555 1465 752 1465 c 5
 752 1368 l 2
 753 1368 753 1368 754 1368 c 0
 969 1371 1101 1372 1171 1372 c 1
 1171 1355 1164 1281 1161 1246 c 2
 1152 1150 l 1
 751 1150 l 1
 747 961 l 1
 872 987 980 1002 1145 1002 c 0
 1550 1002 1792 836 1792 545 c 1
 1790 143 l 1
 1771 -419 1525 -516 1115 -516 c 0
EndSplineSet
EndChar

StartChar: afii10101
Encoding: 494 1108 153
Width: 1622
VWidth: 0
Flags: HW
LayerCount: 2
Fore
SplineSet
1465 1027 m 1
 1418 752 l 1
 1311 769 1214 777 1129 777 c 0
 923 777 789 721 770 616 c 1
 1344 616 l 1
 1344 414 l 1
 777 414 l 1
 778 319 905 272 1099 272 c 0
 1202 272 1325 284 1458 307 c 1
 1483 16 l 1
 1336 -15 1165 -35 993 -35 c 0
 552 -35 114 100 114 528 c 0
 114 935 570 1074 1012 1074 c 0
 1172 1074 1331 1056 1465 1027 c 1
EndSplineSet
EndChar

StartChar: afii10106
Encoding: 499 1113 158
Width: 2725
VWidth: 0
Flags: HW
LayerCount: 2
Fore
SplineSet
959 530 m 1
 938 117 762 -21 352 -21 c 0
 259 -21 87 -14 54 -12 c 1
 54 -11 l 2
 54 12 57 281 57 308 c 1
 95 306 132 304 165 304 c 0
 320 304 425 342 438 611 c 1
 439 611 l 1
 452 964 l 1
 452 1023 l 1
 1788 1027 l 1
 1788 921 l 1
 1786 827 l 1
 2037 827 l 2
 2375 827 2643 741 2643 409 c 0
 2643 98 2392 -7 2021 -5 c 2
 1285 -2 l 1
 1219 -1 l 1
 1239 694 l 1
 964 694 l 1
 959 530 l 1
1857 250 m 1
 2003 250 2109 263 2105 424 c 0
 2102 550 2028 548 1892 548 c 1
 1781 549 l 1
 1777 252 l 1
 1857 250 l 1
EndSplineSet
EndChar

StartChar: afii10107
Encoding: 500 1114 159
Width: 2619
VWidth: 0
Flags: HW
LayerCount: 2
Fore
SplineSet
1740.8828125 250 m 1
 1886.8828125 250 1992.8828125 263 1988.8828125 424 c 0
 1985.8828125 550 1911.8828125 548 1775.8828125 548 c 1
 1654.8828125 549 l 1
 1650.8828125 252 l 1
 1740.8828125 250 l 1
1874.8828125 -5 m 1
 1158.8828125 -2 l 1
 1093.8828125 -1 l 1
 1092.8828125 2 l 1
 1102.8828125 314 l 1
 727.8828125 314 l 1
 717.8828125 0 l 1
 130.8828125 2 l 1
 157.8828125 1030 l 1
 730.8828125 1022 l 2
 737.8828125 1022 743.8828125 1022 746.8828125 1022 c 1
 735.8828125 668 l 1
 1113.8828125 668 l 1
 1121.8828125 939 l 1
 1127.8828125 1027 l 1
 1661.8828125 1029 l 1
 1662.8828125 997 1661.8828125 953 1661.8828125 921 c 2
 1659.8828125 827 l 1
 1910.8828125 827 l 2
 2248.8828125 827 2538.8828125 741 2546.8828125 409 c 0
 2553.8828125 98 2245.8828125 -5 1874.8828125 -5 c 1
EndSplineSet
EndChar

StartChar: afii10108
Encoding: 501 1115 160
Width: 1924
VWidth: 0
Flags: HW
LayerCount: 2
Fore
SplineSet
1683 2 m 1
 1198 -1 l 1
 1198 0 l 1
 1206 459 l 2
 1206 462 1206 465 1206 468 c 0
 1206 560 1158 649 960 649 c 0
 904 649 836 642 754 626 c 1
 738 1 l 1
 261 -7 l 1
 131 -7 l 1
 131 96 l 1
 158 1150 l 1
 29 1150 l 1
 36 1366 l 1
 163 1366 l 1
 166 1464 l 1
 628 1465 l 1
 653 1465 l 1
 755 1465 l 1
 754 1368 l 1
 919 1370 1113 1372 1123 1372 c 2
 1171 1372 l 1
 1171 1355 1164 1281 1161 1246 c 2
 1152 1150 l 1
 751 1150 l 1
 747 961 l 1
 872 987 980 1002 1145 1002 c 0
 1550 1002 1806 836 1806 545 c 2
 1806 530 l 1
 1794 11 l 1
 1764 7 1729 5 1683 2 c 1
EndSplineSet
EndChar

StartChar: afii10145
Encoding: 504 1039 163
Width: 2421
VWidth: 0
Flags: HW
LayerCount: 2
Fore
SplineSet
987 -416 m 1
 986 -416 l 2
 953 -416 920 -416 888 -410 c 1
 888 -372 900 -246 913 -50 c 1
 686 -51 497 -51 251 -51 c 2
 227 -51 l 1
 225 -20 257 876 284 1431 c 1
 719 1437 l 2
 805 1438 927 1434 1002 1434 c 1
 996 1302 l 2
 991 1187 959 576 950 461 c 1
 1484 461 l 1
 1548 1431 l 1
 2088 1426 l 1
 2108 1426 l 1
 2238 1420 l 1
 2238 1279 2220 1047 2220 947 c 1
 2174 -7 l 1
 2162 -21 l 1
 2087 -33 1608 -50 1495 -50 c 2
 1494 -50 l 1
 1474 -401 l 1
 1379 -408 1129 -408 987 -416 c 1
EndSplineSet
EndChar

StartChar: afii10193
Encoding: 505 1119 164
Width: 1897
VWidth: 0
Flags: HW
LayerCount: 2
Fore
SplineSet
741 362 m 1
 1155 362 l 1
 1159 475 1169 919 1169 951 c 2
 1169 1009 l 1
 1207 1013 1261 1016 1296 1016 c 2
 1766 1014 l 1
 1766 945 1751 680 1730 1 c 1
 1366 -3 l 1
 1202 -3 l 1
 1194 -307 1194 -342 1196 -361 c 1
 709 -366 l 1
 708 -366 l 2
 675 -366 642 -366 610 -356 c 1
 610 -310 616 -179 624 -2 c 1
 131 -2 l 1
 131 336 156 680 175 1007 c 1
 753 1010 l 2
 761 1010 766 1010 769 1009 c 1
 761 860 744 436 741 362 c 1
EndSplineSet
EndChar

StartChar: ampersand
Encoding: 6 38 167
Width: 1967
VWidth: 0
Flags: HW
LayerCount: 2
Fore
SplineSet
825 1082 m 0
 825 1022 868 958 934 922 c 1
 1019 959 1069 1034 1069 1098 c 0
 1069 1167 1009 1205 949 1205 c 0
 887 1205 825 1166 825 1082 c 0
1088 335 m 1
 820 540 l 1
 768 500 738 447 738 399 c 0
 738 315 815 278 903 278 c 0
 968 278 1039 299 1088 335 c 1
1389 91 m 1
 1290 24 1063 -45 853 -45 c 0
 454 -45 245 139 245 347 c 0
 245 497 353 660 577 776 c 1
 454 864 396 981 396 1096 c 0
 396 1292 591 1481 944 1481 c 0
 1258 1481 1447 1311 1447 1116 c 0
 1447 978 1365 829 1182 714 c 1
 1417 562 l 1
 1524 640 1639 779 1698 844 c 1
 2002 627 l 1
 1730 352 l 1
 1891 234 l 1
 1891 232 1664 7 1611 -63 c 1
 1389 91 l 1
EndSplineSet
EndChar

StartChar: asciicircum
Encoding: 62 94 169
Width: 1227
VWidth: 0
Flags: HW
LayerCount: 2
Fore
SplineSet
754 92 m 0
 734 157 643 486 632 528 c 1
 401 88 l 2
 399 84 141 160 64 176 c 1
 216 456 409 842 496 972 c 1
 873 960 l 2
 1135 214 l 1
 1160 135 l 0
 754 92 l 0
EndSplineSet
EndChar

StartChar: asciitilde
Encoding: 94 126 170
Width: 1265
VWidth: 0
Flags: HW
LayerCount: 2
Fore
SplineSet
865 521 m 0
 722.129148374 521 544.403057666 657 429 657 c 0
 365 657 348 610 348 569 c 1
 114 562 l 1
 114 754 229 899 407 899 c 0
 561.270213756 899 732.801709676 776.309497956 810 760 c 0
 818 758 825 758 831 758 c 0
 893 758 893 828 895 845 c 1
 1130 837 l 1
 1130 698 1043 521 865 521 c 0
EndSplineSet
EndChar

StartChar: asterisk
Encoding: 10 42 171
Width: 1456
VWidth: 0
Flags: HW
LayerCount: 2
Fore
SplineSet
829 138 m 0
 829 124 819 123 805 123 c 2
 794 123 l 2
 753 123 672 131 518 137 c 1
 514 137 l 2
 494 137 480 147.980776337 480 174 c 0
 480 260.209048249 494 340 502 429 c 1
 442 395 305 300 272 300 c 0
 258 300 247.993297375 305.785504415 240 315 c 0
 175.993297375 388.785504415 123 440 109 461 c 1
 99 495 90 504 90 507 c 1
 418 778 l 1
 174 945 72 1015 72 1028 c 0
 72 1035 92 1065 163 1172 c 0
 189 1212 231 1291 261 1291 c 0
 295 1291 478 1139 550 1086 c 1
 600 1447 l 2
 600 1450 602 1455 604 1460 c 1
 629 1461 730 1462 879 1462 c 0
 925 1462 961 1462 966 1463 c 1
 980 1463 984.224637022 1447.71266076 981.835020356 1430.88144773 c 2
 935 1101 l 1
 1046 1193 1164 1303 1194 1303 c 0
 1196 1303 1197 1302 1198 1302 c 0
 1199 1302 1200 1303 1201 1303 c 0
 1203 1303 1204 1303 1205 1302 c 0
 1330 1124 1384 1046 1384 1041 c 2
 1384 1039 l 2
 1384 1023 1377 1021 1037 778 c 1
 1367 507 l 1
 1367 503 1358 497 1347 461 c 1
 1326 432 1276 364 1203 266 c 0
 1195 256 1184 251 1171 251 c 1
 886 438 l 1
 871 354 851 290 842 205 c 0
 836 150 838 149 822 149 c 1
 825 148 829 144 829 138 c 0
EndSplineSet
EndChar

StartChar: at
Encoding: 32 64 172
Width: 1951
VWidth: 0
Flags: HW
LayerCount: 2
Fore
SplineSet
1390 235 m 0
 1277 239 1147 268 1102 435 c 1
 1058 322 950 269 885 269 c 0
 731 269 588 374 588 590 c 2
 588 612 l 1
 600 880 780 1064 985 1064 c 0
 1045 1064 1115 1029 1138 970 c 1
 1177 1056 l 1
 1395 1046 l 1
 1329 564 l 2
 1328 557 1328 507 1328 498 c 0
 1328 428 1376 380 1432 380 c 0
 1514 380 1614 479 1614 751 c 0
 1614 1088 1420 1284 1080 1284 c 0
 655 1284 388 957 388 582 c 0
 388 254 677 13 1080 13 c 1
 1022 -163 l 1
 376 -163 132 247 132 592 c 0
 132 1129 597 1481 1109 1481 c 0
 1537 1481 1833 1191 1833 750 c 0
 1833 470 1669 225 1390 235 c 0
1060 493 m 1
 1106 837 l 1
 1086 856 1022 882 985 882 c 0
 878 882 803 740 803 619 c 0
 803 531 843 455 941 455 c 0
 965 455 1027 470 1060 493 c 1
EndSplineSet
EndChar

StartChar: b
Encoding: 66 98 174
Width: 1909
VWidth: 0
Flags: HW
LayerCount: 2
Back
SplineSet
1212 518 m 4
 1212 369 1115 250 958 250 c 4
 774 250 690 371 690 496 c 4
 690 630 781 768 956 768 c 4
 1116 768 1212 661 1212 518 c 4
EndSplineSet
Fore
SplineSet
1106 -37 m 0
 883 -37 669 41 548 190 c 1
 548 194 l 1
 542 176 444 26 441 26 c 1
 426 17 223 -14 210 -14 c 0
 183 -14 162 -8 145 6 c 1
 146 49 147 94 149 137 c 1
 148 140 l 1
 196 1269 l 1
 196 1403 l 1
 248 1410 581 1449 628 1449 c 0
 674 1449 721 1447 762 1438 c 1
 762 1406 760 1373 760 1341 c 0
 760 1265 744 1017 742 943 c 1
 848 1015 1004 1070 1162 1070 c 0
 1500 1070 1798 875 1798 528 c 0
 1798 217 1477 -37 1106 -37 c 0
1201 509 m 0
 1201 632 1121 754 960 754 c 0
 801 754 722 628 722 503 c 0
 722 378 800 254 953 254 c 0
 1117 254 1201 382 1201 509 c 0
EndSplineSet
EndChar

StartChar: backslash
Encoding: 60 92 175
Width: 1372
VWidth: 0
Flags: HW
LayerCount: 2
Fore
SplineSet
624 1634 m 5
 673 1501 722 1375 769 1259 c 1
 940 837 1101 440 1255 65 c 1
 1325 -119 l 1
 822 -168 l 1
 796 -121 779 -67 757 -10 c 1
 239 1244 l 2
 217 1297 194 1351 171 1403 c 1
 99 1588 l 1
 624 1634 l 5
EndSplineSet
EndChar

StartChar: bar
Encoding: 92 124 176
Width: 595
VWidth: 0
Flags: HW
LayerCount: 2
Fore
SplineSet
121 -91 m 1
 131 14 252 1292 269 1532 c 1
 612 1516 l 1
 462 -109 l 1
 121 -97 l 1
 121 -91 l 1
EndSplineSet
EndChar

StartChar: braceleft
Encoding: 91 123 177
Width: 1121
VWidth: 0
Flags: HW
LayerCount: 2
Fore
SplineSet
1031 -111 m 1
 940 -132 857 -142 781 -142 c 0
 501 -142 332 -1 332 278 c 2
 332 301 l 2
 332 455 328 592 164 592 c 1
 164 890 l 1
 536 890 115 1563 699 1563 c 0
 731 1563 1032 1557 1039 1556 c 1
 1072 1302 l 1
 656 1302 1001 785 648 761 c 1
 780 719 865 641 865 460 c 0
 865 221 865 88 1040 88 c 1
 1031 -111 l 1
EndSplineSet
EndChar

StartChar: braceright
Encoding: 93 125 178
Width: 1121
VWidth: 0
Flags: HW
LayerCount: 2
Fore
SplineSet
156 1548 m 1
 178 1553 431 1563 539 1563 c 0
 849 1563 855 1352 855 1159 c 2
 855 1136 l 2
 855 982 859 845 1023 845 c 1
 1023 547 l 1
 672 547 1042 -135 350 -135 c 0
 291 -135 224 -130 148 -119 c 1
 115 135 l 1
 531 135 136 642 539 696 c 1
 377 718 322 796 322 977 c 0
 322 1216 322 1349 147 1349 c 1
 156 1548 l 1
EndSplineSet
EndChar

StartChar: bracketleft
Encoding: 59 91 179
Width: 1424
VWidth: 0
Flags: HW
LayerCount: 2
Fore
SplineSet
893 -171 m 1
 660 -171 397 -168 167 -156 c 1
 161 -112 161 -64 161 -15 c 0
 161 142 177.562793358 502.844167041 184 832 c 2
 199 1599 l 1
 384 1601 l 1
 1360 1601 l 1
 1349 1236 l 1
 936 1226 l 1
 933 1102 915.368179881 876.30445442 911 671 c 2
 901 201 l 1
 1013 201 l 2
 1107 201 1201 201 1291 197 c 1
 1291 109 1288 -80 1285 -169 c 1
 893 -171 l 1
EndSplineSet
EndChar

StartChar: bracketright
Encoding: 61 93 180
Width: 1425
VWidth: 0
Flags: HW
LayerCount: 2
Fore
SplineSet
296 -169 m 5
 130 -165 l 5
 128 29 l 5
 133 196 l 5
 545 214 l 5
 546 446 565 879 573 1239 c 5
 182 1241 l 5
 182 1604 l 5
 1307 1604 l 5
 1314 1550 1314 1487 1314 1427 c 4
 1314 1252 1296 901 1288 596 c 6
 1269 -161 l 5
 1088 -161 l 5
 592 -165 l 5
 480 -167 364 -169 296 -169 c 5
EndSplineSet
EndChar

StartChar: breve
Encoding: 340 728 181
Width: 834
VWidth: 0
Flags: HW
LayerCount: 2
Fore
SplineSet
396 1339 m 0
 489 1339 529 1377 529 1463 c 1
 738 1465 l 1
 738 1251 584 1151 382 1151 c 0
 215 1151 74 1249 74 1394 c 0
 74 1416 77 1440 84 1465 c 1
 285 1465 l 1
 285 1461 282 1448 282 1434 c 0
 282 1392 311 1339 396 1339 c 0
EndSplineSet
EndChar

StartChar: brokenbar
Encoding: 101 166 182
Width: 725
VWidth: 0
Flags: HW
LayerCount: 2
Fore
SplineSet
129 -15 m 1
 154 612 l 1
 154 668 l 1
 505 668 l 1
 484.846804436 -12.9658711593 l 1
 447 -15 l 1
 129 -15 l 1
159 894 m 1
 184 1521 l 1
 184 1577 l 1
 535 1577 l 1
 514.846804436 896.034128841 l 1
 477 894 l 1
 159 894 l 1
EndSplineSet
EndChar

StartChar: bullet
Encoding: 366 8226 183
Width: 1017
VWidth: 0
Flags: HW
LayerCount: 2
Fore
SplineSet
474 299 m 0
 222 299 91 486 91 685 c 0
 91 937 306 1106 557 1106 c 0
 773 1106 927 944 927 740 c 0
 927 464 722 299 474 299 c 0
EndSplineSet
EndChar

StartChar: c
Encoding: 67 99 184
Width: 1638
VWidth: 0
Flags: HW
LayerCount: 2
Fore
SplineSet
1020 -37 m 0
 603 -37 119 81 119 492 c 0
 119 921 552 1070 993 1070 c 0
 1165 1070 1339 1047 1488 1010 c 1
 1463 689 l 1
 1378 705 1265 718 1153 718 c 0
 945 718 742 672 742 513 c 0
 742 389 851 300 1103 300 c 0
 1184 300 1321 309 1433 328 c 1
 1440 13 l 1
 1330 -16 1196 -37 1020 -37 c 0
EndSplineSet
EndChar

StartChar: caron
Encoding: 339 711 185
Width: 1094
VWidth: 0
Flags: HW
LayerCount: 2
Fore
SplineSet
733 1833 m 1
 733 1836 l 1
 740 1836 757.86188482 1833.02810076 790 1813 c 0
 826.86188482 1790.02810076 960 1730 960 1703 c 0
 960 1701 960 1700 959 1699 c 1
 960 1697 961 1694 961 1692 c 0
 961 1684 952.697694783 1674.26746426 937 1657 c 0
 812.697694783 1520.26746426 695 1383 580 1249 c 0
 577 1246 574 1245 571 1245 c 2
 420 1245 l 2
 417 1245 410 1245 408 1247 c 1
 406 1247 218 1528 138 1657 c 0
 133 1665 131 1671 131 1677 c 0
 131 1682 133 1686 135 1689 c 1
 134 1690 134 1690 134 1691 c 0
 134 1725 362 1836 385 1836 c 0
 389 1836 390.638118756 1829.40916259 399 1812 c 2
 521 1558 l 1
 592 1650 664 1739 733 1833 c 1
EndSplineSet
EndChar

StartChar: cedilla
Encoding: 117 184 187
Width: 545
VWidth: 0
Flags: HW
LayerCount: 2
Fore
SplineSet
337 -156 m 0
 478 -156 531 -243 531 -365 c 0
 531 -532 399 -610 255 -610 c 0
 174 -610 89 -585 21 -537 c 1
 61 -394 l 1
 125 -433 176 -448 217 -448 c 0
 286 -448 320 -403 320 -355 c 0
 320 -323 300 -294 250 -287 c 2
 91 -266 l 1
 154 -17 l 1
 333 -17 l 1
 285 -159 l 1
 303 -157 321 -156 337 -156 c 0
EndSplineSet
EndChar

StartChar: cent
Encoding: 97 162 188
Width: 1613
VWidth: 0
Flags: HW
LayerCount: 2
Fore
SplineSet
932 -242 m 1
 1018 1244 l 1
 1175 1244 l 1
 1082 -245 l 1
 932 -242 l 1
EndSplineSet
Refer: 184 99 N 1 0 0 1 0 0 2
EndChar

StartChar: circumflex
Encoding: 338 710 189
Width: 1104
VWidth: 0
Flags: HW
LayerCount: 2
Fore
SplineSet
380 1246 m 1
 380 1243 l 1
 374 1243 356.131949926 1245.99369312 326 1265 c 0
 291.131949926 1286.99369312 165 1343 165 1369 c 0
 165 1371 165 1372 166 1373 c 1
 165 1375 164 1377 164 1379 c 0
 164 1387 172.241819556 1395.78836239 187 1412 c 0
 304.241819556 1540.78836239 416 1672 524 1798 c 0
 527 1801 530 1803 533 1803 c 0
 535 1803 537 1802 538 1801 c 1
 686 1801 l 2
 688 1801 866 1534 941 1412 c 0
 946 1404 948 1398 948 1393 c 0
 948 1388 947 1385 945 1382 c 1
 946 1381 945 1381 945 1380 c 0
 945 1348 728.780091776 1241.41546064 706.780091776 1241.41546064 c 1
 580 1506 l 1
 513 1419 445 1335 380 1246 c 1
EndSplineSet
EndChar

StartChar: colon
Encoding: 26 58 190
Width: 820
VWidth: 0
Flags: HW
LayerCount: 2
Fore
SplineSet
642.995757644 414.53312274 m 1
 637 4 l 1
 502 0 371 -1 261 -1 c 2
 201 -1 l 1
 199 71 l 1
 199 411 l 1
 642.995757644 414.53312274 l 1
642.995757644 1111.53312274 m 1
 637 701 l 1
 502 697 371 696 261 696 c 2
 201 696 l 1
 199 768 l 1
 199 1108 l 1
 642.995757644 1111.53312274 l 1
EndSplineSet
EndChar

StartChar: comma
Encoding: 12 44 191
Width: 652
VWidth: 0
Flags: HW
LayerCount: 2
Fore
SplineSet
164 -331 m 0
 142 -331 122 -329 104 -324 c 1
 120 -171 l 1
 218 -158 253 -88 267 -13 c 1
 128 -13 l 1
 161 347 l 1
 570 347 l 1
 549 18 l 2
 533 -235 305 -331 164 -331 c 0
EndSplineSet
EndChar

StartChar: copyright
Encoding: 104 169 192
Width: 2072
VWidth: 0
Flags: HW
LayerCount: 2
Fore
SplineSet
1330 322 m 1
 1251 271 1161 246 1072 246 c 0
 840 246 611 409 594 675 c 0
 576 966 776 1196 1064 1196 c 0
 1217 1196 1295 1151 1334 1119 c 1
 1334 1114 l 1
 1336 1088 1355 963 1359 899 c 1
 1335 899 l 1
 1305 917 1223 974 1105 974 c 0
 963 974 877.470243771 852.966180918 888 688 c 0
 898.470243771 523.966180918 1019 450 1145 450 c 0
 1201 450 1258 465 1307 493 c 1
 1322 493 l 1
 1326 430 1333 322 1330 322 c 1
983 108 m 0
 1380 108 1693 355 1693 729 c 0
 1693 1054.31842096 1436.61476238 1306 1085 1306 c 0
 702 1306 383 1069 383 709 c 0
 383 383.966053954 617.416918434 108 983 108 c 0
1098 1493 m 0
 1565.65388769 1493 1910 1169.22557722 1910 749 c 0
 1910 265 1491 -55 960 -55 c 0
 475.510074248 -55 158 300.216042883 158 719 c 0
 158 1186 586 1493 1098 1493 c 0
EndSplineSet
EndChar

StartChar: currency
Encoding: 99 164 193
Width: 1277
VWidth: 0
Flags: HW
LayerCount: 2
Fore
SplineSet
983 831 m 0
 983 972 894 1110 713 1110 c 0
 524 1110 426 959 426 812 c 0
 426 672 514 536 695 536 c 0
 887 536 983 685 983 831 c 0
458 390 m 1
 340 244 l 1
 166 395 l 1
 281 528 l 1
 216 614 183 713 183 812 c 0
 183 915 219 1018 290 1105 c 1
 163 1247 l 1
 352 1394 l 1
 482 1247 l 1
 555 1281 635 1297 713 1297 c 0
 799 1297 882 1278 952 1243 c 1
 1097 1404 l 1
 1276 1253 l 1
 1131 1087 l 1
 1192 1019 1223 920 1223 821 c 0
 1223 724 1193 626 1133 555 c 1
 1262 438 l 1
 1123 268 l 1
 963 408 l 1
 883 357 785 337 694 337 c 0
 600 337 513 358 458 390 c 1
EndSplineSet
EndChar

StartChar: d
Encoding: 68 100 194
Width: 1898
VWidth: 0
Flags: HW
LayerCount: 2
Fore
SplineSet
1344 220 m 1
 1242 84 1095 -37 766 -37 c 0
 404 -37 119 173 119 482 c 0
 119 874 474 1070 820 1070 c 0
 971 1070 1117 1015 1214 942 c 1
 1217 1056 1223 1194 1226 1309 c 0
 1226 1346 1231 1409 1232 1425 c 1
 1328 1428 1688 1445 1749 1445 c 2
 1752 1445 l 1
 1752 38 l 1
 1729 26 1569 9 1475 -15 c 1
 1425 73 1381 146 1344 220 c 1
1188 509 m 0
 1188 632 1108 754 947 754 c 0
 788 754 709 628 709 503 c 0
 709 378 787 254 940 254 c 0
 1104 254 1188 382 1188 509 c 0
EndSplineSet
EndChar

StartChar: dagger
Encoding: 389 8224 195
Width: 1209
VWidth: 0
Flags: HW
LayerCount: 2
Fore
SplineSet
803 0 m 1
 341.767418806 4.00902925651 l 1
 371 757 l 1
 91 757 l 1
 98 1024 l 1
 380 1024 l 1
 387 1211 397 1394 398 1462 c 1
 861 1465 l 1
 842 1028 l 1
 953 1029 1089 1031 1117 1031 c 1
 1108 759 l 2
 1108 758 942 760 833 759 c 1
 803 0 l 1
EndSplineSet
EndChar

StartChar: daggerdbl
Encoding: 365 8225 196
Width: 1215
VWidth: 0
Flags: HW
LayerCount: 2
Fore
SplineSet
817 0 m 1
 355.785987261 4.0076433121 l 1
 366 290 l 1
 87 290 l 1
 94 557 l 1
 377 557 l 1
 385 757 l 1
 105 757 l 1
 112 1024 l 1
 394 1024 l 1
 401 1211 411 1394 412 1462 c 1
 875 1465 l 1
 856 1028 l 1
 967 1029 1103 1031 1131 1031 c 1
 1122 759 l 2
 1122 758 956 760 847 759 c 1
 839 561 l 1
 950 562 1085 564 1113 564 c 1
 1104 292 l 1
 1104 292 978 291 829 291 c 1
 817 0 l 1
EndSplineSet
EndChar

StartChar: degree
Encoding: 111 176 197
Width: 1007
VWidth: 0
Flags: HW
LayerCount: 2
Fore
SplineSet
758 1026 m 0
 758 1107 725 1214 619 1214 c 0
 479 1214 411 1100 411 994 c 0
 411 911 440.961213381 796 557 796 c 0
 695 796 758 912 758 1026 c 0
587 558 m 0
 330 558 131 717 131 990 c 0
 131 1239 340 1448 616 1448 c 0
 860 1448 1050 1284 1050 1035 c 0
 1050 798 873 558 587 558 c 0
EndSplineSet
EndChar

StartChar: dieresis
Encoding: 103 168 198
Width: 1189
VWidth: 0
Flags: HW
LayerCount: 2
Fore
SplineSet
1101 1219 m 1
 721 1219 l 1
 729 1576 l 1
 1101 1576 l 1
 1101 1219 l 1
88.8880872082 1225.00418065 m 2
 102 1576 l 1
 129 1576 l 2
 233 1576 357 1578 457 1578 c 2
 475 1578 l 1
 470 1220 l 1
 323 1220 216 1218 99 1218 c 0
 92 1218 88.6267752215 1218.00905978 88.8880872082 1225.00418065 c 2
EndSplineSet
EndChar

StartChar: divide
Encoding: 179 247 199
Width: 1362
VWidth: 0
Flags: HW
LayerCount: 2
Fore
SplineSet
116.997919913 802.787312866 m 1
 1333 806 l 1
 1331 530 l 1
 96 527 l 1
 116.997919913 802.787312866 l 1
545 -78 m 1
 545 -38 l 1
 561 328 l 1
 976 328 l 1
 954.860846115 -75.9927186921 l 1
 545 -78 l 1
565.846381093 933.005908419 m 2
 581 1327 l 1
 996 1327 l 1
 963.02938415 928.99756581 l 1
 850.02938415 927.99756581 706 926 577 926 c 0
 569 926 565.577349238 926.011080197 565.846381093 933.005908419 c 2
EndSplineSet
EndChar

StartChar: dollar
Encoding: 4 36 200
Width: 1593
VWidth: 0
Flags: HW
LayerCount: 2
Fore
SplineSet
1212 1593 m 1
 1190 1385 l 1
 1314 1385 1409 1374 1469 1365 c 1
 1510 1065 l 1
 1501 1065 1421 1081 1338 1081 c 0
 1247 1081 1153 1061 1153 980 c 0
 1153 823 1471 766 1471 496 c 0
 1471 344 1297 230 1059 161 c 1
 1055 115 1036 -52 1029 -152 c 1
 1024 -152 l 2
 987 -152 859 -161 817 -162 c 1
 836 119 l 1
 673 85 l 1
 651 -157 l 1
 571 -159 445 -161 433 -161 c 1
 450 54 l 1
 361 39 263 27 122 27 c 1
 165 326 l 1
 440 342 448 398 448 481 c 0
 448 555 251 764 251 967 c 0
 251 1093 297 1217 544 1305 c 1
 562 1550 l 1
 795 1570 l 1
 774 1357 l 1
 952 1376 l 1
 981 1582 l 1
 1212 1593 l 1
EndSplineSet
EndChar

StartChar: dotaccent
Encoding: 341 729 201
Width: 579
VWidth: 0
Flags: HW
LayerCount: 2
Fore
SplineSet
73 1396 m 2
 73 1400 l 1
 84 1652 71 1438 88 1727 c 0
 90 1771 92.6689498788 1788 117 1788 c 0
 234 1788 369 1789 482 1790 c 0
 494 1790 504.68757132 1784.92490695 503 1766 c 2
 475 1452 l 1
 470 1408 470.145868647 1392.72886576 445 1392 c 0
 332.145868647 1388.72886576 213 1389 84 1389 c 0
 76 1389 73 1389 73 1396 c 2
EndSplineSet
EndChar

StartChar: dotlessi
Encoding: 231 305 202
Width: 944
VWidth: 0
Flags: HW
LayerCount: 2
Fore
SplineSet
205 1020 m 1
 386 1032 589 1035 779 1023 c 1
 737.422311742 1.06418860151 l 1
 701.422311742 -1.93581139849 261 2 157 4 c 1
 157 55 165.804624794 208.930186468 174 416 c 0
 180.804624794 587.930186468 200 965 205 1020 c 1
EndSplineSet
EndChar

StartChar: e
Encoding: 69 101 203
Width: 1636
VWidth: 0
Flags: HW
LayerCount: 2
Fore
SplineSet
1048 626 m 1
 1046 758 982 798 882 798 c 0
 764 798 702 718 687 628 c 1
 1048 626 l 1
878 -36 m 0
 511 -36 114 73 114 476 c 0
 114 947 522 1070 867 1070 c 0
 1139 1070 1489 947 1489 605 c 0
 1489 599 1489 592 1489 586 c 0
 1489 576 1488 574 1487 563 c 2
 1478 440 l 1
 667 444 l 1
 699 323 829 250 1013 249 c 0
 1126 249 1260 276 1405 336 c 1
 1459 336 l 1
 1440 82 l 1
 1361 22 1131 -36 878 -36 c 0
EndSplineSet
EndChar

StartChar: eight
Encoding: 24 56 208
Width: 2099
VWidth: 0
Flags: HW
LayerCount: 2
Fore
SplineSet
1112 1226 m 0
 1035 1226 959 1178 959 1075 c 0
 959 987 1039 940 1118 940 c 0
 1196 940 1272 985 1272 1083 c 0
 1272 1175 1192 1226 1112 1226 c 0
1302 471 m 0
 1302 559 1245 647 1136 647 c 0
 1005 647 936 554 936 463 c 0
 936 377 997 294 1126 294 c 0
 1245 294 1302 383 1302 471 c 0
1103 1481 m 0
 1481 1481 1857 1429 1857 1129 c 0
 1857 1002 1768 900 1669 839 c 1
 1825 757 1951 645 1951 442 c 0
 1951 101 1600 -45 1071 -45 c 0
 639 -45 198 57 198 427 c 0
 198 648 367 741 554 817 c 1
 408 887 357 980 357 1082 c 0
 357 1392 728 1481 1103 1481 c 0
EndSplineSet
EndChar

StartChar: ellipsis
Encoding: 390 8230 209
Width: 1771
VWidth: 0
Flags: HW
LayerCount: 2
Fore
SplineSet
1252 -42 m 2
 1252 -38 l 1
 1263 214 1250 0 1267 289 c 0
 1269 333 1271.66894988 350 1296 350 c 0
 1413 350 1548 351 1661 352 c 0
 1673 352 1683.68757132 346.924906949 1682 328 c 2
 1654 14 l 1
 1649 -30 1649.14586865 -45.2711342421 1624 -46 c 0
 1511.14586865 -49.2711342421 1392 -49 1263 -49 c 0
 1255 -49 1252 -49 1252 -42 c 2
673 -42 m 2
 673 -38 l 1
 684 214 671 0 688 289 c 0
 690 333 692.668949879 350 717 350 c 0
 834 350 969 351 1082 352 c 0
 1094 352 1104.68757132 346.924906949 1103 328 c 2
 1075 14 l 1
 1070 -30 1070.14586865 -45.2711342421 1045 -46 c 0
 932.145868647 -49.2711342421 813 -49 684 -49 c 0
 676 -49 673 -49 673 -42 c 2
94 -42 m 2
 94 -38 l 1
 105 214 92 0 109 289 c 0
 111 333 113.668949879 350 138 350 c 0
 255 350 390 351 503 352 c 0
 515 352 525.68757132 346.924906949 524 328 c 2
 496 14 l 1
 491 -30 491.145868647 -45.2711342421 466 -46 c 0
 353.145868647 -49.2711342421 234 -49 105 -49 c 0
 97 -49 94 -49 94 -42 c 2
EndSplineSet
EndChar

StartChar: emdash
Encoding: 358 8212 210
Width: 1409
VWidth: 0
Flags: HW
LayerCount: 2
Fore
SplineSet
1016.99432675 524 m 1
 83.010556553 516.75432675 l 1
 96 814 l 1
 705 814 l 2
 752 813.922851562 1259 820 1275 820 c 1
 1255 524 l 1
 1016.99432675 524 l 1
EndSplineSet
EndChar

StartChar: endash
Encoding: 357 8211 211
Width: 1031
VWidth: 0
Flags: HW
LayerCount: 2
Fore
SplineSet
591 522 m 2
 246 517 l 1
 99 517 l 1
 112 784 l 1
 931.978515625 790.01171875 l 1
 930 523 l 1
 790 523 l 2
 723 523 643 522 591 522 c 2
EndSplineSet
EndChar

StartChar: equal
Encoding: 29 61 212
Width: 979
VWidth: 0
Flags: HW
LayerCount: 2
Fore
SplineSet
444 257 m 0
 282 257 139 258 98 258 c 1
 104 572 l 1
 590 572 l 1
 872 576 l 1
 874 260 l 1
 747 257 590 257 444 257 c 0
235 765 m 2
 96 765 l 1
 113.832412918 1075.00963996 l 1
 423 1075.00963996 l 1
 887 1078 l 1
 876 774 l 1
 619 769 345 765 235 765 c 2
EndSplineSet
EndChar

StartChar: eth
Encoding: 172 240 213
Width: 1829
VWidth: 0
Flags: HW
LayerCount: 2
Fore
SplineSet
945 265 m 0
 1079 265 1161 340 1161 474 c 0
 1161 557 1130 662 1062 786 c 1
 1017 798 997 803 963 803 c 0
 767 803 695 691 695 563 c 0
 695 355 824 265 945 265 c 0
888 -52 m 0
 302 -52 102 253 102 549 c 0
 102 871 422 1082 822 1082 c 0
 866 1082 911 1079 957 1074 c 1
 921 1136 844 1245 792 1282 c 1
 538 1210 l 1
 395 1366 l 2
 395 1367 395 1368 396 1368 c 2
 662 1441 l 1
 623 1494 464 1634 446 1652 c 1
 536 1672 753 1710 779 1710 c 2
 781 1710 l 1
 831 1680 942 1620 1018 1551 c 1
 1322 1618 l 1
 1472 1470 l 1
 1178 1403 l 1
 1566 1070 1711 822 1711 550 c 0
 1711 312 1590 -52 888 -52 c 0
EndSplineSet
EndChar

StartChar: exclam
Encoding: 1 33 214
Width: 1179
VWidth: 0
Flags: HW
LayerCount: 2
Fore
SplineSet
723 -1 m 1
 698 -6 410 -3 237 -3 c 1
 276 385 l 1
 405 388 622 378 759 378 c 1
 756 339 735 113 723 -1 c 1
1118 1637 m 1
 705 570 l 1
 369 570 l 1
 319 1601 l 1
 320 1626 333 1634 352 1634 c 0
 432 1634 700 1637 909 1637 c 2
 1118 1637 l 1
EndSplineSet
EndChar

StartChar: f
Encoding: 70 102 216
Width: 1393
VWidth: 0
Flags: HW
LayerCount: 2
Fore
SplineSet
891 -4 m 1
 385 -8 l 2
 354 -8 324 -7 294 -5 c 1
 293 22 290 51 290 84 c 0
 292 215 306 478 322 745 c 1
 182 745 l 2
 127 745 131 743 104 750 c 1
 106 799 118 924 126 981 c 1
 335 981 l 1
 352 1356 660 1519 1112 1519 c 0
 1205 1519 1305 1512 1410 1498 c 1
 1410 1358 1403 1244 1398 1176 c 1
 1342 1184 1295 1188 1254 1188 c 0
 1007 1188 952 1102 922 981 c 1
 1166 981 l 2
 1227 981 1290 979 1350 971 c 1
 1350 925 1342 819 1331 747 c 1
 921 747 l 1
 910 514 894 274 894 124 c 1
 891 -4 l 1
EndSplineSet
EndChar

StartChar: five
Encoding: 21 53 217
Width: 1554
VWidth: 0
Flags: HW
LayerCount: 2
Fore
SplineSet
161 -45 m 1
 163 371 l 2
 163 379 760 368 760 568 c 0
 760 697 445 703 230 703 c 1
 226 749 l 1
 265 1439 l 1
 1394 1443 l 1
 1387 1235 l 2
 1383 1114 1128 1098 945 1098 c 0
 875 1098 815 1100 784 1100 c 1
 784 973 l 1
 1204 927 1441 864 1441 559 c 0
 1441 6 827 -45 161 -45 c 1
EndSplineSet
EndChar

StartChar: florin
Encoding: 391 402 218
Width: 1438
VWidth: 0
Flags: HW
LayerCount: 2
Fore
SplineSet
357 245 m 2
 389 745 l 1
 249 745 l 2
 194 745 219 747 192 754 c 1
 206 981 l 1
 415 981 l 1
 453 1368 711 1518 1110 1518 c 0
 1196 1518 1289 1511 1387 1498 c 1
 1385 1176 l 1
 1329 1182 1282 1186 1243 1186 c 0
 1074 1186 1045 1124 1002 981 c 1
 1359 981 l 1
 1329 747 l 1
 989 747 l 1
 962 264 l 2
 938 -179 680 -348 391 -348 c 0
 276 -348 157 -321 45 -274 c 1
 58 -73 l 1
 93 -80 124 -83 151 -83 c 0
 335 -83 346 69 357 245 c 2
EndSplineSet
EndChar

StartChar: four
Encoding: 20 52 219
Width: 1956
VWidth: 0
Flags: HW
LayerCount: 2
Fore
SplineSet
723 568 m 1
 944 568 l 1
 1013 1032 l 1
 723 568 l 1
1893.51446503 547.928707094 m 2
 1855 270 l 1
 1845 239 1874 231 1763 231 c 2
 1630 231 l 1
 1612.8814528 -4.99140072106 l 1
 878.635340492 -11.9549994649 l 1
 908 226 l 1
 135 226 l 2
 99 226 79 241 79 261 c 0
 79 267 80.005540881 272.61072395 84 278 c 2
 946 1441 l 1
 1660.99907501 1444.20627388 l 2
 1691.99907501 1444.20627388 1705.08759971 1433.91984158 1703.44212447 1407.97196284 c 2
 1651 581 l 1
 1800 582 1815 585 1832 585 c 0
 1860.16025568 585 1897.49515177 576.654203313 1893.51446503 547.928707094 c 2
EndSplineSet
EndChar

StartChar: fraction
Encoding: 369 8260 220
Width: 1341
VWidth: 0
Flags: HW
LayerCount: 2
Fore
SplineSet
1238 1486 m 1
 457 -123 l 2
 424 -182 l 1
 56 -164 l 2
 44 -164 l 1
 232 212 406 580 598 970 c 1
 926 1630 l 1
 1301 1619 l 1
 1265 1549 l 2
 1238 1486 l 1
EndSplineSet
EndChar

StartChar: g
Encoding: 71 103 221
Width: 1900
VWidth: 0
Flags: HW
LayerCount: 2
Fore
SplineSet
760 -554 m 0
 604 -554 452 -529 325 -476 c 1
 378 -168 l 1
 425 -168 l 1
 513 -196 627 -218 738 -218 c 0
 938 -218 1128 -148 1141 74 c 1
 1041 19 909 -10 772 -10 c 4
 456 -10 119 153 119 491 c 0
 119 810 417 1070 794 1070 c 0
 972 1070 1108 1019 1219 944 c 1
 1229 1047 l 1
 1666 1013 l 1
 1763 1006 l 1
 1708 19 l 1
 1691 -345 1209 -554 760 -554 c 0
701 496 m 0
 701 376 772 259 912 259 c 0
 1101 259 1171 386 1171 512 c 0
 1171 636 1103 760 945 760 c 0
 782 760 701 626 701 496 c 0
EndSplineSet
EndChar

StartChar: germandbls
Encoding: 155 223 223
Width: 2121
VWidth: 0
Flags: HW
LayerCount: 2
Fore
SplineSet
942 -112 m 1
 859 189 l 1
 1115 232 1225 331 1225 423 c 0
 1225 518 1107 607 913 621 c 1
 913 810 l 1
 1165 848 1268 948 1268 1027 c 0
 1268 1089 1206 1139 1105 1139 c 0
 1026 1139 841 1106 824 958 c 2
 745 257 l 1
 717 -26 l 1
 167 14 l 1
 121 22 l 1
 146 337 l 2
 207 1111 279 1444 1136 1464 c 0
 1587 1475 1892 1348 1892 1107 c 0
 1892 1006 1835 868 1613 803 c 1
 1858 766 2008 618 2008 464 c 0
 2008 112 1509 -92 942 -112 c 1
EndSplineSet
EndChar

StartChar: grave
Encoding: 64 96 224
Width: 664
VWidth: 0
Flags: HW
LayerCount: 2
Fore
SplineSet
595 1251 m 1
 470 1206 l 1
 442 1195 l 1
 25 1560 l 1
 86 1579 367 1670 372 1670 c 2
 375 1670 l 1
 595 1251 l 1
EndSplineSet
EndChar

StartChar: greater
Encoding: 30 62 225
Width: 1051
VWidth: 0
Flags: HW
LayerCount: 2
Fore
SplineSet
1053 742 m 0
 1053 741 1052 740 1052 737 c 0
 1040 625 1032 522.079176886 1032 421 c 0
 1032 394 1019.35350673 389.080853003 978 365 c 2
 322 -17 l 1
 303 -25 295 -29 284 -29 c 0
 269 -29 264 -23 259 -10 c 0
 220 94 186 201 134 301 c 0
 133 305 132 309 132 313 c 0
 132 318 133 321 140 324 c 0
 209 360 551 531 596 555 c 1
 156 717 l 1
 148 718 144 725 144 740 c 1
 168 840 173.976529474 958.132436004 183 1061 c 0
 183.976529474 1072.132436 190 1077 199 1077 c 0
 208 1077 223.580677279 1075.73356409 244 1068 c 0
 524.580677279 961.733564087 907 825 1040 761 c 1
 1048 761 1052 752 1053 742 c 0
EndSplineSet
EndChar

StartChar: guillemotleft
Encoding: 106 171 226
Width: 2032
VWidth: 0
Flags: HW
LayerCount: 2
Fore
SplineSet
956 825 m 1
 1071 889 1400 1022 1639 1131 c 1
 1657 1135 1669 1138 1677 1138 c 0
 1684 1138 1689 1133 1690 1123 c 2
 1712 804 l 1
 1712 788 1708 782 1701 781 c 1
 1324 621 l 1
 1361 597 1645 426 1701 392 c 0
 1705 389 1709.33072378 383.498818316 1709.33072378 379.498818316 c 1
 1589 60 l 2
 1585 47 1578 41 1567 41 c 0
 1558 41 1549.64211621 42.7234036262 1535 53 c 2
 995 432 l 1
 959 453 951 461 951 489 c 2
 951 549 l 2
 951 629 951 712 945 802 c 0
 945 804 944 805 944 806 c 0
 946 815 949 825 956 825 c 1
120 825 m 1
 235 889 561.969416283 1025.02157214 803 1131 c 0
 819.067540883 1138.06471642 833 1138 842 1138 c 0
 849 1138 854.330105724 1133.17601305 855 1123 c 2
 876 804 l 1
 876 788 872 782 865 781 c 1
 489 621 l 1
 524 597 809 426 865 392 c 0
 869 389 873.299373664 383.514844249 873.299373664 379.514844249 c 1
 754 60 l 2
 750 47 743 41 731 41 c 0
 722 41 713.642116205 42.7234036262 699 53 c 2
 159 432 l 1
 122 453 115 461 115 489 c 2
 115 549 l 2
 115 629 114 712 109 802 c 0
 109 804 108 805 108 806 c 0
 110 815 113 825 120 825 c 1
EndSplineSet
EndChar

StartChar: guillemotright
Encoding: 119 187 227
Width: 2011
VWidth: 0
Flags: HW
LayerCount: 2
Fore
SplineSet
1022.11119564 842.019688704 m 2
 1015 521 l 2
 1015 494 1001.59536265 490.338045142 961 465 c 2
 365 93 l 1
 346 85 338 81 327 81 c 0
 312 81 307 87 302 100 c 2
 177 411 l 2
 176 415 175 419 175 423 c 0
 175 428 176 431 183 434 c 0
 252 470 534 631 579 655 c 1
 199 827 l 1
 191 828 185.190873541 835.109497609 187 850 c 2
 226 1171 l 2
 228 1182 233 1187 242 1187 c 0
 251 1187 266.580677279 1185.73356409 287 1178 c 0
 567.580677279 1071.73356409 877 925 1010 861 c 1
 1018 861 1022.33376486 852.067099462 1022.11119564 842.019688704 c 2
1945 812 m 2
 1945 541 l 2
 1945 514 1930.24711771 502.670629756 1891 475 c 2
 1335 83 l 1
 1316 75 1308 71 1297 71 c 0
 1282 71 1277 77 1272 90 c 2
 1147 401 l 2
 1146 405 1145 409 1145 413 c 0
 1145 418 1146 421 1153 424 c 0
 1222 460 1444 631 1489 655 c 1
 1159 817 l 1
 1151 818 1145.19087354 825.109497609 1147 840 c 2
 1186 1161 l 2
 1188 1172 1193 1177 1202 1177 c 0
 1211 1177 1226.58067728 1175.73356409 1247 1168 c 0
 1527.58067728 1061.73356409 1800.47130017 923.874188726 1933 859 c 0
 1943.47130017 853.874188726 1945 822.049875621 1945 812 c 2
EndSplineSet
EndChar

StartChar: guilsinglleft
Encoding: 367 8249 228
Width: 1049
VWidth: 0
Flags: HW
LayerCount: 2
Fore
SplineSet
81 761 m 1
 214 825 596.419322721 961.733564087 877 1068 c 0
 897.419322721 1075.73356409 913 1077 922 1077 c 0
 931 1077 937.023470526 1072.132436 938 1061 c 0
 947.023470526 958.132436004 953 840 977 740 c 1
 977 725 973 718 965 717 c 1
 525 555 l 1
 570 531 912 360 981 324 c 0
 986 321 989 317 989 313 c 0
 989 309 988 305 987 301 c 1
 931 201 899 94 862 -10 c 0
 857 -23 849 -29 837 -29 c 0
 826 -29 816.815132918 -27.374056059 799 -17 c 2
 143 365 l 1
 100 386 89 394 89 421 c 0
 89 522.079176886 81 625 69 737 c 0
 69 740 68 741 68 742 c 0
 69 752 73 761 81 761 c 1
EndSplineSet
EndChar

StartChar: guilsinglright
Encoding: 368 8250 229
Width: 1048
VWidth: 0
Flags: HW
LayerCount: 2
Fore
SplineSet
981 737 m 1
 971 411 l 1
 907 365 l 1
 251 -17 l 1
 232 -25 224 -29 213 -29 c 0
 63 301 l 0
 62 305 61 309 61 313 c 0
 61 318 62 321 69 324 c 0
 138 360 480 531 525 555 c 1
 85 717 l 1
 112 1061 l 1
 114 1072 119 1077 128 1077 c 0
 137 1077 152 1074 173 1068 c 1
 431.190954774 962.110749186 784.359296482 829.749185668 907 767 c 1
 981 737 l 1
EndSplineSet
EndChar

StartChar: h
Encoding: 72 104 230
Width: 1931
VWidth: 0
Flags: HW
LayerCount: 2
Fore
SplineSet
1794 1 m 1
 1294 -3 l 1
 1191 -3 l 1
 1191 -2 l 1
 1212 521 l 1
 1212 597 1180 708 991 708 c 0
 827 708 738 622 738 247 c 2
 738 11 l 1
 708 7 672 3 629 1 c 1
 135 -1 l 1
 132 32 131 60 131 96 c 1
 178 1430 l 1
 223 1432 286 1436 640 1470 c 1
 678 1471 719 1477 756 1477 c 1
 764 1453 767 1424 767 1392 c 0
 767 1312 752 1033 747 936 c 5
 933 1029 1108 1070 1260 1070 c 4
 1589 1070 1812 875 1812 607 c 2
 1812 592 l 1
 1794 1 l 1
EndSplineSet
EndChar

StartChar: hungarumlaut
Encoding: 345 733 231
Width: 1092
VWidth: 0
Flags: HW
LayerCount: 2
Fore
SplineSet
226 1159 m 1
 89 1241 l 1
 240 1690 l 1
 488 1528 l 1
 226 1159 l 1
624 1153 m 1
 511 1253 l 1
 511 1255 511 1254 512 1256 c 2
 728 1705 l 1
 978 1521 l 1
 624 1153 l 1
EndSplineSet
EndChar

StartChar: hyphen
Encoding: 13 45 232
Width: 1261
VWidth: 0
Flags: HW
LayerCount: 2
Fore
SplineSet
142 887 m 1
 409 897 908 907 1178 915 c 1
 1178 881 l 2
 1178 853 1153 588 1142 538 c 1
 832 532 364 526 233 526 c 2
 79 526 l 1
 142 887 l 1
EndSplineSet
EndChar

StartChar: i
Encoding: 73 105 233
Width: 944
VWidth: 0
Flags: HW
LayerCount: 2
Fore
SplineSet
683 1026 m 4
 715 1026 747 1025 779 1023 c 1
 741 89 l 1
 741 82 l 2
 741 62 737 22 739 1 c 1
 564 -2 222 0 157 4 c 1
 157 55 164 209 174 416 c 1
 179 588 200 965 205 1010 c 1
 357 1020 524 1026 683 1026 c 4
844 1378 m 0
 828 1255 651 1198 496 1198 c 0
 272 1198 191 1224 191 1385 c 0
 191 1475 289 1605 610 1605 c 0
 773 1605 861 1511 844 1378 c 0
EndSplineSet
EndChar

StartChar: j
Encoding: 74 106 238
Width: 1087
VWidth: 0
Flags: HW
LayerCount: 2
Fore
SplineSet
-63 -438 m 2
 -63 -415 -28 -146 -28 -119 c 1
 10 -121 47 -123 80 -123 c 0
 235 -123 340 -85 353 184 c 0
 367 454 374 677 380 1000 c 1
 420 1003 753 1026 903 1026 c 4
 926 1026 946 1025 965 1023 c 1
 936 103 l 1
 915 -310 677 -448 267 -448 c 0
 174 -448 -30 -441 -63 -439 c 1
 -63 -438 l 2
1026 1410 m 0
 1026 1263 858 1198 676 1198 c 0
 452 1198 371 1254 371 1415 c 0
 371 1500 458 1606 738 1606 c 0
 923 1606 1026 1546 1026 1410 c 0
EndSplineSet
EndChar

StartChar: k
Encoding: 75 107 239
Width: 1768
VWidth: 0
Flags: HW
LayerCount: 2
Fore
SplineSet
1156 -28 m 1
 1071 40 902 298 803 412 c 1
 718 342 l 1
 704 102 l 6
 701 -2 l 6
 130 -11 l 1
 135 122 l 1
 188 1318 l 1
 195 1363 195 1407 195 1454 c 1
 392 1465 673 1482 778 1481 c 1
 771 1372 l 1
 758 1111 l 2
 750 967 741 817 738 709 c 1
 912 872 l 2
 958 916 1001 958 1027 978 c 1
 1599 989 l 2
 1641 989 1681 988 1720 987 c 1
 1631 907 l 1
 1384 671 l 1
 1345 638 1302 602 1258 561 c 1
 1396 415 1529 255 1640 132 c 1
 1677 97 1707 61 1742 27 c 1
 1156 -28 l 1
EndSplineSet
EndChar

StartChar: l
Encoding: 76 108 240
Width: 892
VWidth: 0
Flags: HW
LayerCount: 2
Fore
SplineSet
146 -17 m 1
 176 928 l 1
 183 1095 195 1436 195 1438 c 5
 283 1443 595 1456 786 1466 c 1
 762.561985276 981.694713357 749.237174667 487.276222599 729.761352787 -0.991256888109 c 1
 146 -17 l 1
EndSplineSet
EndChar

StartChar: less
Encoding: 28 60 241
Width: 1076
VWidth: 0
Flags: HW
LayerCount: 2
Fore
SplineSet
128 761 m 1
 261 825 643.419322721 961.733564087 924 1068 c 0
 944.419322721 1075.73356409 960 1077 969 1077 c 0
 978 1077 984.023470526 1072.132436 985 1061 c 0
 994.023470526 958.132436004 1000 840 1024 740 c 1
 1024 725 1020 718 1012 717 c 1
 572 555 l 1
 617 531 959 360 1028 324 c 0
 1033 321 1036 317 1036 313 c 0
 1036 309 1035 305 1034 301 c 1
 978 201 946 94 909 -10 c 0
 904 -23 896 -29 884 -29 c 0
 873 -29 863.815132918 -27.374056059 846 -17 c 2
 190 365 l 1
 147 386 136 394 136 421 c 0
 136 522.079176886 128 625 116 737 c 0
 116 740 115 741 115 742 c 0
 116 752 120 761 128 761 c 1
EndSplineSet
EndChar

StartChar: logicalnot
Encoding: 107 172 242
Width: 1216
VWidth: 0
Flags: HW
LayerCount: 2
Fore
SplineSet
603 374 m 1
 284 367 l 1
 113 367 l 1
 140 732 l 1
 606 736 l 1
 772 740 922 741 964 741 c 2
 1051 741 l 1
 1045 539 l 1
 1045 482 1024 113 1022 83 c 1
 737 90 l 1
 713.352410284 93.0429816183 l 1
 732 374 l 1
 603 374 l 1
EndSplineSet
EndChar

StartChar: lslash
Encoding: 245 322 243
Width: 892
VWidth: 0
Flags: HW
LayerCount: 2
Fore
SplineSet
767.72667026 1035.28934051 m 1
 860.718479454 1061.50290821 938.168006142 1083.34155468 983 1096 c 1
 983 1049 999 783 997 739 c 1
 979.971573858 735.594314772 882.680199946 708.063350445 754.384240763 671.101662632 c 1
 729.761352787 -0.991256888109 l 1
 146 -17 l 1
 162.3802235 498.977040241 l 1
 101.494682784 481.227492762 51.0691943642 466.549393025 18 457 c 1
 -3 818 l 1
 36.485193065 829.15400934 98.9617097526 846.777438748 174.094021787 867.96168628 c 1
 176 928 l 1
 183 1095 195 1436 195 1438 c 1
 283 1443 595 1456 786 1466 c 1
 779 1343 l 1
 767.72667026 1035.28934051 l 1
EndSplineSet
EndChar

StartChar: m
Encoding: 77 109 244
Width: 2822
VWidth: 0
Flags: HW
LayerCount: 2
Fore
SplineSet
742 -9 m 1
 131 -11 l 1
 137 93 l 1
 147 322 162 961 163 988 c 1
 488 1029 l 1
 595 823 l 1
 721 1009 927 1070 1138 1070 c 0
 1366 1070 1487 999 1593 851 c 1
 1725 1014 1931 1070 2129 1070 c 0
 2503 1070 2703 854 2703 540 c 0
 2703 466 2695 363 2685 -1 c 1
 2570 1 2163 -11 2090 -11 c 1
 2090 499 l 2
 2090 653 2041 759 1893 747 c 0
 1809 740 1711 717 1711 323 c 2
 1711 9 l 1
 1114 -9 l 1
 1114 72 l 2
 1114 234 1124 522 1124 529 c 0
 1124 717 1064 777 937 769 c 0
 745 757 740 564 740 342 c 2
 740 303 l 2
 740 232 742 113 742 -9 c 1
EndSplineSet
EndChar

StartChar: macron
Encoding: 110 175 245
Width: 1389
VWidth: 0
Flags: HW
LayerCount: 2
Fore
SplineSet
269 890 m 1
 1132 908 l 1
 1130 831 1121 687 1118 636 c 2
 1116 602 l 1
 860 594 491.986610464 587.700576543 384 586 c 2
 257 584 l 1
 269 890 l 1
EndSplineSet
EndChar

StartChar: minus
Encoding: 398 8722 246
Width: 1065
VWidth: 0
Flags: HW
LayerCount: 2
Fore
SplineSet
954 517 m 1
 92 517 l 1
 115 733 l 1
 587 733 l 2
 635 733 908 739 925 739 c 2
 973 739 l 1
 973 722 966 648 963 613 c 2
 954 517 l 1
EndSplineSet
EndChar

StartChar: mu
Encoding: 507 956 247
Width: 1277
VWidth: 0
Flags: HW
LayerCount: 2
Fore
SplineSet
678 -420 m 1
 118 -466 l 1
 119 390 118 399 118 407 c 0
 118 430 118 453 119 472 c 1
 119 478 l 1
 121 711 136 822 141 987 c 1
 223 1001 452 1031 598 1031 c 0
 654 1031 701 1027 744 1023 c 1
 735 850 720 518 720 507 c 0
 720 361 779 245 922 245 c 0
 1192 245 1200 568 1200 997 c 1
 1342 1007 1487 1015 1769 1031 c 1
 1770 992 1770 956 1770 918 c 1
 1721 30 l 1
 1647 17 1569 5 1406 -17 c 1
 1310 190 l 1
 1173 33 953 -38 746 -38 c 0
 728 -38 711 -38 694 -37 c 1
 679 -405 l 1
 679 -405 676 -405 678 -420 c 1
EndSplineSet
EndChar

StartChar: multiply
Encoding: 147 215 248
Width: 1130
VWidth: 0
Flags: HW
LayerCount: 2
Fore
SplineSet
751 249 m 1
 548 461 l 1
 324 227 l 1
 131 446 l 1
 357 685 l 1
 279.395739889 770.395739889 195.870263992 849.870263992 116 933 c 1
 354 1140 l 1
 561 903 l 1
 775 1128 l 1
 985 910 l 1
 913.756543745 837.243456255 841.288913507 765.711086493 768 695 c 1
 973 482 l 1
 751 249 l 1
EndSplineSet
EndChar

StartChar: n
Encoding: 78 110 249
Width: 1925
VWidth: 0
Flags: HW
LayerCount: 2
Fore
SplineSet
999 709 m 0
 774 709 733 510 733 303 c 0
 733 232 728 0 728 0 c 1
 131 -10 l 1
 132 90 158 926 159 958 c 1
 494 1029 l 1
 601 823 l 1
 727 1009 972 1070 1183 1070 c 0
 1495 1070 1731.22483811 946.280403533 1794 685 c 0
 1805.22483811 638.280403533 1807 588 1807 540 c 0
 1807 466 1799 361 1789 -3 c 1
 1193 -7 l 1
 1199 469 l 1
 1199 605 1117 709 999 709 c 0
EndSplineSet
EndChar

StartChar: nine
Encoding: 25 57 250
Width: 2024
VWidth: 0
Flags: HW
LayerCount: 2
Fore
SplineSet
1021 1166 m 0
 874 1166 833 1047 833 898 c 0
 833 747 878 662 1011 662 c 0
 1161 662 1199 812 1199 940 c 0
 1199 1072 1155 1166 1021 1166 c 0
1217 -125 m 1
 1167 -114 584 7 556 22 c 1
 651 135 809 318 889 433 c 1
 832 426 810 422 761 422 c 0
 320 422 151 695 151 885 c 0
 151 1255 460 1481 1082 1481 c 0
 1768 1481 1915 1063 1915 890 c 0
 1915 743 1864 623 1728 466 c 2
 1217 -125 l 1
EndSplineSet
EndChar

StartChar: numbersign
Encoding: 3 35 252
Width: 2006
VWidth: 0
Flags: HW
LayerCount: 2
Fore
SplineSet
878 705 m 1
 1118 705 l 1
 1141 839 l 1
 900 840 l 1
 878 705 l 1
94 715 m 1
 369 715 l 1
 385 837 l 1
 99 840 l 1
 129 1097 l 1
 429 1094 l 1
 481 1437 l 1
 986 1442 l 1
 941 1089 l 1
 1183 1087 l 1
 1234 1436 l 1
 1751 1447 l 1
 1696 1088 l 1
 1948 1088 l 1
 1912 842 l 1
 1654 842 l 1
 1632 712 l 1
 1910 712 l 1
 1877 445 l 1
 1586 445 l 1
 1527 -2 l 1
 1023 7 l 1
 1079 451 l 1
 833 453 l 1
 761 3 l 5
 269 12 l 1
 330 455 l 1
 62 455 l 1
 94 715 l 1
EndSplineSet
EndChar

StartChar: o
Encoding: 79 111 253
Width: 1801
VWidth: 0
Flags: HW
LayerCount: 2
Fore
SplineSet
1146 522 m 0
 1146 663 1059 773 899 773 c 0
 735 773 668 631 668 500 c 0
 668 332 742 236 904 236 c 0
 1070.02710622 236 1146 360 1146 522 c 0
114 492 m 0
 114 914 459 1070 945 1070 c 0
 1371 1070 1687 873 1687 526 c 0
 1687 38 1241 -37 888 -37 c 0
 521 -37 114 53 114 492 c 0
EndSplineSet
EndChar

StartChar: oe
Encoding: 259 339 257
Width: 2665
VWidth: 0
Flags: HW
LayerCount: 2
Fore
SplineSet
1146 519 m 1
 1146 522 l 2
 1146 663 1059 773 899 773 c 0
 735 773 668 631 668 500 c 0
 668 332 742 236 904 236 c 0
 1075.02631376 236 1135 355 1146 519 c 1
1901 -38 m 0
 1729 -37 1520 7 1409 96 c 1
 1275 -9 1061 -37 888 -37 c 0
 521 -37 114 53 114 492 c 0
 114 914 459 1070 945 1070 c 0
 1137 1070 1326 1010 1434 914 c 1
 1544 1007.96212121 1747 1072.18939394 1906 1071 c 0
 2178 1069.94588745 2531.68461538 938.204895105 2518.68461538 584.023076923 c 1
 2508 438 l 1
 1697 442 l 1
 1729 321 1859 248 2043 247 c 0
 2156 247 2290 274 2435 334 c 1
 2489 334 l 1
 2470 80 l 1
 2390 19 2157 -39 1901 -38 c 0
1717 624 m 1
 2078 624 l 1
 2076 755 2012 795 1914 796 c 0
 1795 797.011764706 1732 716.070588235 1717 624 c 1
EndSplineSet
EndChar

StartChar: ogonek
Encoding: 343 731 258
Width: 544
VWidth: 0
Flags: HW
LayerCount: 2
Fore
SplineSet
50 -386 m 1
 61 -226 181 -100 304 -17 c 1
 348 -17 456 -17 483 -17 c 1
 451 -50 354 -181 354 -284 c 0
 354 -346 389 -397 495 -412 c 1
 475 -565 l 1
 426 -580 372 -588 320 -588 c 0
 179 -588 50 -529 50 -386 c 1
EndSplineSet
EndChar

StartChar: one
Encoding: 17 49 260
Width: 1293
VWidth: 0
Flags: HW
LayerCount: 2
Fore
SplineSet
332 -25 m 1
 341 18 409 800 437 1051 c 1
 166 1006 l 1
 132 1306 l 1
 1096 1438 l 1
 1096 1438 1096 1437 1095 1436 c 1
 1101 1436 1105 1434 1105 1427 c 2
 1105 1424 l 1
 1115 1423 1117 1416 1117 1402 c 0
 1117 934.2161539 1045.59312079 462.073545875 1009 -7 c 1
 415 -25 l 1
 332 -25 l 1
EndSplineSet
EndChar

StartChar: onehalf
Encoding: 121 189 261
Width: 2358
VWidth: 0
Flags: HW
LayerCount: 2
Fore
SplineSet
2179 624 m 0
 2179 588 2159.79211847 550.866893426 2123 509 c 0
 2101.79211847 484.866893426 2027 405 1953 332 c 2
 1811 191 l 1
 1815 191 l 2
 1853 191 2088 209 2178 209 c 0
 2209 209 2225 204 2225 196 c 0
 2225 186 2212 172 2212 172 c 1
 2076.82257544 15.1529119583 l 1
 2053.82257544 1.15291195828 2032 2 2017 1 c 0
 1710 -2 1633 -3 1459 -3 c 0
 1342 -3 1303 9 1303 30 c 0
 1303 45 1323.14643321 61.905887445 1346 87 c 2
 1448 199 l 2
 1598 364 1660 481 1660 551 c 0
 1660 605 1623 632 1562 632 c 0
 1517 632 1459 617 1393 589 c 2
 1365 577 l 1
 1345 590 l 1
 1362 648 1403 765 1407 773 c 1
 1464 802 1645 845 1818 845 c 0
 2003 845 2179 795 2179 624 c 0
464 95 m 0
 619 342 737 558 944 897 c 0
 1046 1065 1136 1231 1237 1405 c 0
 1258 1442 1265 1454 1289 1454 c 2
 1297 1454 l 1
 1388 1427 1475 1388 1564 1375 c 0
 1574 1373 1584.32182894 1369.20906152 1584.32182894 1362.20906152 c 1
 777 13 l 2
 763 -10 767 -29 741 -29 c 0
 731 -29 719.524922904 -25.6298969775 708 -22 c 2
 581 18 l 2
 556 25 458 44 458 77 c 0
 458 82 460 88 464 95 c 0
168 573 m 1
 167 570 167 568 166 568 c 1
 166 580 l 2
 166 577 167 575 168 573 c 1
168 573 m 1
 173 599 214 1046 231 1196 c 1
 68 1169 l 1
 48 1349 l 1
 624.884166605 1427.8474899 l 2
 628.884166605 1427.8474899 631 1426 631 1421 c 2
 631 1420 l 1
 637 1419 637.951503369 1415.02974424 637.26820208 1406.05572065 c 2
 573 562 l 1
 218 551 l 2
 195 551 176 557 168 573 c 1
EndSplineSet
EndChar

StartChar: onequarter
Encoding: 120 188 262
Width: 2325
VWidth: 0
Flags: HW
LayerCount: 2
Fore
SplineSet
1516 391 m 1
 1727 391 l 1
 1777 823 l 1
 1516 391 l 1
2249 402 m 1
 2241 189 l 1
 2068 189 l 1
 2051 24 l 2
 2051 17 2047.80568755 9.70690955438 2035 6 c 0
 2009.80568755 -1.29309044562 1757 -9 1719 -9 c 0
 1701 -9 1684 -5 1686 14 c 2
 1702 187 l 1
 1493 187 1353 185 1287 185 c 0
 1178 185 1134.64109161 188.934365384 1134.64109161 206.934365384 c 1
 1649 955 l 2
 1657 967 1663 973 1712 973 c 2
 2096 973 l 1
 2106 974 2113 975 2120 975 c 0
 2135 975 2142 972 2142 955 c 2
 2142 949 l 1
 2127 720 2113 631 2097 400 c 1
 2179 401 2206 402 2217 402 c 2
 2249 402 l 1
944 897 m 0
 1046 1065 1136 1231 1237 1405 c 0
 1258 1442 1265 1454 1289 1454 c 2
 1297 1454 l 1
 1388 1427 1475 1388 1564 1375 c 0
 1574 1373 1584.32182894 1369.20906152 1584.32182894 1362.20906152 c 1
 777 13 l 2
 763 -10 767 -29 741 -29 c 0
 731 -29 719.524922904 -25.6298969775 708 -22 c 2
 581 18 l 2
 556 25 458 44 458 77 c 0
 458 82 460 88 464 95 c 0
 619 342 737 558 944 897 c 0
573 562 m 1
 218 551 l 2
 195 551 176 557 168 573 c 1
 167 570 167 568 166 568 c 1
 166 580 l 2
 166 577 167 575 168 573 c 1
 173 599 214 1046 231 1196 c 1
 68 1169 l 1
 48 1349 l 1
 624.884166605 1427.8474899 l 2
 628.884166605 1427.8474899 631 1426 631 1421 c 2
 631 1420 l 1
 637 1419 637.951503369 1415.02974424 637.26820208 1406.05572065 c 2
 573 562 l 1
EndSplineSet
EndChar

StartChar: uni00B9
Encoding: 508 185 263
Width: 749
VWidth: 0
Flags: HW
LayerCount: 2
Fore
SplineSet
602 562 m 1
 247 551 l 2
 224 551 205 557 197 573 c 1
 196 570 196 568 195 568 c 1
 195 580 l 2
 195 577 196 575 197 573 c 1
 202 599 243 1046 260 1196 c 1
 97 1169 l 1
 77 1349 l 1
 655 1428 l 1
 655 1428 655 1427 654 1427 c 1
 658 1427 660 1426 660 1421 c 2
 660 1420 l 1
 666 1419 667 1415 667 1406 c 2
 662 1350 l 1
 602 562 l 1
EndSplineSet
EndChar

StartChar: ordfeminine
Encoding: 105 170 264
Width: 1304
VWidth: 0
Flags: HW
LayerCount: 2
Fore
SplineSet
544 570 m 0
 350 570 135 693 135 987 c 0
 135 1298 323 1461 534 1461 c 0
 678 1461 769 1427 845 1305 c 1
 847 1478 l 1
 1139 1448 l 1
 1137 619 l 1
 894 596 l 1
 854 756 l 1
 805 654 704 570 544 570 c 0
654 815 m 0
 749.047356618 815 800 884 800 1007 c 0
 800 1110 749 1189 658 1189 c 0
 565 1189 514 1096 514 987 c 0
 514 866 581 815 654 815 c 0
EndSplineSet
EndChar

StartChar: ordmasculine
Encoding: 118 186 265
Width: 1029
VWidth: 0
Flags: HW
LayerCount: 2
Fore
SplineSet
609 1245 m 0
 520 1245 430 1166 430 994 c 0
 430 860 517 784 605 784 c 0
 693 784 782 861 782 1031 c 0
 782 1170 696 1245 609 1245 c 0
1070 1038 m 0
 1070 726 847 546 575 546 c 0
 281 546 130 753 130 976 c 0
 130 1241 278 1481 627 1481 c 0
 942 1481 1070 1258 1070 1038 c 0
EndSplineSet
EndChar

StartChar: oslash
Encoding: 180 248 266
Width: 1801
VWidth: 0
Flags: HW
LayerCount: 2
Fore
SplineSet
1375 1199 m 1
 562 -250 l 1
 448 -174 l 1
 1246 1253 l 1
 1250 1253 1374 1200 1375 1199 c 1
EndSplineSet
Refer: 253 111 N 1 0 0 1 0 0 2
EndChar

StartChar: p
Encoding: 80 112 268
Width: 1918
VWidth: 0
Flags: HW
LayerCount: 2
Fore
SplineSet
1205 509 m 0
 1205 632 1125 754 964 754 c 0
 805 754 726 628 726 503 c 0
 726 378 804 254 957 254 c 0
 1121 254 1205 382 1205 509 c 0
695 -311 m 1
 486 -332 232 -353 146 -353 c 2
 136 -353 l 1
 135 -316 131.288535272 -273.965115137 133 -232 c 2
 183 994 l 1
 206 1011 231.30936559 1013.06822326 264 1018 c 2
 496 1053 l 1
 604 854 l 1
 735 1013 960 1070 1196 1070 c 0
 1542 1070 1807 852 1807 560 c 0
 1807 201 1483 -37 1121 -37 c 0
 962 -37 809 8 709 72 c 1
 709 65 l 2
 709 32 695 -152 695 -311 c 1
EndSplineSet
EndChar

StartChar: paragraph
Encoding: 115 182 269
Width: 1486
VWidth: 0
Flags: HW
LayerCount: 2
Fore
SplineSet
800 -62 m 1
 450.72810583 -70.0219429154 l 1
 473 669 l 1
 250 739 100 865 80 1041 c 0
 78 1056 77 1071 77 1085 c 0
 77 1357 397 1446 695 1446 c 2
 723 1446 l 1
 936 1441 1356 1420 1451 1412 c 1
 1456 1161 l 1
 1431 1161 1360 1163 1283 1167 c 1
 1275 1040 1276.88690324 748.193742231 1269 537 c 2
 1260 296 l 1
 1258 166 1251 15 1248 -71 c 1
 900 -75 l 1
 943 1166 l 1
 826 1173 l 1
 810 305 l 1
 800 -62 l 1
EndSplineSet
EndChar

StartChar: parenleft
Encoding: 8 40 270
Width: 953
VWidth: 0
Flags: HW
LayerCount: 2
Fore
SplineSet
818 132 m 1
 818 -175 l 1
 622 -175 92 -34 92 625 c 0
 92 1104 320 1512 876 1534 c 1
 874 1226 l 1
 724 1195 624 866 624 577 c 0
 624 357 682 159 818 132 c 1
EndSplineSet
EndChar

StartChar: parenright
Encoding: 9 41 271
Width: 955
VWidth: 0
Flags: HW
LayerCount: 2
Fore
SplineSet
157 -180 m 1
 146 -150 146 -38 146 11 c 0
 146 76 148 113 157 146 c 1
 346 173 435 436 435 689 c 0
 435 890.364916892 326.182604694 1197.97391362 165 1221 c 1
 165 1393 197 1500 205 1534 c 1
 650.688548544 1519.09402848 909 1146.02985508 909 706 c 0
 909 303.862454581 666.446630624 -180 157 -180 c 1
EndSplineSet
EndChar

StartChar: percent
Encoding: 5 37 272
Width: 2729
VWidth: 0
Flags: HW
LayerCount: 2
Fore
SplineSet
2176 -49 m 0
 1860 -49 1675 147 1675 378 c 0
 1675 610 1846 821 2190 821 c 0
 2527 821 2687 608 2687 392 c 0
 2687 150 2502 -49 2176 -49 c 0
2193 580 m 0
 2068 580 2015 491 2015 375 c 0
 2015 262 2063 178 2183 178 c 0
 2310 178 2360 268 2360 381 c 0
 2360 492 2308 580 2193 580 c 0
847 148 m 1
 1091 582 1352 1077 1605 1531 c 1
 2032.00770439 1356.59570649 l 1
 1217 -1 l 1
 1182 -1 1059 74 847 148 c 1
603 563 m 0
 281 563 95 767 95 1006 c 0
 95 1250 267 1467 618 1467 c 0
 957 1467 1119 1248 1119 1022 c 0
 1119 770 932 563 603 563 c 0
614 1225 m 0
 482 1225 427 1132 427 1010 c 0
 427 892 475 806 606 806 c 0
 740 806 794 899 794 1017 c 0
 794 1132 736 1225 614 1225 c 0
EndSplineSet
EndChar

StartChar: period
Encoding: 14 46 273
Width: 728
VWidth: 0
Flags: HW
LayerCount: 2
Fore
SplineSet
558 348 m 1
 558 56 l 1
 554 -21 l 1
 158 -21 l 1
 156 17 156 46 156 118 c 2
 156 351 l 1
 495 351 l 1
 558 348 l 1
EndSplineSet
EndChar

StartChar: periodcentered
Encoding: 116 183 274
AltUni2: 002219.ffffffff.0
Width: 561
VWidth: 0
Flags: HW
LayerCount: 2
Fore
SplineSet
156 811 m 2
 156 815 l 1
 167 1067 154 853 171 1142 c 0
 173 1186 175.668949879 1203 200 1203 c 0
 317 1203 452 1204 565 1205 c 0
 577 1205 587.68757132 1199.92490695 586 1181 c 2
 558 867 l 1
 553 823 553.145868647 807.728865758 528 807 c 0
 415.145868647 803.728865758 296 804 167 804 c 0
 159 804 156 804 156 811 c 2
EndSplineSet
EndChar

StartChar: perthousand
Encoding: 397 8240 275
Width: 3049
VWidth: 0
Flags: HW
LayerCount: 2
Fore
SplineSet
2443 384 m 0
 2443 280 2471 159 2588 159 c 0
 2713 159 2749 298 2749 406 c 0
 2749 497 2713 626 2606 626 c 0
 2479 626 2443 496 2443 384 c 0
2187 364 m 0
 2187 627 2328 830 2611 830 c 0
 2879 830 3000 622 3000 403 c 0
 3000 118 2832 -52 2583 -52 c 0
 2350 -52 2187 111 2187 364 c 0
1516 384 m 0
 1516 280 1544 159 1661 159 c 0
 1786 159 1822 298 1822 406 c 0
 1822 497 1786 626 1679 626 c 0
 1552 626 1516 496 1516 384 c 0
1260 364 m 0
 1260 627 1401 830 1684 830 c 0
 1952 830 2073 622 2073 403 c 0
 2073 118 1905 -52 1656 -52 c 0
 1423 -52 1260 111 1260 364 c 0
305 1147 m 0
 305 1043 333 922 450 922 c 0
 575 922 611 1061 611 1169 c 0
 611 1260 575 1389 468 1389 c 0
 341 1389 305 1259 305 1147 c 0
49 1127 m 0
 49 1390 190 1593 473 1593 c 0
 741 1593 862 1385 862 1166 c 0
 862 881 694 711 445 711 c 0
 212 711 49 874 49 1127 c 0
954 864 m 0
 1059.49988576 992.590426794 1172 1130 1280 1263 c 0
 1296 1283 1301 1292 1314 1292 c 0
 1319 1292 1322 1292 1323 1291 c 0
 1388 1239 1449 1192 1513 1153 c 1
 1524 1149 1546 1140 1546 1129 c 0
 1546 1126 1545 1124 1543 1122 c 2
 755 167 l 2
 744 154 747 148 735 148 c 0
 728 148 721 150 706 153 c 1
 554 278 533 282 520 295 c 1
 509 302 510 312 510 328 c 1
 668 507 794.49988576 669.590426794 954 864 c 0
EndSplineSet
EndChar

StartChar: plus
Encoding: 11 43 276
Width: 1073
VWidth: 0
Flags: HW
LayerCount: 2
Fore
SplineSet
69 450 m 1
 73 520 94 668 105 754 c 1
 418.80932866 754 l 1
 436 1089 l 1
 756 1089 l 1
 749 962 741 834 737 756 c 1
 1047 756 l 1
 1045 715 1039.16413403 643.897764877 1032 569 c 2
 1021 454 l 1
 706 454 l 1
 688.524557559 120.024877802 l 1
 606.524557559 120.024877802 453.094611861 120.995138521 366.094611861 120.995138521 c 1
 383 450 l 1
 69 450 l 1
EndSplineSet
EndChar

StartChar: plusminus
Encoding: 112 177 277
Width: 1045
VWidth: 0
Flags: HW
LayerCount: 2
Fore
SplineSet
782.989798 13 m 1
 89.1232316209 6.98523787875 l 1
 115 223 l 1
 1005 229 l 1
 995 13 l 1
 782.989798 13 l 1
1012 969 m 1
 994 668 l 1
 721 665 l 1
 708 393 l 1
 656 393 l 2
 611 393 457.538873995 397.042895442 398.538873995 397.042895442 c 1
 423 660 l 1
 355 659 181.032229185 659.102954342 150.032229185 659.102954342 c 1
 181.504923903 954.946284691 l 1
 451.438988118 957.967418851 l 1
 472 1235 l 1
 488 1235 592.024413875 1236.45340254 641 1238 c 2
 736 1241 l 1
 764 1241 l 1
 764 1232 745 963 745 963 c 1
 836 968 990 969 1012 969 c 1
EndSplineSet
EndChar

StartChar: q
Encoding: 81 113 278
Width: 1913
VWidth: 0
Flags: HW
LayerCount: 2
Fore
SplineSet
918 241 m 0
 1024.95412844 241 1122.0733945 280 1186 330 c 1
 1190.55172414 405.652719665 1192.89655172 512.184100418 1194 699 c 1
 1134 733.270973653 1061.04858446 760 951 760 c 0
 812 760 707 624 707 464 c 0
 707 332 781 241 918 241 c 0
1171 -354 m 1
 1167 -335 1165 -292 1165 -238 c 0
 1165 -137 1171 1 1175 74 c 1
 1068 10 911 -37 752 -37 c 0
 412 -37 119 147 119 481 c 0
 119 761 377 1070 894 1070 c 0
 1087 1070 1316 1023 1581 908 c 1
 1668 995 l 1
 1723 986 l 2
 1744 982 1764 979 1786 976 c 1
 1783 953 1779 927 1778 903 c 0
 1760 542 1751 185 1733 -177 c 1
 1733 -295 l 1
 1689 -300 1640.89073987 -301.934560262 1583 -307 c 0
 1560.89073987 -308.934560262 1333 -347 1333 -347 c 1
 1281 -349 1226 -354 1171 -354 c 1
EndSplineSet
EndChar

StartChar: question
Encoding: 31 63 279
Width: 1531
VWidth: 0
Flags: HW
LayerCount: 2
Fore
SplineSet
659 -49 m 0
 648 -49 648 -49 648 -38 c 2
 650 274 l 1
 809 274 874 276 1008 276 c 1
 1010 -46 l 1
 950 -46 l 1
 837 -47 788 -49 659 -49 c 0
973 993 m 0
 973 1079 917 1139 816 1139 c 0
 739 1139 662 1101 662 1030 c 0
 662 995 679 963 679 954 c 1
 604 936 342 881 274 866 c 1
 250 902 229 970 229 1012 c 0
 229 1387 633 1482 883 1482 c 0
 1224 1482 1463 1311 1463 1014 c 0
 1463 719 1141 460 698 403 c 1
 589 613 l 1
 905 746 973 888 973 993 c 0
EndSplineSet
EndChar

StartChar: quotedbl
Encoding: 2 34 281
Width: 1199
VWidth: 0
Flags: HW
LayerCount: 2
Fore
SplineSet
717 785 m 0
 708 973 700 1186 691 1387 c 1
 683 1448 l 1
 823 1448 991 1450 1125 1450 c 1
 1123 1420 l 1
 990 783 l 2
 981 740 979 723 954 723 c 0
 882 723 818 721 738 721 c 0
 718 721 717 771 717 785 c 0
114 785 m 0
 105 973 97 1186 88 1387 c 2
 85 1448 l 1
 231 1448 406 1450 546 1450 c 1
 543 1420 l 1
 387 783 l 2
 376 740 376 723 351 723 c 0
 279 723 215 721 135 721 c 0
 115 721 114 771 114 785 c 0
EndSplineSet
EndChar

StartChar: quotedblleft
Encoding: 362 8220 283
Width: 1211
VWidth: 0
Flags: HW
LayerCount: 2
Fore
SplineSet
462 1576 m 0
 484 1576 505 1574 523 1569 c 1
 515 1416 l 1
 418 1403 386 1333 376 1258 c 1
 515 1258 l 1
 501 898 l 1
 92 898 l 1
 96 1227 l 2
 99 1480 321 1576 462 1576 c 0
1062 1576 m 0
 1084 1576 1105 1574 1123 1569 c 1
 1115 1416 l 1
 1018 1403 986 1333 976 1258 c 1
 1115 1258 l 1
 1101 898 l 1
 692 898 l 1
 696 1227 l 2
 699 1480 921 1576 1062 1576 c 0
EndSplineSet
EndChar

StartChar: quotedblright
Encoding: 363 8221 284
Width: 1211
VWidth: 0
Flags: HW
LayerCount: 2
Fore
SplineSet
750 898 m 0
 728 898 707 900 689 905 c 1
 697 1058 l 1
 794 1071 826 1141 836 1216 c 1
 697 1216 l 1
 711 1576 l 1
 1120 1576 l 1
 1116 1247 l 2
 1113 994 891 898 750 898 c 0
150 898 m 0
 128 898 107 900 89 905 c 1
 97 1058 l 1
 194 1071 226 1141 236 1216 c 1
 97 1216 l 1
 111 1576 l 1
 520 1576 l 1
 516 1247 l 2
 513 994 291 898 150 898 c 0
EndSplineSet
EndChar

StartChar: quoteleft
Encoding: 359 8216 285
Width: 611
VWidth: 0
Flags: HW
LayerCount: 2
Fore
SplineSet
462 1592 m 0
 484 1592 505 1590 523 1585 c 1
 515 1432 l 1
 418 1419 386 1349 376 1274 c 1
 515 1274 l 1
 501 914 l 1
 92 914 l 1
 96 1243 l 2
 99 1496 321 1592 462 1592 c 0
EndSplineSet
EndChar

StartChar: quoteright
Encoding: 360 8217 286
Width: 611
VWidth: 0
Flags: HW
LayerCount: 2
Fore
SplineSet
150 914 m 0
 128 914 107 916 89 921 c 1
 97 1074 l 1
 194 1087 226 1157 236 1232 c 1
 97 1232 l 1
 111 1592 l 1
 520 1592 l 1
 516 1263 l 2
 513 1010 291 914 150 914 c 0
EndSplineSet
EndChar

StartChar: quotesinglbase
Encoding: 361 8218 287
Width: 621
VWidth: 0
Flags: HW
LayerCount: 2
Fore
SplineSet
157 -331 m 0
 135 -331 114 -329 96 -324 c 1
 104 -171 l 1
 201 -158 233 -88 243 -13 c 1
 104 -13 l 1
 98 347 l 1
 527 347 l 1
 523 18 l 2
 520 -235 298 -331 157 -331 c 0
EndSplineSet
EndChar

StartChar: quotesingle
Encoding: 7 39 288
Width: 626
VWidth: 0
Flags: HW
LayerCount: 2
Fore
SplineSet
200 784 m 0
 191 972 183 1185 174 1386 c 1
 174 1399 l 2
 174 1434 179.65476494 1447 203 1447 c 0
 331 1447 485 1449 608 1449 c 0
 620 1449 630.386247544 1443.66051081 630.386247544 1424.66051081 c 1
 473 782 l 2
 462 739 462 722 437 722 c 0
 365 722 301 720 221 720 c 0
 201 720 200 770 200 784 c 0
EndSplineSet
EndChar

StartChar: r
Encoding: 82 114 289
Width: 1263
VWidth: 0
Flags: HW
LayerCount: 2
Fore
SplineSet
249 -9 m 1
 150 -11 l 1
 147 12 142.969661 37.0212409927 144 62 c 2
 181 959 l 1
 458 1018 l 1
 574 817 l 1
 715 999 849 1062 955 1062 c 0
 1065 1062 1195 1008 1230 962 c 1
 1125 672 l 1
 1043 706 974 718 918 718 c 0
 785 718 725 649 724 649 c 2
 682 12 l 1
 249 -9 l 1
EndSplineSet
EndChar

StartChar: registered
Encoding: 109 174 290
Width: 2071
VWidth: 0
Flags: HW
LayerCount: 2
Fore
SplineSet
984 747 m 1
 1077 747 1185 839 1182 897 c 0
 1179 964 1139 997 1063 997 c 0
 1037 997 1020 994 1000 991 c 1
 984 747 l 1
1244 243 m 1
 979 658 l 1
 971 297 l 1
 699 289 l 1
 696 363 715 714 726 944 c 0
 726 945 733 1053 735 1110 c 1
 825 1126 932 1141 1065 1141 c 0
 1249 1141 1430 1082 1438 909 c 0
 1444 771 1333 707 1231 689 c 1
 1231 686 1296 607 1483 346 c 1
 1402 308 1325 278 1244 243 c 1
983 79 m 0
 1390 79 1709 339 1692 730 c 0
 1679 1034 1428 1277 1085 1277 c 0
 692 1277 367 1028 384 652 c 0
 397 346 624 79 983 79 c 0
960 -84 m 0
 483 -84 177 261 159 655 c 0
 137 1142 573 1464 1098 1464 c 0
 1556 1464 1891 1150 1909 757 c 0
 1931 252 1504 -84 960 -84 c 0
EndSplineSet
EndChar

StartChar: ring
Encoding: 342 730 291
Width: 710
VWidth: 0
Flags: HW
LayerCount: 2
Fore
SplineSet
457 1478 m 0
 457 1527 437 1594 373 1594 c 0
 284 1594 245 1522 245 1456 c 0
 245 1405 262.936647982 1338 334 1338 c 0
 418 1338 457 1408 457 1478 c 0
352 1192 m 0
 195 1192 73 1290 73 1457 c 0
 73 1609 203 1737 371 1737 c 0
 519 1737 636 1637 636 1484 c 0
 636 1339 527 1192 352 1192 c 0
EndSplineSet
EndChar

StartChar: s
Encoding: 83 115 292
Width: 1565
VWidth: 0
Flags: HW
LayerCount: 2
Fore
SplineSet
748 -37 m 0
 570 -37 258 -16 126 57 c 1
 192 334 l 1
 426 285 611 268 736 268 c 0
 850 268 913 283 913 300 c 0
 913 338 872.076462587 345.374255014 790 362 c 0
 482.076462587 424.374255014 125 434 125 722 c 0
 125 1040 662 1070 856 1070 c 0
 1056 1070 1220 1043 1363 1007 c 1
 1315 727 l 1
 1233 747 973 778 797 778 c 0
 723 778 671 769 671 744 c 0
 671 712 713 705 785 696 c 0
 1085 657 1447 633 1447 315 c 0
 1447 104 1316 -37 748 -37 c 0
EndSplineSet
EndChar

StartChar: section
Encoding: 102 167 296
Width: 1475
VWidth: 0
Flags: HW
LayerCount: 2
Fore
SplineSet
1362 210 m 0
 1362 13 1221 -165 613 -165 c 0
 422 -165 216 -136 64 -68 c 1
 135 228 l 1
 378 166 571 141 703 141 c 0
 840 141 913 168 913 211 c 0
 913 245 868 278 775 291 c 0
 372 348 172 401 151 596 c 0
 150 605 149 615 149 624 c 0
 149 709 190 802 280 845 c 1
 213 893 152 1000 152 1113 c 0
 152 1387.53968254 453 1481 798 1481 c 0
 999 1481 1215 1452.125 1395 1411 c 1
 1343 1149 l 1
 1255 1168 977 1197 788 1197 c 0
 695 1197 651 1165 651 1130 c 0
 651 1095 694 1058 775 1046 c 0
 1215 981 1445 944 1445 718 c 0
 1445 593 1389 521 1194 484 c 1
 1318.49996071 443.999986768 1362 320 1362 210 c 0
555 686 m 0
 555 644 746 627 878 609 c 1
 882 609 l 2
 910 609 952 642 952 677 c 0
 952 707 888 725 786 742 c 2
 613 771 l 2
 612 771 555 728 555 686 c 0
EndSplineSet
EndChar

StartChar: semicolon
Encoding: 27 59 297
Width: 848
VWidth: 0
Flags: HW
LayerCount: 2
Fore
SplineSet
626 30 m 2
 626 -150 473 -359 171 -411 c 1
 171 -262 l 1
 296 -227 399 -89 416 -35 c 1
 197 -35 l 1
 197 22 l 2
 197 93 201 332 200 386 c 1
 309 386 467 387 575 387 c 0
 592 387 609 386 624 384 c 1
 625 367 626 287.02629759 626 268 c 2
 626 30 l 2
642.995757644 1111.53312274 m 1
 637 701 l 1
 502 697 371 696 261 696 c 2
 201 696 l 1
 199 768 l 1
 199 1108 l 1
 642.995757644 1111.53312274 l 1
EndSplineSet
EndChar

StartChar: seven
Encoding: 23 55 298
Width: 1695
VWidth: 0
Flags: HW
LayerCount: 2
Fore
SplineSet
1338 1445 m 2
 1690 1436 l 1
 1459.56684133 960.433158665 1236.36833378 477.631666216 1016 -8 c 1
 282 -2 l 1
 282 3 286 9 289 14 c 0
 300 38 422.082387528 306.164974995 558 614 c 2
 743 1033 l 1
 314.004192343 1030.32712892 l 2
 268.004192343 1030.32712892 230.655970468 1032.11370907 232 1040 c 2
 300 1439 l 1
 867 1443 1059.09115091 1452.13119216 1338 1445 c 2
EndSplineSet
EndChar

StartChar: six
Encoding: 22 54 299
Width: 2008
VWidth: 0
Flags: HW
LayerCount: 2
Fore
SplineSet
1026 270 m 0
 1173 270 1214 389 1214 538 c 0
 1214 689 1169 774 1036 774 c 0
 886 774 848 624 848 496 c 0
 848 364 892 270 1026 270 c 0
830 1561 m 1
 880 1550 1463 1429 1491 1414 c 1
 1396 1301 1238 1118 1158 1003 c 1
 1184 1005 1204 1005 1224 1005 c 2
 1291 1005 l 2
 1701 1005 1896 762 1896 551 c 0
 1896 181 1587 -45 965 -45 c 0
 279 -45 132 373 132 546 c 0
 132 693 183 813 319 970 c 2
 830 1561 l 1
EndSplineSet
EndChar

StartChar: slash
Encoding: 15 47 300
AltUni2: 002215.ffffffff.0
Width: 1310
VWidth: 0
Flags: HW
LayerCount: 2
Fore
SplineSet
1199 1471 m 1
 391 -182 l 1
 41 -104 l 1
 334.05592992 498.277403414 626.064441576 1101.60222509 933 1690 c 1
 1268 1619 l 1
 1232 1549 l 1
 1199 1471 l 1
EndSplineSet
EndChar

StartChar: sterling
Encoding: 98 163 302
Width: 1910
VWidth: 0
Flags: HW
LayerCount: 2
Fore
SplineSet
1090 859 m 2
 1090 850 l 1
 1447 848 l 1
 1463 719 l 1
 1473 619 l 1
 1064 621 l 1
 1059 514 1068 413 973 332 c 1
 1192 335 1473 337 1589 337 c 0
 1641 337 1680 336 1704 336 c 2
 1773 336 l 1
 1752 -27 l 1
 1644 -27 l 2
 1621 -27 776 -27 421 -26 c 0
 415 -26 410 -26 406 -25 c 1
 260 -25 212 25 212 79 c 0
 212 100 219 121 231 141 c 0
 343 323 378 462 392 621 c 1
 208 621 l 1
 107 623 l 1
 122 853 l 1
 402 853 l 1
 417 1042 l 1
 440 1319 756 1491 1137 1491 c 0
 1343 1491 1567 1441 1775 1332 c 1
 1743 1048 l 1
 1620 1096 1500 1122 1397 1122 c 0
 1218 1122 1090 1042 1090 859 c 2
EndSplineSet
EndChar

StartChar: t
Encoding: 84 116 303
Width: 1535
VWidth: 0
Flags: HW
LayerCount: 2
Fore
SplineSet
1397 44 m 1
 1257 -11 1028 -36 900 -36 c 0
 533 -34 293 109 298 430 c 1
 298 442 l 1
 304 499 304 720 309 747 c 1
 207 747 l 2
 152 747 113 749 89 756 c 1
 151 985 l 1
 333 985 l 1
 358 1170 354 1290 366 1388 c 1
 527 1403 809 1423 962 1422 c 1
 963 1397 963 1372 961 1345 c 2
 944 982 l 1
 1333 982 l 2
 1365 982 1394 978 1421 970 c 1
 1368 757 l 1
 1340 748 1302 747 1260 747 c 2
 925 747 l 1
 915 468 l 2
 910 315 992.995454639 284 1103 284 c 0
 1202.12618221 284 1330 324 1399 343 c 1
 1404 294 1402 224.441614939 1402 111 c 0
 1402 86.9168108424 1399 65 1397 44 c 1
EndSplineSet
EndChar

StartChar: thorn
Encoding: 186 254 304
Width: 1913
VWidth: 0
Flags: HW
LayerCount: 2
Fore
SplineSet
691 -311 m 1
 482 -332 228 -353 142 -353 c 2
 132 -353 l 1
 131 -316 127.245679539 -273.963345431 129 -232 c 2
 193.38409509 1308.06755455 l 1
 217 1339 l 1
 217 1348 491 1412 590 1441 c 0
 612 1447 650 1454 680 1454 c 0
 705 1454 720.403320312 1446.99707031 720 1420 c 2
 713 951 l 1
 842 1037 1014 1070 1192 1070 c 0
 1538 1070 1803 851.880165289 1803 560 c 0
 1803 202.804020101 1479 -34 1117 -34 c 0
 958 -34 805 9.76146788991 705 72 c 1
 705 65 l 2
 705 32 691 -152 691 -311 c 1
986 751 m 0
 727 751 720 560 720 450 c 0
 720 277 824 233 959 233 c 0
 1113 233 1212 378 1212 523 c 0
 1212 670 1113 751 986 751 c 0
EndSplineSet
EndChar

StartChar: three
Encoding: 19 51 305
Width: 1637
VWidth: 0
Flags: HW
LayerCount: 2
Fore
SplineSet
1553 430 m 0
 1553 166 1305 -45 815 -45 c 0
 595 -45 372 3 251 57 c 1
 253 405 l 1
 360 378 489 356 593 356 c 0
 689 356 738 423 738 489 c 0
 738 552 693 614 600 614 c 2
 380 614 l 1
 411 902 l 1
 553 902 l 2
 670 902 721 968 721 1035 c 0
 721 1103 669 1171 580 1171 c 0
 465 1171 332 1144 241 1121 c 1
 241 1422 l 1
 432 1459 630 1481 811 1481 c 0
 1207 1481 1524 1373 1524 1106 c 0
 1524 941 1369 838 1264 782 c 1
 1382 738 1553 642 1553 430 c 0
EndSplineSet
EndChar

StartChar: threequarters
Encoding: 122 190 306
Width: 2633
VWidth: 0
Flags: HW
LayerCount: 2
Fore
SplineSet
1824 391 m 1
 2035 391 l 1
 2085 823 l 1
 1824 391 l 1
1252 897 m 0
 1354 1065 1444 1231 1545 1405 c 0
 1566 1442 1573 1454 1597 1454 c 2
 1605 1454 l 1
 1696 1427 1783 1388 1872 1375 c 0
 1882 1373 1892.32182894 1369.20906152 1892.32182894 1362.20906152 c 1
 1085 13 l 2
 1071 -10 1075 -29 1049 -29 c 0
 1039 -29 1027.5249229 -25.6298969775 1016 -22 c 2
 889 18 l 2
 864 25 766 44 766 77 c 0
 766 82 768 88 772 95 c 0
 927 342 1045 558 1252 897 c 0
2557 402 m 1
 2549 189 l 1
 2376 189 l 1
 2359 24 l 2
 2359 17 2355.80568755 9.70690955438 2343 6 c 0
 2317.80568755 -1.29309044562 2065 -9 2027 -9 c 0
 2009 -9 1992 -5 1994 14 c 2
 2010 187 l 1
 1801 187 1661 185 1595 185 c 0
 1486 185 1442.64109161 188.934365384 1442.64109161 206.934365384 c 1
 1957 955 l 2
 1965 967 1971 973 2020 973 c 2
 2404 973 l 1
 2414 974 2421 975 2428 975 c 0
 2443 975 2450 972 2450 955 c 2
 2450 949 l 1
 2435 720 2421 631 2405 400 c 1
 2487 401 2514 402 2525 402 c 2
 2557 402 l 1
942 831 m 0
 942 670 814 541 560 541 c 0
 446 541 331 571 268 604 c 1
 268 816 l 1
 324 799 391 785 445 785 c 0
 495 785 520 827 520 868 c 0
 520 907 497 945 449 945 c 2
 335 945 l 1
 351 1124 l 1
 425 1124 l 2
 485 1124 512 1165 512 1206 c 0
 512 1248 485 1290 439 1290 c 0
 379 1290 310 1274 263 1259 c 1
 263 1446 l 1
 362 1471 464 1485 558 1485 c 0
 763 1485 927 1417 927 1250 c 0
 927 1148 847 1084 793 1049 c 1
 854 1022 942 963 942 831 c 0
EndSplineSet
EndChar

StartChar: uni00B3
Encoding: 509 179 307
Width: 845
VWidth: 0
Flags: HW
LayerCount: 2
Fore
SplineSet
765 831 m 0
 765 670 637 541 383 541 c 0
 269 541 154 571 91 604 c 1
 92 816 l 1
 148 799 214 785 268 785 c 0
 318 785 343 827 343 868 c 0
 343 907 320 945 272 945 c 2
 158 945 l 1
 174 1124 l 1
 248 1124 l 2
 308 1124 335 1165 335 1206 c 0
 335 1248 308 1290 262 1290 c 0
 202 1290 133 1274 86 1259 c 1
 86 1446 l 1
 185 1471 287 1485 381 1485 c 0
 586 1485 750 1417 750 1250 c 0
 750 1148 670 1084 616 1049 c 1
 677 1022 765 963 765 831 c 0
EndSplineSet
EndChar

StartChar: tilde
Encoding: 344 732 308
Width: 1120
VWidth: 0
Flags: HW
LayerCount: 2
Fore
SplineSet
672 1579 m 0
 697 1544 717 1531 746 1531 c 0
 829 1531 805.023596041 1639.08593061 830 1638 c 2
 1060 1628 l 1
 1060 1436 918 1214 707 1214 c 0
 621 1214 539 1239 452 1366 c 0
 430 1398 406 1403 372 1403 c 0
 309 1403 293 1344 293 1293 c 1
 63 1284 l 1
 63 1535 217 1704 405 1704 c 0
 511 1704 587 1698 672 1579 c 0
EndSplineSet
EndChar

StartChar: trademark
Encoding: 371 8482 309
Width: 2402
VWidth: 0
Flags: HW
LayerCount: 2
Fore
SplineSet
619 482 m 1
 318 469 l 2
 302 469 284.073533202 474.102350071 285.808160658 492.018573657 c 2
 356 1217 l 1
 63 1219 l 2
 51 1219 47.3859509138 1229.18483664 48.3595414856 1235.10531984 c 2
 86 1464 l 1
 1065.45712462 1464 l 1
 1043 1217 l 1
 713 1217 l 1
 702 1126 690.012196074 1059.21654706 674 903 c 2
 633 503 l 2
 632 496 632 487 619 482 c 1
1912 1446 m 1
 2174 1446 l 2
 2181 1446 2184 1448 2190 1448 c 0
 2207 1448 2220 1436 2223 1412 c 2
 2355 532 l 1
 2348 511 l 1
 2341 494 2068 474 2054 474 c 0
 2039 474 2026.41205008 478.651668954 2023 498 c 2
 1938 980 l 1
 1714 604 l 1
 1697 584 1682 574 1663 574 c 0
 1643 574 1632.1089738 588.244221889 1624 604 c 2
 1431 979 l 1
 1340 483 l 1
 1338 478 1333 476 1322 476 c 2
 1062 487 l 1
 1057 489 1044.1906451 492.961790112 1044.1906451 503.961790112 c 1
 1234 1451 l 1
 1525 1440 l 1
 1700 1043 l 1
 1912 1446 l 1
EndSplineSet
EndChar

StartChar: two
Encoding: 18 50 310
Width: 1681
VWidth: 0
Flags: HW
LayerCount: 2
Fore
SplineSet
173 18 m 0
 173 32 182 53 201 80 c 0
 321 247 772 841 800 913 c 0
 806 927 811 945 811 963 c 0
 811 1009 775 1057 619 1057 c 0
 540 1057 437 1046 302 1018 c 1
 298 1018 l 2
 290 1018 287 1025 288 1029 c 2
 367 1410 l 1
 414 1425 670 1481 930 1481 c 0
 1228 1481 1522 1405 1532 1100 c 1
 1532 1085 l 2
 1532 804 1261 475 1157 348 c 1
 1451 357 l 2
 1480 357 1496 353 1496 345 c 2
 1496 344 l 1
 1486 296 1430 91 1409 -7 c 1
 219 -13 l 2
 190 -13 173 -3 173 18 c 0
EndSplineSet
EndChar

StartChar: uni00B2
Encoding: -1 178 311
Width: 2358
VWidth: 0
Flags: W
LayerCount: 2
Fore
SplineSet
1649 1234 m 0
 1649 1405 1473 1455 1288 1455 c 0
 1115 1455 934 1412 877 1383 c 1
 873 1375 832 1258 815 1200 c 1
 835 1187 l 1
 863 1199 l 2
 929 1227 987 1242 1032 1242 c 0
 1093 1242 1130 1215 1130 1161 c 0
 1130 1091 1068 974 918 809 c 2
 816 697 l 1
 792 673 773 655 773 640 c 0
 773 619 812 607 929 607 c 0
 1103 607 1180 608 1487 611 c 0
 1502 612 1524 611 1547 625 c 0
 1548 625 1549 630 1551 630 c 1
 1682 782 l 1
 1682 782 1695 796 1695 806 c 0
 1695 814 1679 819 1648 819 c 0
 1558 819 1323 801 1285 801 c 2
 1282 801 l 1
 1281 801 l 1
 1423 942 l 2
 1497 1015 1574 1093 1593 1119 c 1
 1632 1159 1649 1198 1649 1234 c 0
EndSplineSet
EndChar

StartChar: u
Encoding: 85 117 312
Width: 1918
VWidth: 0
Flags: HW
LayerCount: 2
Fore
SplineSet
1310 190 m 1
 1173 34 953 -37 746 -37 c 0
 444 -37 118 70 118 407 c 0
 118 693.415517241 136 811.827586207 141 994 c 1
 214.028446389 999.409090909 418.216756507 1003.05408713 548 1011 c 2
 744 1023 l 1
 735 850 720 518 720 507 c 0
 720 361 778 245 922 245 c 0
 1185 245 1200 489 1200 847 c 2
 1200 1007 l 1
 1342 1011.11764706 1487 1014.41176471 1769 1021 c 1
 1770 986.362831858 1771.90838202 952.584555729 1770 918 c 2
 1721 30 l 1
 1406 -17 l 1
 1386 23 1328 145 1310 190 c 1
EndSplineSet
EndChar

StartChar: underscore
Encoding: 63 95 317
Width: 1191
VWidth: 0
Flags: HW
LayerCount: 2
Fore
SplineSet
1083 -13 m 1
 95 -10 l 1
 110 292 l 5
 113 292 277 292 280 291 c 5
 638 291 l 6
 667 291 1012 294 1094 294 c 5
 1083 -13 l 1
EndSplineSet
EndChar

StartChar: uni00AD
Encoding: 108 173 319
Width: 1042
VWidth: 0
Flags: HW
LayerCount: 2
Fore
SplineSet
1012 -2 m 1
 960 -4 813 -4 742 -4 c 0
 518 -4 379 -8 188 -12 c 1
 44 -12 l 1
 46.9947629721 258.650141221 l 1
 587 263 l 1
 1014 263 l 1
 1012 -2 l 1
EndSplineSet
EndChar

StartChar: uni00B2
Encoding: 113 178 320
Width: 1060
VWidth: 0
Flags: HW
LayerCount: 2
Fore
SplineSet
941 1272 m 0
 941 1236 921.792118466 1198.86689343 885 1157 c 0
 863.792118466 1132.86689343 789 1053 715 980 c 2
 573 839 l 1
 577 839 l 2
 615 839 850 857 940 857 c 0
 971 857 987 852 987 844 c 0
 987 834 974 820 974 820 c 1
 838.822575438 663.152911958 l 1
 815.822575438 649.152911958 794 650 779 649 c 0
 472 646 395 645 221 645 c 0
 104 645 65 657 65 678 c 0
 65 693 85.1464332088 709.905887445 108 735 c 2
 210 847 l 2
 360 1012 422 1129 422 1199 c 0
 422 1253 385 1280 324 1280 c 0
 279 1280 221 1265 155 1237 c 2
 127 1225 l 1
 107 1238 l 1
 124 1296 165 1413 169 1421 c 1
 226 1450 407 1493 580 1493 c 0
 765 1493 941 1443 941 1272 c 0
EndSplineSet
EndChar

StartChar: uni030F
Encoding: 346 783 347
Width: 1151
VWidth: 0
Flags: HW
LayerCount: 2
Fore
SplineSet
915 1157 m 1
 637 1547 l 1
 900 1717 l 1
 1060 1244 l 1
 915 1157 l 1
494 1151 m 1
 120 1539 l 1
 384 1734 l 1
 613 1260 l 2
 614 1258 614 1258 614 1256 c 1
 494 1151 l 1
EndSplineSet
EndChar

StartChar: uni0311
Encoding: 347 785 348
Width: 681
VWidth: 0
Flags: HW
LayerCount: 2
Fore
SplineSet
476 1179 m 1
 477.176471032 1187.86160624 477.807471487 1196.58771836 477.807471487 1205.07352419 c 0
 477.807471487 1264.41193747 446.953196173 1312 356 1312 c 0
 254.504504505 1312 225 1233.81818182 225 1183 c 0
 57 1203 l 0
 57 1382.4893617 200.881578947 1488 381 1488 c 0
 576.140625 1488 657 1336.69879518 657 1189 c 0
 476 1179 l 1
EndSplineSet
EndChar

StartChar: uni2074
Encoding: 511 8308 350
Width: 1261
VWidth: 0
Flags: HW
LayerCount: 2
Fore
SplineSet
448 959 m 1
 659 959 l 1
 709 1391 l 1
 448 959 l 1
1181 970 m 1
 1173 757 l 1
 1000 757 l 1
 983 592 l 2
 983 585 980 577 967 574 c 1
 942 566 689 559 651 559 c 0
 633 559 616 563 618 582 c 2
 634 755 l 1
 425 755 285 753 219 753 c 0
 110 753 68 756 68 774 c 0
 68 777 69 783 77 790 c 1
 581 1523 l 2
 589 1535 595 1541 644 1541 c 2
 1028 1542 l 2
 1038 1543 1045 1543 1052 1543 c 0
 1067 1543 1074 1540 1074 1523 c 2
 1074 1517 l 1
 1059 1288 1045 1199 1029 968 c 1
 1111 969 1138 970 1149 970 c 2
 1181 970 l 1
EndSplineSet
EndChar

StartChar: uni2206
Encoding: 512 8710 351
Width: 1325
VWidth: 0
Flags: HW
LayerCount: 2
Fore
SplineSet
673 876 m 1
 503 245 l 1
 818 245 l 1
 673 876 l 1
111 130 m 2
 137 213 416 1017 495 1235 c 1
 788 1233 l 1
 826 1234 l 1
 965 876 1126 421 1243 61 c 2
 1262 3 l 1
 775 3 278 -3 67 -6 c 1
 111 130 l 2
EndSplineSet
EndChar

StartChar: uniFB01
Encoding: 374 64257 352
Width: 2256
VWidth: 0
Flags: HW
LayerCount: 2
Fore
SplineSet
2157 1378 m 0
 2141 1255 1964 1198 1809 1198 c 0
 1585 1198 1504 1224 1504 1385 c 0
 1504 1475 1602 1605 1923 1605 c 0
 2086 1605 2174 1511 2157 1378 c 0
1470 4 m 1
 1470 121.664487928 1491.43591275 539.239617418 1502 747 c 1
 921 747 l 1
 910 514 894 274 894 124 c 1
 891 -4 l 1
 385 -8 l 2
 354 -8 324 -7 294 -5 c 1
 293 22 290 51 290 84 c 0
 292 215 306 478 322 745 c 1
 182 745 l 2
 127 745 131 743 104 750 c 1
 106 799 118 924 126 981 c 1
 335 981 l 1
 352 1356 610 1519 1062 1519 c 0
 1155 1519 1225 1512 1330 1498 c 1
 1358 1176 l 1
 1287 1184 1257 1188 1204 1188 c 0
 957 1188 952 1102 922 981 c 1
 1116 981 l 2
 1451 981 1745 995 2092 973 c 1
 2053.69965002 82.012910972 l 2
 2053.69965002 62.012910972 2050 22 2052 1 c 1
 1877 -2 1535 0 1470 4 c 1
EndSplineSet
EndChar

StartChar: uniFB02
Encoding: 375 64258 353
Width: 2285
VWidth: 0
Flags: HW
LayerCount: 2
Fore
SplineSet
1539 -17 m 1
 1578.46086081 1226.01711553 l 1
 1469.46086081 1238.01711553 1371 1247 1287 1247 c 0
 1074 1247 946 1190 922 981 c 1
 1166 981 l 2
 1227 981 1290 979 1350 971 c 1
 1350 925 1342 819 1331 747 c 1
 921 747 l 1
 910 514 894 274 894 124 c 1
 891 -4 l 1
 385 -8 l 2
 354 -8 324 -7 294 -5 c 1
 293 22 290 51 290 84 c 0
 292 215 306 478 322 745 c 1
 141 745 l 2
 126 745 121 746 104 750 c 1
 106 799 118 924 126 981 c 1
 335 981 l 1
 355 1427 713 1563 1260 1563 c 0
 1527 1563 1838 1531 2178 1486 c 1
 2178 1481 l 1
 2160 1036 2145 588 2128 142 c 1
 2130 -2 l 1
 1539 -17 l 1
EndSplineSet
EndChar

StartChar: v
Encoding: 86 118 354
Width: 1672
VWidth: 0
Flags: HW
LayerCount: 2
Fore
SplineSet
452 90 m 1
 365 325.191873589 172 818.072234763 94 996 c 1
 407 1009.0952381 603 1019.04761905 670 1018 c 1
 696 928 l 1
 748 754 800 579 851 404 c 1
 877 472 1036 893 1096 1016 c 1
 1141 1018 1186 1018 1232 1018 c 0
 1323 1018 1560 1012 1637 1009 c 1
 1559 864 l 1
 1174 119 l 1
 1111 0 l 1
 1002.98915009 -3.90322580645 659.318264014 -11 568 -11 c 1
 493 -9 l 1
 452 90 l 1
EndSplineSet
EndChar

StartChar: w
Encoding: 87 119 355
Width: 2355
VWidth: 0
Flags: HW
LayerCount: 2
Fore
SplineSet
1932 138 m 0
 1914.34498116 91.2029252676 1894.5 47.6363636364 1877 -2 c 1
 1756.61702128 -5.52173913043 1529.16909083 -11 1371 -11 c 0
 1331 -11 1298 -11 1262 -12 c 1
 1235 133 1205 279 1169 458 c 1
 1053.12695312 13.2177734375 l 1
 928.57342002 6.62572092772 705.425768944 -5 544 -5 c 0
 505 -5 467 -5 433 -5 c 1
 340.70977918 295 237.384858044 647.040816327 115 995 c 1
 256.413489736 998.724137931 340.659824047 1000.5862069 457 1004 c 1
 557 1009 l 1
 597 1009 631.019787138 1009.53743928 668.019787138 1011.82561756 c 1
 779 388 l 1
 912 892 l 1
 942 1015 l 1
 1264 1018 l 2
 1335 1018 1400 1016 1466 1012 c 1
 1508.68542158 803.018754911 1557.66373987 600.330406539 1603 394 c 1
 1753.6637435 1011.83814194 l 1
 1890 1022 l 2
 2274 1024 l 1
 2154.3 742.648960739 2039.50466719 422.656525046 1932 138 c 0
EndSplineSet
EndChar

StartChar: x
Encoding: 88 120 356
Width: 1869
VWidth: 0
Flags: HW
LayerCount: 2
Fore
SplineSet
1194 -14 m 0
 1152.98780669 -14 1114 -16 1070 -19 c 1
 1044 0 964 94 899 184 c 1
 843 121 777.404296875 50.5322265625 765 37 c 2
 732 1 l 1
 695 -1 657.973632812 -2.390625 621 -1 c 2
 116 18 l 1
 141.052631579 43 165.189814447 72.9283785278 200 104 c 2
 619 478 l 1
 454 646 287 818 97 978 c 1
 837 1044 l 1
 870 995 l 1
 910 940 952 884 990 827 c 1
 1115 966 l 1
 1155 1017 l 1
 1196.56730769 1018 1243.17307692 1018 1286 1018 c 2
 1746 1008 l 1
 1565 874 1403 696 1250 552 c 1
 1784.08691406 -0.9130859375 l 1
 1613.08688477 -3.03921190401 1361.29916195 -14 1194 -14 c 0
EndSplineSet
EndChar

StartChar: y
Encoding: 89 121 357
Width: 1707
VWidth: 0
Flags: HW
LayerCount: 2
Fore
SplineSet
665 -144 m 1
 581 7 l 2
 428 281 128 905 71 1000 c 1
 655 1025 l 1
 936 374 l 1
 982 498 1106 903 1155 1024 c 1
 1183 1026 1211.02133873 1027.15001991 1242 1026 c 2
 1673 1010 l 1
 1522.23115646 650.102176872 1365.73177611 296.968126361 1210 -59 c 0
 1078.83870935 -358.805473549 892 -664 394 -664 c 1
 221 -384 l 1
 280 -384 610 -291 665 -144 c 1
EndSplineSet
EndChar

StartChar: yen
Encoding: 100 165 360
Width: 2152
VWidth: 0
Flags: HW
LayerCount: 2
Fore
SplineSet
1434 -25 m 0
 1408 -25 1314 -24 734 -38 c 1
 734 103 l 1
 445 103 l 1
 418 108 l 1
 422 308 l 1
 735 308 l 1
 737 406 l 1
 423 406 l 1
 430 618 l 1
 673 618 l 1
 167 1432 l 1
 170 1454 l 1
 242 1454 478 1452 633 1452 c 0
 744 1452 818 1451 858 1448 c 1
 1146 955 l 1
 1452 1449 l 1
 2079 1449 l 1
 2081 1406 l 1
 1546 630 l 1
 1766 630 l 1
 1754 409 l 1
 1476 409 l 1
 1471 308 l 1
 1574 308 1645.97061363 309 1663 309 c 2
 1751 309 l 1
 1748 95 l 1
 1460 98 l 1
 1453 -23 l 2
 1453 -24 1446 -25 1434 -25 c 0
EndSplineSet
EndChar

StartChar: z
Encoding: 90 122 361
Width: 1442
VWidth: 0
Flags: HW
LayerCount: 2
Fore
SplineSet
1180 0 m 1
 314 0 l 1
 260 4 184 4 157 4 c 1
 574 746 l 1
 430.809935205 746 225.278617711 735 123 735 c 1
 123 736 l 1
 166.867189638 853.34929886 221.245830204 960.187146792 269.167221203 1073.48224429 c 1
 592.428855122 1073.48224429 930.788085938 1059 1251 1059 c 2
 1344 1059 l 1
 1344 1050 l 1
 1229.30334702 821.720253776 1112.05928415 597.757241216 994.656626932 372.638614679 c 1
 1102.15784396 374.534652687 1203.02941674 380 1308 380 c 1
 1316.20767284 373.559657195 l 1
 1180 0 l 1
EndSplineSet
EndChar

StartChar: zero
Encoding: 16 48 363
Width: 2079
VWidth: 0
Flags: HW
LayerCount: 2
Fore
SplineSet
1010 -45 m 0
 511 -45 126 212 126 666 c 0
 126 1135 444 1481 1098 1481 c 0
 1706 1481 1953 1114 1953 741 c 0
 1953 208 1563 -45 1010 -45 c 0
1078 326 m 0
 1307 326 1335 558 1335 741 c 0
 1335 877 1308 1122 1116 1122 c 0
 881 1122 847 899 847 716 c 0
 847 542 868 326 1078 326 c 0
EndSplineSet
EndChar

StartChar: uniFB04
Encoding: 382 64260 481
Width: 3402
VWidth: 0
Flags: HW
LayerCount: 2
Fore
SplineSet
2656 -17 m 1
 2695.14271331 1215.99546942 l 1
 2577.14271331 1229.99546942 2519 1237 2437 1237 c 0
 2168 1237 2109 1159 2109 981 c 1
 2323 981 l 2
 2384 981 2407 979 2467 971 c 1
 2448 747 l 1
 2108 747 l 1
 2097 514 2081 274 2081 124 c 1
 2078 -4 l 1
 1572 -8 l 2
 1541 -8 1511 -7 1481 -5 c 1
 1480 22 1477 51 1477 84 c 0
 1479 215 1493 479 1509 746 c 1
 1439 746 l 1
 1225 744 1139 747 921 747 c 1
 910 514 894 274 894 124 c 1
 891 -4 l 1
 385 -8 l 2
 354 -8 320 -7 290 -5 c 1
 289 22 290 51 290 84 c 0
 292 215 306 478 322 745 c 1
 141 745 l 2
 126 745 121 746 104 750 c 1
 106 799 118 924 126 981 c 1
 335 981 l 1
 352 1356 614 1519 1066 1519 c 0
 1159 1519 1219 1512 1324 1498 c 1
 1324 1358 1340 1244 1352 1176 c 1
 1281 1184 1261 1188 1208 1188 c 0
 961 1188 952 1102 922 981 c 1
 1522 981 l 1
 1557 1426 1963 1570 2505 1570 c 0
 2768 1570 3015.23998762 1536.02784392 3294.23998762 1486.02784392 c 1
 3245 142 l 1
 3247 -2 l 1
 2656 -17 l 1
EndSplineSet
EndChar

StartChar: uniFB00
Encoding: 376 64256 482
Width: 2588
VWidth: 0
Flags: HW
LayerCount: 2
Fore
SplineSet
2114 -4 m 1
 1608 -4 l 2
 1577 -4 1547 -3 1517 -1 c 1
 1516 26 1513 51 1513 84 c 0
 1515 215 1529 478 1545 745 c 1
 1498 745 l 2
 1291 745 1135 746 921 747 c 1
 910 514 894 274 894 124 c 1
 891 -4 l 1
 385 -8 l 2
 354 -8 324 -7 294 -5 c 1
 293 22 290 51 290 84 c 0
 292 215 306 478 322 745 c 1
 141 745 l 2
 126 745 121 746 104 750 c 1
 106 799 118 924 126 981 c 1
 335 981 l 1
 352 1356 630 1519 1082 1519 c 0
 1175 1519 1285 1512 1390 1498 c 1
 1388 1176 l 1
 1317 1184 1277 1188 1224 1188 c 0
 977 1188 952 1102 922 981 c 1
 1309 981 l 2
 1411 981 1524 981 1558 976 c 1
 1575 1351 1883 1519 2335 1519 c 0
 2428 1519 2528 1512 2633 1498 c 1
 2629 1176 l 1
 2558 1184 2530 1188 2477 1188 c 0
 2230 1188 2175 1102 2145 981 c 1
 2389 981 l 2
 2450 981 2513 979 2573 971 c 1
 2573 925 2565 819 2554 747 c 1
 2144 747 l 1
 2133 514 2117 274 2117 124 c 1
 2114 -4 l 1
EndSplineSet
EndChar

StartChar: Dcroat
Encoding: 377 272 483
Width: 1548
VWidth: 0
Flags: H
LayerCount: 2
Fore
SplineSet
166 562.806120793 m 2
 86 562.806120793 43.9656063981 568.201042667 47 591 c 2
 84 869 l 1
 237.428576775 871.867823865 l 1
 249.472607112 1043.99882822 260.08207747 1226.6435621 267 1409 c 1
 267 1409 888 1461 1287 1461 c 0
 1797 1461 2188 1264 2188 783 c 0
 2188 19 1620.05492445 12.6293816226 1010 -14 c 0
 864.054924446 -20.3706183774 720 -22 576 -22 c 2
 153 -22 l 1
 161.787586539 31.8239675488 187.769062135 259.396708737 213.548875536 562.806120793 c 1
 166 562.806120793 l 2
931.369338811 559 m 1
 922 360 l 1
 1278 363 1490 406 1490 744 c 0
 1490 976 1319 1072 1172 1072 c 0
 1097 1072 990 1066 955 1064 c 1
 946.02062586 872.44001834 l 1
 1044.91225072 872.756802489 1113.72868202 873 1135 873 c 0
 1146 873 1164.28919806 866.963840453 1163 844 c 2
 1147 559 l 1
 931.369338811 559 l 1
EndSplineSet
EndChar

StartChar: kgreenlandic
Encoding: 238 312 484
Width: 1768
VWidth: 0
Flags: HW
LayerCount: 2
Fore
SplineSet
1146 -18 m 1
 833 331 l 1
 718 241 l 1
 713 -2 l 1
 130.429046602 -11.0147438695 l 1
 165 995 l 1
 336 995 l 1
 752.976954361 989.958427474 l 1
 738 638 l 1
 840.433016404 751.90031693 943.036559825 865.630106842 1047 978 c 1
 1599 989 l 2
 1641 989 1681 988 1720 987 c 1
 1567.91908507 827.414248268 1420.4985035 663.168163165 1263 509 c 1
 1443 318 1613 152 1762 7 c 1
 1146 -18 l 1
EndSplineSet
EndChar

StartChar: uni0237
Encoding: 337 567 487
Width: 1087
VWidth: 0
Flags: HW
LayerCount: 2
Fore
SplineSet
-63 -438 m 2
 -63 -415 -28 -146 -28 -119 c 1
 10 -121 47 -123 80 -123 c 0
 235 -123 340 -85 353 184 c 0
 367 454 374 677 380 1000 c 1
 421 1003 749 1014 900 1026 c 1
 903 1026 l 2
 926 1026 946 1025 965 1023 c 1
 936 103 l 1
 915 -310 677 -448 267 -448 c 0
 174 -448 -30 -441 -63 -439 c 1
 -63 -438 l 2
EndSplineSet
EndChar

StartChar: Hbar
Encoding: 220 294 489
Width: 2421
VWidth: 0
Flags: HW
LayerCount: 2
Fore
SplineSet
950 943 m 1
 1488 943 l 1
 1489.06216719 950.435170302 1493.25822085 1014.90707444 1498.23587161 1095.09530852 c 1
 1309.21021384 1094.65995646 1125.29211838 1094.3976437 961.26883237 1094.23959234 c 1
 950 943 l 1
974.427155374 1270.83813792 m 1
 1509.07285513 1273.11710509 l 1
 1514.58468392 1364.93962671 1519 1440 1519 1440 c 1
 1561 1440 1622 1438 1661 1439 c 2
 2237 1454 l 1
 2237.3272686 1447.454628 2233.58455721 1374.29010984 2228.40076712 1276.18329398 c 1
 2420 1276.18329398 l 1
 2413 1099 l 1
 2350.79538231 1098.5492419 2285.84373229 1098.13912037 2218.93269232 1097.76597197 c 1
 2209.95354247 927.995346658 2201 753.894178989 2201 717 c 0
 2201 677 2197 698 2180 2 c 1
 2124 2 1537 -11 1462 -11 c 1
 1462 60 1470 317 1476 432 c 1
 942 432 l 1
 916 2 l 1
 226.00462606 -17.166538165 l 1
 226.00462606 102.833461835 229.735652572 261.00962166 234.9882516 402.000437685 c 2
 256 966 l 2
 256.643900268 985.638958186 259.257186426 1034.19679338 262.60514111 1093.58656474 c 1
 62 1093.58656474 l 1
 74 1267 l 1
 272.573818071 1267 l 1
 276.982042368 1344.16424296 280.838982596 1414.2005533 282 1444 c 1
 359 1448 853 1453 969 1453 c 2
 988 1453 l 1
 974.427155374 1270.83813792 l 1
EndSplineSet
EndChar

StartChar: product
Encoding: 372 8719 492
Width: 2161
VWidth: 0
Flags: HW
LayerCount: 2
Fore
SplineSet
2089 1454 m 1
 2090 1434 2053 792 2053 717 c 0
 2053 677 2049 698 2032 2 c 1
 1597 -34 l 2
 1511 -41 1389 -51 1314 -51 c 1
 1314 101 l 2
 1314 216 1357 827 1366 942 c 1
 832 942 l 1
 768 2 l 1
 208.042775259 -23.9239455899 l 1
 78 -17 l 1
 78 103 81.7356525717 261.00962166 86.9882516 402.000437685 c 2
 108 966 l 1
 114 1074 121 1184 138 1350 c 1
 142 1410 l 1
 154 1424 l 1
 229 1436 708 1453 821 1453 c 0
 1405 1453 1653 1454 2089 1454 c 1
EndSplineSet
EndChar

StartChar: integral
Encoding: 373 8747 493
Width: 1328
VWidth: 0
Flags: HW
LayerCount: 2
Fore
SplineSet
359 245 m 10
 417 981 l 18
 448 1379 662 1517 1019 1517 c 0
 1099 1517 1186 1510 1279 1498 c 1
 1277 1176 l 1
 1228 1181 1187 1185 1154 1185 c 0
 1039 1185 1013 1142 1004 981 c 10
 964 264 l 18
 942 -143 684 -319 369 -319 c 0
 266 -319 157 -300 47 -264 c 1
 60 -13 l 1
 92 -18 121 -20 147 -20 c 0
 307 -20 345 71 359 245 c 10
EndSplineSet
EndChar

StartChar: notequal
Encoding: 396 8800 494
Width: 1136
VWidth: 0
Flags: HW
LayerCount: 2
Fore
SplineSet
403 76 m 1
 371 17 l 1
 131 35 l 1
 249 288 l 1
 95 288 l 1
 101 542 l 1
 368 542 l 1
 474 765 l 1
 93 765 l 1
 109.414082854 1025.10008215 l 1
 595.999995484 1025.10008215 l 1
 745 1341 l 1
 979 1330 l 1
 840 1027 l 1
 1044 1027 l 1
 1033 774 l 1
 943 772 831 770 722 769 c 1
 617 542 l 1
 1029 546 l 1
 1031 290 l 1
 925 287 663 287 541 287 c 2
 500 287 l 1
 403 76 l 1
EndSplineSet
EndChar

StartChar: lozenge
Encoding: 395 9674 495
Width: 1076
VWidth: 0
Flags: HW
LayerCount: 2
Fore
SplineSet
379 1565 m 1
 450 1565 622 1565 692 1567 c 1
 787 1332 918 1017 1004 784 c 1
 925 546 787 234 692 -2 c 1
 379 -2 l 1
 306 193 110 678 72 782 c 1
 112 890 304 1366 379 1565 c 1
370 782 m 1
 555 282 l 1
 727 784 l 1
 555 1283 l 1
 370 782 l 1
EndSplineSet
EndChar

StartChar: greaterequal
Encoding: 392 8805 496
Width: 1188
VWidth: 0
Flags: HW
LayerCount: 2
Fore
SplineSet
737 -1 m 2
 85.0023056201 1.58216908665 l 1
 98 241 l 1
 1078 241 l 1
 1076 0 l 1
 936 0 l 2
 869 0 789 -1 737 -1 c 2
1096 1062 m 1
 1098 606 l 1
 189.72057721 337.946804494 l 1
 96 675 l 1
 145 691 667 812 712 836 c 1
 92 958 l 1
 140 1299 l 1
 290 1253 963 1096 1096 1062 c 1
EndSplineSet
EndChar

StartChar: lessequal
Encoding: 394 8804 497
Width: 1189
VWidth: 0
Flags: HW
LayerCount: 2
Fore
SplineSet
744 -1 m 2
 92.0023056201 1.58216908665 l 1
 98 241 l 1
 1085 241 l 1
 1083 0 l 1
 943 0 l 2
 876 0 796 -1 744 -1 c 2
101 1062 m 1
 234 1096 1057 1298 1057 1299 c 2
 1105 958 l 1
 485 836 l 1
 519 824 1052 691 1101 675 c 1
 1007.27942279 337.946804494 l 1
 99 606 l 1
 101 1062 l 1
EndSplineSet
EndChar

StartChar: approxequal
Encoding: 388 8776 498
Width: 1253
VWidth: 0
Flags: HW
LayerCount: 2
Fore
SplineSet
1049 528 m 1
 1192 293 l 1
 1097 200 1007 169 918 169 c 0
 745 169 541 290 376 290 c 0
 300 290 232 264 180 189 c 1
 64 416 l 1
 156 543 249 585 341 585 c 0
 479 585 720 453 891 453 c 0
 957 453 1013 473 1049 528 c 1
1049 1038 m 1
 1192 803 l 1
 1097 710 1007 679 918 679 c 0
 745 679 541 800 376 800 c 0
 300 800 232 774 180 699 c 1
 64 926 l 1
 156 1053 249 1095 341 1095 c 0
 479 1095 720 963 891 963 c 0
 957 963 1013 983 1049 1038 c 1
EndSplineSet
EndChar

StartChar: infinity
Encoding: 393 8734 499
Width: 2001
VWidth: 0
Flags: HW
LayerCount: 2
Fore
SplineSet
1137 771 m 1
 1253 684 1332 625 1414 625 c 0
 1506 625 1553 698 1553 771 c 0
 1553 844 1508 916 1414 916 c 0
 1332 916 1256 857 1137 771 c 1
1001 549 m 1
 859 407 670 329 501 329 c 0
 279 329 92 464 92 771 c 0
 92 1077 279 1213 501 1213 c 0
 670 1213 859 1134 1001 992 c 1
 1143 1134 1331 1213 1500 1213 c 0
 1722 1213 1909 1077 1909 770 c 0
 1909 464 1722 329 1500 329 c 0
 1331 329 1143 407 1001 549 c 1
864 771 m 1
 745 857 669 916 587 916 c 0
 493 916 448 844 448 771 c 0
 448 698 495 625 587 625 c 0
 669 625 748 684 864 771 c 1
EndSplineSet
EndChar

StartChar: uni00B5
Encoding: 401 181 500
Width: 1277
VWidth: 0
Flags: HW
LayerCount: 2
Fore
SplineSet
678.38794241 -420.01581287 m 1
 118 -466 l 1
 119 390 118 399 118 407 c 0
 118 430 118 453 119 472 c 1
 119 478 l 1
 121 711 136 822 141 987 c 1
 223 1001 452 1031 598 1031 c 0
 654 1031 701 1027 744 1023 c 1
 735 850 720 518 720 507 c 0
 720 361 779 245 922 245 c 0
 1192 245 1200 568 1200 997 c 1
 1342 1007 1487 1015 1769 1031 c 1
 1770 992 1772.09366182 955.942279586 1770 918 c 2
 1721 30 l 1
 1647 17 1569 5 1406 -17 c 1
 1310 190 l 1
 1173 33 953 -38 746 -38 c 0
 728 -38 711 -38 694 -37 c 1
 678.38794241 -420.01581287 l 1
EndSplineSet
EndChar

StartChar: afii10050
Encoding: 409 1168 508
Width: 1857
VWidth: 0
Flags: HW
LayerCount: 2
Fore
SplineSet
1819 1823 m 1
 1809 945 l 1
 1235 940 l 1
 972 940 l 1
 975 825 945 214 949 99 c 2
 953 -4 l 1
 918 -4 871 -5 780 -5 c 0
 673 -5 506 -4 226 0 c 1
 245 696 240 675 242 715 c 0
 246 790 273 1432 275 1452 c 1
 1250.98832875 1443.6377989 l 1
 1272 1839 l 1
 1819 1823 l 1
EndSplineSet
EndChar

StartChar: afii10098
Encoding: 410 1169 509
Width: 2024
VWidth: 0
Flags: HW
LayerCount: 2
Fore
SplineSet
291 1031 m 1
 744 1030 639 1027 1090 1028 c 1
 1105.67300488 1312.07321352 l 1
 1503 1312.07321352 l 1
 1503 1292.07321352 1493 682 1493 666 c 1
 752 666 l 1
 746 -7 l 1
 742 -7 736 -8 728 -8 c 0
 623 -8 218 -5 148 4 c 1
 136.379510698 14.0089555157 l 1
 151 1027 l 1
 291 1031 l 1
EndSplineSet
EndChar

StartChar: uni04B0
Encoding: 411 1200 510
Width: 2033
VWidth: 0
Flags: HW
LayerCount: 2
Fore
SplineSet
667 -10 m 1
 658 46 656 481 656 513 c 1
 653 517 l 1
 151 517 l 1
 174 733 l 1
 512 733 l 1
 55.4241683894 1429.27814321 l 1
 55.4241683894 1429.27814321 759 1458 792 1458 c 1
 1065 1052 l 1
 1336 1479 l 1
 1364 1483 2025 1482 2045 1478 c 0
 2051 1477 2023 1435 2019 1428 c 2
 1525 739 l 1
 1843 739 l 1
 1843 722 1836 648 1833 613 c 2
 1824 517 l 1
 1396 517 l 1
 1372 8 l 1
 1233 2 l 1
 667 -10 l 1
EndSplineSet
EndChar

StartChar: uni04B1
Encoding: 412 1201 511
Width: 1735
VWidth: 0
Flags: HW
LayerCount: 2
Fore
SplineSet
1314 116 m 1
 1659 116 l 1
 1659 99 1652 55 1649 20 c 2
 1640 -76 l 1
 1238 -76 l 1
 1242 -416 l 1
 697 -414 l 1
 693 -76 l 1
 257 -76 l 1
 260 110 l 1
 596 110 l 1
 99 1000 l 1
 683 1025 l 1
 964 374 l 1
 1010 498 1134 903 1183 1024 c 1
 1211 1026 1239.02133873 1027.15001991 1270 1026 c 2
 1701 1010 l 1
 1575.54180697 708.458193028 1442.60562788 414.394372121 1314 116 c 1
EndSplineSet
EndChar
